<svg xmlns="http://www.w3.org/2000/svg" viewBox="0 0 1500 1861" width="1500" height="1861">
  <defs>
    <filter id="sh" x="-20%" y="-20%" width="140%" height="160%">
      <feDropShadow dx="0" dy="3" stdDeviation="4.5" flood-color="#000" flood-opacity="0.30"/>
    </filter>
  </defs>
  <path d="M 796.5 1043.4 L 787.6 1072.4 L 789.8 1078.9 L 793.8 1090.8 L 794.8 1092.8 L 795.2 1093.6 L 796.0 1094.6 L 796.0 1097.0 L 795.9 1099.9 L 796.0 1102.1 L 795.9 1103.0 L 795.5 1105.7 L 795.2 1108.8 L 793.7 1111.0 L 792.8 1113.0 L 791.8 1115.0 L 790.1 1118.0 L 789.9 1118.8 L 789.6 1119.4 L 789.3 1120.1 L 788.5 1121.2 L 788.4 1121.6 L 787.6 1122.2 L 786.7 1123.3 L 786.2 1124.3 L 784.8 1125.4 L 783.9 1126.8 L 783.0 1127.6 L 782.6 1128.0 L 782.1 1128.4 L 780.0 1133.5 L 778.4 1131.3 L 757.6 1129.9 L 756.9 1100.4 L 754.9 1092.9 L 752.9 1088.4 L 737.2 1082.3 L 725.2 1080.2 L 713.7 1080.4 L 705.2 1081.8 L 698.5 1086.7 L 691.4 1090.2 L 670.5 1088.4 L 653.4 1083.9 L 640.5 1079.6 L 635.1 1074.8 L 631.5 1067.6 L 629.0 1060.2 L 627.8 1053.7 L 629.7 1046.0 L 633.4 1039.2 L 640.6 1031.4 L 642.9 1028.9 L 639.0 1016.5 L 616.7 1009.4 L 594.6 1009.6 L 574.5 1009.9 L 567.9 1008.2 L 567.8 1008.2 L 544.7 1002.3 L 341.6 968.0 L 336.4 966.6 L 344.3 953.0 L 365.1 904.7 L 378.6 870.7 L 398.7 820.3 L 413.0 779.0 L 417.3 769.4 L 449.4 697.9 L 472.6 647.8 L 509.6 575.0 L 537.7 521.6 L 565.4 478.1 L 574.2 463.7 L 617.4 389.1 L 641.7 339.1 L 650.3 315.1 L 665.0 293.4 L 705.7 222.1 L 748.4 156.2 L 795.8 90.0 L 804.9 127.5 L 837.3 198.4 L 875.1 269.5 L 893.2 298.9 L 915.6 335.3 L 966.9 407.5 L 981.9 423.0 L 1006.8 448.8 L 1007.1 449.3 L 1028.5 493.5 L 1032.5 512.5 L 1042.3 558.4 L 1050.1 604.4 L 1056.8 623.6 L 1058.2 627.7 L 1089.0 662.8 L 1122.5 705.3 L 1131.4 719.2 L 1157.5 760.1 L 1167.7 807.4 L 1170.6 846.8 L 1164.4 882.8 L 1154.6 920.7 L 1152.8 927.6 L 1146.2 965.0 L 1147.8 1006.3 L 1157.1 1038.6 L 1163.6 1053.9 L 1170.1 1069.1 L 1177.5 1089.5 L 1173.5 1126.9 L 1172.1 1144.1 L 1171.3 1171.8 L 1176.4 1196.9 L 1187.2 1198.5 L 1181.8 1211.6 L 1191.4 1237.3 L 1197.5 1248.5 L 1206.8 1258.6 L 1207.2 1259.3 L 1211.5 1267.8 L 1216.9 1276.8 L 1234.0 1291.5 L 1236.0 1293.3 L 1246.0 1306.8 L 1252.3 1314.6 L 1258.1 1323.9 L 1264.7 1331.7 L 1267.7 1336.8 L 1272.5 1344.6 L 1278.8 1357.8 L 1285.2 1382.2 L 1290.6 1391.2 L 1297.8 1399.9 L 1303.9 1413.4 L 1309.1 1426.7 L 1322.5 1448.9 L 1327.8 1461.7 L 1328.9 1464.3 L 1343.4 1491.0 L 1351.8 1509.9 L 1358.2 1518.8 L 1334.7 1519.5 L 1323.2 1521.0 L 1314.8 1520.4 L 1304.4 1519.0 L 1291.5 1517.4 L 1284.7 1516.6 L 1284.2 1516.6 L 1279.0 1516.0 L 1273.8 1514.2 L 1273.4 1513.9 L 1270.8 1511.6 L 1267.7 1508.5 L 1265.4 1504.7 L 1262.6 1502.4 L 1258.3 1501.0 L 1253.1 1500.6 L 1252.5 1500.6 L 1248.8 1500.2 L 1248.0 1500.2 L 1244.9 1499.0 L 1244.5 1498.8 L 1240.8 1497.3 L 1236.4 1495.6 L 1232.0 1494.3 L 1226.8 1494.2 L 1221.0 1494.5 L 1215.3 1493.9 L 1209.6 1491.7 L 1203.6 1489.7 L 1197.7 1486.6 L 1189.3 1481.7 L 1185.0 1474.9 L 1187.0 1455.9 L 1190.9 1436.0 L 1190.9 1426.1 L 1185.9 1407.2 L 1182.6 1397.5 L 1177.7 1386.2 L 1172.4 1369.6 L 1167.4 1367.5 L 1156.1 1365.8 L 1141.3 1368.7 L 1129.4 1372.0 L 1122.6 1372.9 L 1115.6 1373.3 L 1106.2 1365.6 L 1097.0 1355.9 L 1087.3 1340.2 L 1085.6 1333.8 L 1084.2 1334.1 L 1077.9 1335.4 L 1075.0 1336.0 L 1074.9 1336.0 L 1071.9 1335.5 L 1069.3 1334.3 L 1066.9 1332.7 L 1064.9 1330.7 L 1063.8 1328.8 L 1062.7 1325.3 L 1061.7 1322.6 L 1060.5 1320.7 L 1059.1 1320.6 L 1057.2 1321.5 L 1054.9 1323.9 L 1051.6 1328.2 L 1049.9 1331.7 L 1048.2 1333.8 L 1046.3 1335.1 L 1044.9 1334.6 L 1044.0 1333.3 L 1042.9 1331.8 L 1041.7 1329.5 L 1040.7 1326.7 L 1039.7 1324.8 L 1038.4 1323.7 L 1036.7 1323.0 L 1035.0 1323.0 L 1032.3 1322.8 L 1030.5 1322.7 L 1028.6 1322.1 L 1027.4 1321.5 L 1026.1 1319.7 L 1025.1 1317.3 L 1024.0 1314.7 L 1022.6 1312.6 L 1020.1 1309.4 L 1019.4 1307.5 L 1019.0 1305.1 L 1019.2 1302.8 L 1019.9 1300.3 L 1021.2 1297.0 L 1021.6 1294.6 L 1021.3 1292.3 L 1020.3 1289.9 L 1018.2 1286.7 L 1015.7 1284.1 L 1014.3 1283.6 L 1011.7 1283.9 L 1007.5 1284.3 L 1004.9 1284.8 L 1000.6 1283.7 L 998.4 1281.9 L 996.4 1278.7 L 993.3 1275.7 L 990.6 1273.4 L 987.7 1270.8 L 985.0 1269.5 L 982.8 1268.1 L 979.8 1264.9 L 977.6 1260.4 L 977.0 1256.6 L 978.2 1250.5 L 981.4 1242.7 L 982.4 1237.0 L 982.6 1231.1 L 980.5 1226.8 L 974.1 1216.4 L 966.0 1204.9 L 961.7 1199.7 L 947.7 1190.7 L 939.2 1183.7 L 935.9 1179.6 L 933.8 1175.3 L 932.5 1170.3 L 932.5 1162.5 L 936.2 1148.4 L 937.8 1139.3 L 937.6 1133.8 L 936.4 1129.5 L 933.9 1124.8 L 930.6 1119.7 L 925.9 1114.2 L 924.3 1112.0 L 919.0 1104.7 L 914.0 1096.1 L 911.3 1088.8 L 908.3 1074.5 L 908.2 1067.1 L 908.2 1063.5 L 909.7 1053.3 L 914.2 1042.1 L 924.7 1021.9 L 907.1 978.3 L 905.2 973.8 L 864.6 979.6 L 831.2 990.6 L 828.6 991.4 L 828.0 992.7 L 821.9 1005.9 L 796.5 1043.4 Z" fill="none" stroke="#6b7280" stroke-width="11" stroke-opacity="0.95" stroke-linejoin="round" stroke-linecap="round"/>
  <path d="M 667.1 1742.0 L 657.8 1738.9 L 647.3 1740.1 L 634.6 1734.7 L 624.0 1726.9 L 611.9 1734.1 L 598.8 1736.5 L 588.1 1727.2 L 578.1 1722.3 L 567.2 1720.2 L 550.1 1714.6 L 538.3 1709.2 L 525.3 1692.4 L 519.6 1678.7 L 516.7 1667.4 L 517.1 1652.8 L 513.7 1646.3 L 510.8 1640.7 L 510.8 1640.6 L 500.7 1632.2 L 495.7 1622.4 L 488.0 1612.0 L 479.4 1604.7 L 469.8 1601.4 L 458.0 1598.1 L 446.8 1592.6 L 443.0 1583.4 L 447.2 1573.0 L 448.2 1562.8 L 445.5 1552.6 L 440.8 1543.1 L 438.4 1533.2 L 432.1 1521.9 L 423.9 1513.7 L 421.5 1510.3 L 421.0 1510.2 L 419.6 1510.0 L 419.5 1510.0 L 418.4 1509.9 L 418.4 1509.9 L 417.4 1509.8 L 416.6 1509.7 L 415.8 1509.4 L 415.0 1509.2 L 413.7 1509.0 L 413.0 1509.0 L 412.4 1508.6 L 412.2 1508.3 L 411.9 1507.8 L 411.5 1507.6 L 411.0 1507.3 L 410.8 1506.6 L 410.7 1505.7 L 410.5 1505.3 L 409.9 1505.3 L 409.2 1505.2 L 408.8 1504.7 L 408.9 1503.7 L 408.5 1503.2 L 408.2 1502.7 L 408.1 1502.1 L 408.2 1501.6 L 408.7 1501.0 L 408.6 1500.6 L 407.9 1500.6 L 407.3 1500.5 L 406.8 1500.1 L 407.0 1499.6 L 407.3 1499.0 L 407.5 1498.4 L 406.7 1497.5 L 406.5 1496.9 L 406.9 1496.3 L 407.3 1495.6 L 407.7 1495.0 L 408.1 1495.0 L 408.6 1495.4 L 409.1 1495.8 L 409.6 1495.8 L 409.8 1495.5 L 409.6 1494.8 L 409.4 1493.9 L 409.0 1493.3 L 408.8 1492.8 L 409.0 1491.9 L 409.2 1491.3 L 408.8 1490.9 L 408.4 1491.1 L 408.0 1491.6 L 407.7 1492.0 L 407.3 1492.3 L 406.9 1492.3 L 406.4 1492.2 L 406.1 1491.9 L 406.0 1491.4 L 406.3 1491.0 L 406.5 1490.6 L 406.6 1490.1 L 406.3 1489.7 L 405.9 1489.3 L 405.4 1489.3 L 404.9 1489.5 L 404.5 1489.7 L 404.1 1489.8 L 403.6 1489.6 L 402.9 1489.2 L 402.2 1488.6 L 401.4 1488.3 L 401.0 1488.6 L 400.8 1489.0 L 400.6 1489.6 L 400.2 1490.1 L 399.8 1490.5 L 398.9 1490.7 L 398.8 1491.0 L 399.2 1491.3 L 399.8 1491.4 L 400.2 1491.8 L 400.0 1492.1 L 399.5 1492.5 L 398.7 1492.9 L 398.0 1493.0 L 397.6 1492.5 L 397.5 1491.8 L 397.3 1491.1 L 396.6 1490.8 L 395.7 1490.9 L 394.9 1491.3 L 394.1 1491.7 L 393.7 1491.5 L 394.0 1490.9 L 394.8 1490.2 L 395.1 1489.4 L 395.1 1488.8 L 394.5 1488.1 L 393.6 1488.2 L 392.8 1488.1 L 392.4 1486.6 L 392.2 1485.4 L 392.1 1484.3 L 391.8 1482.9 L 391.6 1482.2 L 392.0 1481.9 L 392.7 1482.2 L 393.4 1482.6 L 393.8 1482.1 L 393.9 1481.3 L 393.9 1480.5 L 393.6 1480.0 L 393.0 1479.9 L 392.2 1480.2 L 391.6 1480.1 L 391.0 1479.3 L 390.5 1478.8 L 390.1 1478.2 L 390.0 1477.8 L 390.4 1477.2 L 390.6 1476.3 L 390.7 1475.2 L 390.7 1474.5 L 390.2 1474.1 L 389.6 1474.0 L 389.0 1474.5 L 388.4 1475.2 L 387.9 1476.1 L 387.4 1477.0 L 387.0 1477.5 L 386.6 1477.5 L 386.4 1477.1 L 386.1 1476.6 L 385.3 1476.6 L 384.1 1476.9 L 383.0 1477.4 L 382.0 1478.0 L 381.0 1478.9 L 380.3 1479.7 L 380.0 1480.5 L 380.1 1481.2 L 380.9 1481.6 L 381.7 1482.2 L 382.1 1483.2 L 382.8 1484.1 L 383.7 1484.4 L 384.6 1484.6 L 385.0 1485.1 L 384.9 1485.7 L 383.9 1486.2 L 382.7 1486.6 L 381.9 1486.4 L 380.8 1485.6 L 379.7 1485.3 L 378.2 1485.5 L 377.4 1486.0 L 376.5 1487.0 L 375.3 1487.6 L 374.3 1487.8 L 374.2 1487.3 L 374.5 1486.3 L 374.5 1485.1 L 373.8 1483.8 L 372.7 1482.5 L 371.9 1481.5 L 371.5 1480.5 L 371.2 1479.3 L 370.3 1478.6 L 369.0 1478.5 L 367.9 1479.2 L 367.2 1480.5 L 367.4 1481.3 L 367.3 1482.5 L 366.6 1483.6 L 366.6 1483.6 L 365.8 1484.0 L 364.5 1484.3 L 363.2 1484.2 L 362.3 1484.1 L 361.6 1483.6 L 361.4 1482.9 L 361.6 1482.1 L 362.4 1481.8 L 363.6 1481.7 L 364.3 1481.4 L 364.9 1481.0 L 364.8 1480.5 L 364.0 1479.7 L 363.1 1478.7 L 361.9 1477.9 L 360.8 1477.3 L 359.9 1476.8 L 358.8 1475.7 L 358.1 1474.7 L 357.6 1474.0 L 357.2 1473.5 L 356.6 1472.9 L 356.1 1472.3 L 354.9 1471.6 L 354.2 1471.3 L 353.5 1471.0 L 352.4 1470.7 L 351.8 1470.3 L 351.2 1469.8 L 350.4 1469.4 L 349.3 1468.8 L 348.2 1467.9 L 346.6 1466.9 L 345.3 1466.2 L 344.3 1465.5 L 343.1 1465.0 L 341.8 1464.7 L 340.9 1464.3 L 340.0 1463.8 L 339.1 1463.1 L 338.0 1462.0 L 336.7 1460.7 L 335.9 1459.8 L 335.1 1458.5 L 334.4 1457.7 L 333.6 1456.8 L 333.0 1456.3 L 332.2 1455.9 L 331.2 1455.3 L 330.5 1454.7 L 329.9 1453.7 L 329.5 1452.7 L 329.0 1451.3 L 328.7 1449.7 L 328.7 1448.9 L 328.8 1448.0 L 328.5 1447.3 L 327.8 1447.1 L 326.8 1447.5 L 325.3 1448.1 L 324.4 1448.3 L 323.6 1448.3 L 322.7 1448.1 L 321.4 1447.4 L 320.1 1446.8 L 318.3 1446.6 L 312.2 1446.3 L 311.0 1446.8 L 309.9 1447.9 L 309.0 1449.0 L 307.7 1449.9 L 306.3 1450.9 L 305.3 1451.7 L 304.1 1452.3 L 302.5 1452.8 L 301.1 1453.4 L 299.4 1454.4 L 297.3 1455.9 L 296.0 1456.5 L 292.3 1457.2 L 290.5 1457.4 L 288.5 1457.4 L 285.9 1457.7 L 282.6 1458.4 L 280.6 1458.9 L 278.3 1459.1 L 275.8 1459.1 L 273.5 1459.0 L 271.0 1458.8 L 269.7 1458.4 L 268.4 1457.5 L 267.4 1456.2 L 266.5 1454.2 L 265.8 1452.4 L 264.7 1450.3 L 263.7 1448.3 L 261.9 1447.0 L 259.1 1445.9 L 256.5 1445.5 L 254.3 1445.3 L 251.6 1445.5 L 248.1 1445.8 L 245.8 1445.6 L 243.6 1445.6 L 243.5 1445.6 L 243.4 1445.6 L 241.2 1446.1 L 241.2 1446.1 L 240.7 1446.5 L 240.2 1446.8 L 240.1 1447.0 L 239.8 1447.4 L 239.6 1447.5 L 239.5 1447.7 L 239.4 1447.8 L 239.3 1447.8 L 239.3 1447.9 L 239.1 1448.2 L 238.7 1448.6 L 238.6 1448.7 L 238.6 1448.8 L 238.0 1449.3 L 237.6 1449.5 L 237.4 1449.6 L 237.2 1449.6 L 236.7 1449.6 L 236.5 1449.6 L 235.8 1449.6 L 235.6 1449.7 L 235.4 1449.7 L 235.2 1449.7 L 235.0 1449.8 L 234.9 1449.8 L 234.3 1450.0 L 233.9 1450.1 L 233.4 1450.2 L 232.8 1450.4 L 232.6 1450.4 L 232.5 1450.4 L 232.3 1450.4 L 231.8 1450.6 L 231.1 1451.1 L 230.6 1451.9 L 230.6 1451.9 L 230.2 1452.9 L 230.0 1453.5 L 229.8 1454.0 L 229.6 1454.4 L 229.5 1454.6 L 229.3 1454.8 L 229.2 1454.8 L 229.1 1454.9 L 229.0 1455.1 L 228.8 1455.3 L 228.7 1455.3 L 228.6 1455.4 L 228.6 1455.5 L 228.6 1455.5 L 228.5 1455.6 L 228.2 1455.8 L 228.2 1455.8 L 228.0 1455.9 L 227.9 1455.9 L 227.8 1455.9 L 227.8 1455.9 L 227.5 1455.9 L 227.4 1455.9 L 227.2 1455.9 L 227.1 1455.8 L 226.1 1455.6 L 225.8 1455.5 L 225.6 1455.5 L 225.5 1455.5 L 225.3 1455.4 L 225.2 1455.4 L 225.1 1455.4 L 224.8 1455.3 L 224.8 1455.3 L 224.7 1455.3 L 224.6 1455.3 L 224.6 1455.3 L 224.6 1455.3 L 224.5 1455.3 L 224.4 1455.3 L 224.0 1455.3 L 223.5 1455.3 L 223.2 1455.3 L 223.0 1455.3 L 222.9 1455.2 L 222.6 1455.2 L 222.2 1455.2 L 222.0 1455.2 L 221.6 1455.2 L 218.7 1456.8 L 217.1 1458.8 L 215.6 1460.8 L 213.1 1463.8 L 210.8 1466.1 L 209.3 1467.1 L 208.2 1467.9 L 205.4 1468.8 L 202.4 1469.2 L 199.2 1468.9 L 192.2 1465.5 L 189.6 1464.3 L 179.8 1457.3 L 171.3 1448.5 L 153.5 1422.5 L 146.9 1407.0 L 138.4 1393.0 L 134.1 1383.8 L 121.7 1357.4 L 117.5 1345.7 L 110.0 1320.9 L 105.2 1308.7 L 102.4 1292.6 L 101.8 1290.4 L 99.6 1276.3 L 96.4 1265.5 L 96.3 1250.8 L 95.0 1236.4 L 93.2 1224.1 L 93.5 1213.8 L 92.7 1202.7 L 90.0 1181.4 L 108.7 1172.5 L 122.2 1164.6 L 131.9 1155.9 L 152.4 1140.0 L 155.4 1137.3 L 171.1 1123.0 L 177.8 1115.0 L 184.5 1108.0 L 188.8 1104.2 L 228.4 1069.1 L 260.4 1045.6 L 293.7 1024.5 L 318.6 997.1 L 336.4 966.6 L 341.6 968.0 L 544.7 1002.3 L 567.8 1008.2 L 567.8 1008.2 L 570.5 1025.9 L 572.2 1037.5 L 569.2 1046.7 L 568.4 1047.8 L 560.3 1058.5 L 555.7 1061.2 L 552.0 1063.4 L 546.2 1066.9 L 542.0 1069.3 L 535.5 1074.1 L 528.6 1079.2 L 525.1 1081.7 L 521.1 1084.7 L 518.0 1085.5 L 514.9 1086.4 L 514.9 1086.4 L 517.7 1094.4 L 521.2 1093.7 L 520.8 1102.2 L 520.8 1104.3 L 521.1 1106.0 L 521.9 1107.5 L 523.0 1108.7 L 524.2 1109.5 L 526.0 1110.0 L 532.6 1109.9 L 540.4 1109.7 L 541.4 1109.9 L 542.7 1110.9 L 542.7 1110.9 L 542.9 1117.8 L 543.0 1120.2 L 543.3 1129.7 L 543.2 1131.8 L 542.3 1133.8 L 541.1 1135.6 L 538.3 1138.0 L 535.0 1138.7 L 528.9 1139.9 L 522.5 1141.3 L 524.0 1149.0 L 524.8 1153.1 L 525.4 1156.6 L 526.3 1161.2 L 526.3 1161.3 L 527.3 1166.0 L 528.7 1173.4 L 528.7 1173.4 L 530.2 1180.8 L 531.0 1185.4 L 526.6 1186.3 L 521.6 1187.3 L 521.7 1187.5 L 522.9 1193.2 L 521.1 1192.3 L 517.8 1189.4 L 514.8 1186.4 L 514.6 1186.2 L 514.4 1186.1 L 513.5 1187.3 L 513.0 1187.8 L 511.5 1189.2 L 507.8 1192.6 L 489.8 1209.3 L 490.1 1209.2 L 494.6 1208.0 L 502.5 1208.9 L 507.6 1209.4 L 509.3 1209.3 L 518.9 1208.7 L 523.2 1203.3 L 528.9 1196.5 L 531.0 1194.5 L 531.8 1194.3 L 532.5 1194.1 L 532.6 1194.0 L 533.1 1196.2 L 534.3 1202.5 L 535.6 1209.1 L 535.6 1209.4 L 536.5 1214.0 L 537.8 1220.5 L 538.8 1225.5 L 539.5 1229.3 L 539.5 1229.4 L 543.6 1250.6 L 543.7 1250.5 L 543.7 1250.6 L 545.0 1258.6 L 552.6 1253.6 L 560.8 1252.1 L 561.0 1254.6 L 561.1 1255.8 L 561.2 1257.3 L 562.1 1258.0 L 564.4 1259.2 L 566.2 1259.5 L 567.5 1260.3 L 569.1 1261.4 L 573.1 1262.8 L 575.4 1263.5 L 577.2 1264.7 L 577.5 1264.9 L 577.8 1265.1 L 578.0 1266.9 L 577.9 1268.7 L 578.3 1270.1 L 579.5 1270.0 L 583.8 1269.7 L 589.3 1271.0 L 593.2 1271.7 L 596.5 1273.4 L 599.9 1273.6 L 603.5 1273.9 L 604.9 1275.0 L 605.7 1276.1 L 606.2 1276.2 L 607.4 1276.4 L 609.9 1276.7 L 611.8 1277.3 L 614.2 1278.9 L 616.0 1281.6 L 616.8 1284.1 L 618.6 1291.3 L 618.7 1291.4 L 620.4 1291.7 L 622.6 1291.8 L 625.1 1290.7 L 627.3 1288.6 L 627.6 1287.7 L 627.9 1287.8 L 638.7 1290.8 L 645.2 1292.6 L 669.2 1296.6 L 684.6 1299.5 L 703.3 1303.1 L 709.3 1302.1 L 709.7 1301.4 L 715.2 1298.8 L 715.5 1297.8 L 717.4 1295.4 L 720.3 1294.7 L 722.7 1297.9 L 724.3 1299.4 L 726.5 1299.4 L 729.5 1299.4 L 729.8 1299.4 L 727.3 1304.9 L 725.6 1310.4 L 725.8 1315.3 L 726.5 1320.1 L 728.2 1324.4 L 730.2 1327.8 L 735.6 1331.2 L 741.3 1333.5 L 745.3 1336.8 L 748.6 1341.0 L 751.8 1344.5 L 758.1 1353.9 L 758.2 1357.6 L 757.7 1361.8 L 757.0 1366.7 L 757.0 1367.2 L 757.3 1371.3 L 758.3 1375.0 L 759.7 1378.3 L 761.8 1381.7 L 764.0 1385.0 L 766.4 1388.0 L 769.9 1391.5 L 773.9 1395.4 L 775.6 1397.3 L 775.9 1397.6 L 777.2 1401.0 L 779.1 1405.7 L 780.1 1410.2 L 781.1 1415.3 L 781.8 1419.5 L 782.0 1422.0 L 781.1 1423.9 L 780.8 1425.9 L 780.5 1427.7 L 780.9 1429.6 L 781.0 1431.7 L 780.3 1433.8 L 779.2 1435.8 L 777.6 1437.8 L 776.9 1440.1 L 776.5 1442.1 L 776.7 1445.1 L 777.3 1449.0 L 777.5 1450.7 L 778.4 1452.4 L 780.4 1454.7 L 782.6 1456.4 L 784.1 1458.0 L 784.0 1459.1 L 783.3 1460.6 L 783.3 1461.6 L 783.6 1462.9 L 783.5 1464.1 L 783.2 1465.4 L 782.1 1466.1 L 781.9 1466.7 L 782.3 1467.6 L 783.5 1468.2 L 784.3 1468.5 L 784.9 1469.2 L 784.8 1470.1 L 784.0 1471.0 L 783.6 1471.7 L 784.0 1472.5 L 785.0 1473.2 L 785.8 1474.3 L 786.7 1475.2 L 787.4 1476.2 L 787.4 1477.3 L 787.4 1478.2 L 787.9 1478.8 L 788.5 1479.4 L 788.5 1480.3 L 788.9 1481.2 L 789.2 1482.3 L 789.4 1483.5 L 789.3 1485.0 L 789.1 1485.8 L 788.3 1486.2 L 787.8 1486.5 L 788.0 1487.2 L 788.3 1488.0 L 788.3 1488.7 L 787.4 1488.7 L 786.5 1488.2 L 786.0 1487.3 L 785.0 1487.8 L 784.9 1488.4 L 785.2 1489.1 L 785.9 1489.5 L 786.4 1490.3 L 786.1 1490.7 L 785.5 1491.1 L 785.2 1492.0 L 784.8 1492.8 L 783.9 1493.3 L 783.8 1493.4 L 783.0 1494.2 L 783.0 1494.8 L 783.4 1495.8 L 783.1 1496.8 L 783.7 1497.5 L 784.1 1498.3 L 785.6 1498.3 L 787.1 1499.0 L 787.7 1500.3 L 789.0 1501.3 L 789.6 1503.0 L 790.6 1504.8 L 791.6 1506.7 L 792.1 1508.7 L 793.2 1510.7 L 793.6 1512.4 L 794.5 1515.2 L 795.9 1517.6 L 796.5 1518.8 L 796.9 1521.1 L 796.6 1523.5 L 796.5 1525.9 L 796.8 1527.2 L 797.1 1528.9 L 797.9 1530.1 L 799.3 1532.0 L 800.4 1534.4 L 800.4 1535.4 L 800.4 1536.5 L 800.4 1536.8 L 800.3 1539.1 L 800.4 1542.6 L 799.9 1544.8 L 796.6 1549.1 L 795.2 1550.8 L 792.2 1552.7 L 789.0 1555.2 L 787.1 1558.3 L 788.8 1562.6 L 791.2 1568.7 L 792.7 1572.6 L 792.9 1578.6 L 792.3 1584.1 L 793.7 1593.5 L 798.5 1597.9 L 800.5 1601.8 L 801.3 1604.7 L 803.4 1606.7 L 806.9 1609.4 L 808.7 1613.2 L 807.2 1618.8 L 805.4 1622.4 L 807.3 1627.7 L 808.8 1631.4 L 810.1 1634.1 L 811.6 1637.2 L 812.3 1638.9 L 813.2 1641.0 L 814.3 1642.6 L 814.9 1643.8 L 815.2 1645.0 L 816.1 1646.1 L 816.8 1647.6 L 816.8 1647.8 L 792.1 1670.7 L 781.9 1677.5 L 704.9 1729.2 L 692.9 1737.3 L 676.9 1747.8 L 667.1 1742.0 Z" fill="none" stroke="#6b7280" stroke-width="11" stroke-opacity="0.95" stroke-linejoin="round" stroke-linecap="round"/>
  <path d="M 751.8 1344.5 L 748.6 1341.0 L 745.3 1336.8 L 741.3 1333.5 L 735.6 1331.2 L 730.2 1327.8 L 728.2 1324.4 L 726.5 1320.1 L 725.8 1315.3 L 725.6 1310.4 L 727.3 1304.9 L 729.8 1299.4 L 729.9 1299.1 L 731.9 1292.9 L 732.3 1287.9 L 733.0 1282.9 L 731.6 1278.6 L 729.6 1272.9 L 727.7 1267.7 L 723.8 1262.4 L 719.9 1255.1 L 717.0 1250.8 L 715.6 1245.3 L 714.8 1240.3 L 715.3 1235.5 L 715.5 1233.5 L 716.0 1229.6 L 717.1 1221.7 L 717.7 1217.2 L 720.6 1213.0 L 724.3 1209.9 L 726.8 1210.1 L 733.6 1208.3 L 738.8 1205.7 L 742.0 1201.3 L 744.6 1195.2 L 745.7 1189.1 L 743.5 1184.0 L 740.4 1178.7 L 738.4 1172.0 L 738.4 1170.4 L 738.4 1170.2 L 738.4 1169.7 L 738.4 1165.3 L 740.2 1159.1 L 744.6 1150.3 L 755.1 1135.8 L 757.6 1129.9 L 778.4 1131.3 L 780.0 1133.5 L 782.1 1128.4 L 782.6 1128.0 L 783.0 1127.6 L 783.9 1126.8 L 784.8 1125.4 L 786.2 1124.3 L 786.7 1123.3 L 787.6 1122.2 L 788.4 1121.6 L 788.5 1121.2 L 789.3 1120.1 L 789.6 1119.4 L 789.9 1118.8 L 790.1 1118.0 L 791.8 1115.0 L 792.8 1113.0 L 793.7 1111.0 L 795.2 1108.8 L 795.5 1105.7 L 795.9 1103.0 L 796.0 1102.1 L 795.9 1099.9 L 796.0 1097.0 L 796.0 1094.6 L 795.2 1093.6 L 794.8 1092.8 L 793.8 1090.8 L 789.8 1078.9 L 787.6 1072.4 L 796.5 1043.4 L 821.9 1005.9 L 828.0 992.7 L 828.6 991.4 L 831.2 990.6 L 864.6 979.6 L 905.2 973.8 L 907.1 978.3 L 924.7 1021.9 L 914.2 1042.1 L 909.7 1053.3 L 908.2 1063.5 L 908.2 1067.1 L 908.3 1074.5 L 911.3 1088.8 L 914.0 1096.1 L 919.0 1104.7 L 924.3 1112.0 L 925.9 1114.2 L 930.6 1119.7 L 933.9 1124.8 L 936.4 1129.5 L 937.6 1133.8 L 937.8 1139.3 L 936.2 1148.4 L 932.5 1162.5 L 932.5 1170.3 L 933.8 1175.3 L 935.9 1179.6 L 939.2 1183.7 L 947.7 1190.7 L 961.7 1199.7 L 966.0 1204.9 L 974.1 1216.4 L 980.5 1226.8 L 982.6 1231.1 L 982.4 1237.0 L 981.4 1242.7 L 978.2 1250.5 L 977.0 1256.6 L 977.6 1260.4 L 979.8 1264.9 L 982.8 1268.1 L 985.0 1269.5 L 987.7 1270.8 L 990.6 1273.4 L 993.3 1275.7 L 996.4 1278.7 L 998.4 1281.9 L 1000.6 1283.7 L 1004.9 1284.8 L 1007.5 1284.3 L 1011.7 1283.9 L 1014.3 1283.6 L 1015.7 1284.1 L 1018.2 1286.7 L 1020.3 1289.9 L 1021.3 1292.3 L 1021.6 1294.6 L 1021.2 1297.0 L 1019.9 1300.3 L 1019.2 1302.8 L 1019.0 1305.1 L 1019.4 1307.5 L 1020.1 1309.4 L 1022.6 1312.6 L 1024.0 1314.7 L 1025.1 1317.3 L 1026.1 1319.7 L 1027.4 1321.5 L 1028.6 1322.1 L 1030.5 1322.7 L 1032.3 1322.8 L 1035.0 1323.0 L 1036.7 1323.0 L 1038.4 1323.7 L 1039.7 1324.8 L 1040.7 1326.7 L 1041.7 1329.5 L 1042.9 1331.8 L 1044.0 1333.3 L 1044.9 1334.6 L 1046.3 1335.1 L 1048.2 1333.8 L 1049.9 1331.7 L 1051.6 1328.2 L 1054.9 1323.9 L 1057.2 1321.5 L 1059.1 1320.6 L 1060.5 1320.7 L 1061.7 1322.6 L 1062.7 1325.3 L 1063.8 1328.8 L 1064.9 1330.7 L 1066.9 1332.7 L 1069.3 1334.3 L 1071.9 1335.5 L 1074.9 1336.0 L 1075.0 1336.0 L 1077.9 1335.4 L 1084.2 1334.1 L 1085.6 1333.8 L 1087.3 1340.2 L 1097.0 1355.9 L 1106.2 1365.6 L 1115.6 1373.3 L 1122.6 1372.9 L 1123.2 1377.5 L 1123.5 1380.4 L 1123.5 1383.5 L 1122.6 1386.0 L 1121.8 1387.8 L 1083.0 1417.9 L 1059.5 1430.5 L 1015.0 1455.4 L 1008.7 1460.3 L 987.5 1480.9 L 984.1 1484.2 L 900.3 1565.6 L 895.1 1570.6 L 894.9 1570.8 L 893.4 1575.3 L 860.1 1606.5 L 842.6 1623.8 L 816.8 1647.8 L 816.8 1647.6 L 816.1 1646.1 L 815.2 1645.0 L 814.9 1643.8 L 814.3 1642.6 L 813.2 1641.0 L 812.3 1638.9 L 811.6 1637.2 L 810.1 1634.1 L 808.8 1631.4 L 807.3 1627.7 L 805.4 1622.4 L 807.2 1618.8 L 808.7 1613.2 L 806.9 1609.4 L 803.4 1606.7 L 801.3 1604.7 L 800.5 1601.8 L 798.5 1597.9 L 793.7 1593.5 L 792.3 1584.1 L 792.9 1578.6 L 792.7 1572.6 L 791.2 1568.7 L 788.8 1562.6 L 787.1 1558.3 L 789.0 1555.2 L 792.2 1552.7 L 795.2 1550.8 L 796.6 1549.1 L 799.9 1544.8 L 800.4 1542.6 L 800.3 1539.1 L 800.4 1536.8 L 800.4 1536.5 L 800.4 1535.4 L 800.4 1534.4 L 799.3 1532.0 L 797.9 1530.1 L 797.1 1528.9 L 796.8 1527.2 L 796.5 1525.9 L 796.6 1523.5 L 796.9 1521.1 L 796.5 1518.8 L 795.9 1517.6 L 794.5 1515.2 L 793.6 1512.4 L 793.2 1510.7 L 792.1 1508.7 L 791.6 1506.7 L 790.6 1504.8 L 789.6 1503.0 L 789.0 1501.3 L 787.7 1500.3 L 787.1 1499.0 L 785.6 1498.3 L 784.1 1498.3 L 783.7 1497.5 L 783.1 1496.8 L 783.4 1495.8 L 783.0 1494.8 L 783.0 1494.2 L 783.8 1493.4 L 783.9 1493.3 L 784.8 1492.8 L 785.2 1492.0 L 785.5 1491.1 L 786.1 1490.7 L 786.4 1490.3 L 785.9 1489.5 L 785.2 1489.1 L 784.9 1488.4 L 785.0 1487.8 L 786.0 1487.3 L 786.5 1488.2 L 787.4 1488.7 L 788.3 1488.7 L 788.3 1488.0 L 788.0 1487.2 L 787.8 1486.5 L 788.3 1486.2 L 789.1 1485.8 L 789.3 1485.0 L 789.4 1483.5 L 789.2 1482.3 L 788.9 1481.2 L 788.5 1480.3 L 788.5 1479.4 L 787.9 1478.8 L 787.4 1478.2 L 787.4 1477.3 L 787.4 1476.2 L 786.7 1475.2 L 785.8 1474.3 L 785.0 1473.2 L 784.0 1472.5 L 783.6 1471.7 L 784.0 1471.0 L 784.8 1470.1 L 784.9 1469.2 L 784.3 1468.5 L 783.5 1468.2 L 782.3 1467.6 L 781.9 1466.7 L 782.1 1466.1 L 783.2 1465.4 L 783.5 1464.1 L 783.6 1462.9 L 783.3 1461.6 L 783.3 1460.6 L 784.0 1459.1 L 784.1 1458.0 L 782.6 1456.4 L 780.4 1454.7 L 778.4 1452.4 L 777.5 1450.7 L 777.3 1449.0 L 776.7 1445.1 L 776.5 1442.1 L 776.9 1440.1 L 777.6 1437.8 L 779.2 1435.8 L 780.3 1433.8 L 781.0 1431.7 L 780.9 1429.6 L 780.5 1427.7 L 780.8 1425.9 L 781.1 1423.9 L 782.0 1422.0 L 781.8 1419.5 L 781.1 1415.3 L 780.1 1410.2 L 779.1 1405.7 L 777.2 1401.0 L 775.9 1397.6 L 775.6 1397.3 L 773.9 1395.4 L 769.9 1391.5 L 766.4 1388.0 L 764.0 1385.0 L 761.8 1381.7 L 759.7 1378.3 L 758.3 1375.0 L 757.3 1371.3 L 757.0 1367.2 L 757.0 1366.7 L 757.7 1361.8 L 758.2 1357.6 L 758.1 1353.9 L 751.8 1344.5 Z" fill="none" stroke="#6b7280" stroke-width="11" stroke-opacity="0.95" stroke-linejoin="round" stroke-linecap="round"/>
  <path d="M 836.6 1756.4 L 676.9 1747.8 L 692.9 1737.3 L 704.9 1729.2 L 781.9 1677.5 L 792.1 1670.7 L 816.8 1647.8 L 842.6 1623.8 L 860.1 1606.5 L 893.4 1575.3 L 894.9 1570.8 L 895.1 1570.6 L 900.3 1565.6 L 984.1 1484.2 L 987.5 1480.9 L 1008.7 1460.3 L 1015.0 1455.4 L 1059.5 1430.5 L 1083.0 1417.9 L 1121.8 1387.8 L 1122.6 1386.0 L 1123.5 1383.5 L 1123.5 1380.4 L 1123.2 1377.5 L 1122.6 1372.9 L 1129.4 1372.0 L 1141.3 1368.7 L 1156.1 1365.8 L 1167.4 1367.5 L 1172.4 1369.6 L 1177.7 1386.2 L 1182.6 1397.5 L 1185.9 1407.2 L 1190.9 1426.1 L 1190.9 1436.0 L 1187.0 1455.9 L 1185.0 1474.9 L 1189.3 1481.7 L 1197.7 1486.6 L 1203.6 1489.7 L 1209.6 1491.7 L 1215.3 1493.9 L 1221.0 1494.5 L 1226.8 1494.2 L 1232.0 1494.3 L 1236.4 1495.6 L 1240.8 1497.3 L 1244.5 1498.8 L 1244.9 1499.0 L 1248.0 1500.2 L 1248.8 1500.2 L 1252.5 1500.6 L 1253.1 1500.6 L 1258.3 1501.0 L 1262.6 1502.4 L 1265.4 1504.7 L 1267.7 1508.5 L 1270.8 1511.6 L 1273.4 1513.9 L 1273.8 1514.2 L 1279.0 1516.0 L 1284.2 1516.6 L 1284.7 1516.6 L 1291.5 1517.4 L 1304.4 1519.0 L 1314.8 1520.4 L 1323.2 1521.0 L 1334.7 1519.5 L 1358.2 1518.8 L 1360.2 1521.6 L 1365.1 1532.2 L 1371.3 1542.1 L 1380.5 1564.3 L 1400.0 1591.3 L 1407.5 1605.8 L 1410.0 1617.8 L 1401.9 1626.9 L 1391.8 1632.9 L 1383.1 1639.0 L 1367.3 1642.7 L 1356.5 1637.9 L 1345.1 1638.0 L 1335.5 1644.0 L 1323.7 1646.5 L 1312.3 1646.8 L 1301.8 1651.1 L 1263.7 1680.1 L 1255.6 1687.1 L 1241.6 1695.9 L 1232.0 1697.1 L 1223.8 1697.4 L 1220.3 1697.5 L 1192.0 1692.1 L 1181.5 1692.9 L 1168.0 1690.6 L 1154.4 1685.5 L 1143.2 1688.5 L 1132.5 1692.1 L 1118.0 1700.9 L 1108.3 1719.5 L 1102.0 1728.7 L 1102.8 1738.6 L 1105.0 1750.9 L 1105.3 1761.2 L 1107.3 1771.0 L 997.9 1765.1 L 988.8 1764.6 L 969.0 1763.6 L 966.6 1763.4 L 904.8 1760.1 L 904.7 1760.1 L 836.6 1756.4 L 836.6 1756.4 Z" fill="none" stroke="#6b7280" stroke-width="11" stroke-opacity="0.95" stroke-linejoin="round" stroke-linecap="round"/>
  <path d="M 538.8 1225.5 L 537.8 1220.5 L 536.5 1214.0 L 535.6 1209.4 L 535.6 1209.1 L 534.3 1202.5 L 533.1 1196.2 L 532.6 1194.0 L 532.5 1194.1 L 531.8 1194.3 L 531.0 1194.5 L 528.9 1196.5 L 523.2 1203.3 L 518.9 1208.7 L 509.3 1209.3 L 507.6 1209.4 L 502.5 1208.8 L 494.6 1208.0 L 490.1 1209.2 L 489.8 1209.3 L 507.8 1192.6 L 511.5 1189.2 L 513.0 1187.8 L 513.5 1187.3 L 514.4 1186.1 L 514.6 1186.3 L 514.8 1186.4 L 517.8 1189.4 L 521.1 1192.3 L 522.9 1193.2 L 521.7 1187.5 L 521.6 1187.3 L 526.6 1186.3 L 531.0 1185.4 L 530.2 1180.8 L 528.7 1173.4 L 528.7 1173.4 L 527.3 1166.0 L 526.3 1161.3 L 526.3 1161.3 L 526.3 1161.2 L 525.4 1156.6 L 527.1 1156.3 L 525.4 1156.6 L 524.8 1153.1 L 524.0 1149.0 L 522.5 1141.3 L 528.9 1139.9 L 535.0 1138.7 L 538.3 1138.0 L 541.1 1135.6 L 542.3 1133.8 L 543.2 1131.8 L 543.3 1129.7 L 543.0 1120.2 L 543.0 1117.8 L 542.7 1110.9 L 542.7 1110.9 L 541.4 1109.9 L 540.4 1109.7 L 532.6 1109.9 L 526.0 1110.0 L 524.2 1109.5 L 523.0 1108.7 L 521.9 1107.5 L 521.1 1106.0 L 520.8 1104.3 L 520.8 1102.2 L 521.2 1093.7 L 517.7 1094.4 L 514.9 1086.4 L 514.9 1086.4 L 518.0 1085.5 L 521.1 1084.7 L 525.1 1081.7 L 528.6 1079.2 L 535.5 1074.1 L 542.0 1069.3 L 546.2 1066.9 L 552.0 1063.4 L 555.7 1061.2 L 560.3 1058.5 L 568.4 1047.8 L 569.2 1046.7 L 572.2 1037.5 L 570.5 1025.9 L 567.8 1008.2 L 567.8 1008.2 L 567.9 1008.2 L 574.5 1009.9 L 594.6 1009.6 L 616.7 1009.4 L 639.0 1016.5 L 642.9 1028.9 L 640.6 1031.4 L 633.4 1039.2 L 629.7 1046.0 L 627.8 1053.7 L 629.0 1060.2 L 631.5 1067.6 L 635.1 1074.8 L 640.5 1079.6 L 653.4 1083.9 L 670.5 1088.4 L 691.4 1090.2 L 698.5 1086.7 L 705.2 1081.8 L 713.7 1080.4 L 725.2 1080.2 L 737.2 1082.3 L 752.9 1088.4 L 754.9 1092.9 L 756.9 1100.4 L 757.6 1129.9 L 755.1 1135.8 L 744.6 1150.3 L 740.2 1159.1 L 738.4 1165.3 L 738.4 1169.7 L 738.4 1170.2 L 738.4 1170.4 L 738.4 1172.0 L 740.4 1178.7 L 743.5 1184.0 L 745.7 1189.1 L 744.6 1195.2 L 742.0 1201.3 L 738.8 1205.7 L 733.6 1208.3 L 726.8 1210.1 L 724.3 1209.9 L 720.6 1213.0 L 717.7 1217.2 L 717.1 1221.7 L 716.0 1229.6 L 715.5 1233.5 L 715.3 1235.5 L 714.8 1240.3 L 715.6 1245.3 L 717.0 1250.8 L 719.9 1255.1 L 723.8 1262.4 L 727.7 1267.7 L 729.6 1272.9 L 731.6 1278.6 L 733.0 1282.9 L 732.3 1287.9 L 731.9 1292.9 L 729.9 1299.1 L 729.8 1299.4 L 729.5 1299.4 L 726.5 1299.4 L 724.3 1299.4 L 722.7 1297.9 L 720.3 1294.7 L 717.4 1295.4 L 715.5 1297.8 L 715.2 1298.8 L 709.7 1301.4 L 709.3 1302.1 L 703.3 1303.1 L 684.6 1299.5 L 669.2 1296.6 L 645.2 1292.6 L 638.7 1290.8 L 627.9 1287.8 L 627.6 1287.7 L 627.3 1288.6 L 625.1 1290.7 L 622.6 1291.8 L 620.4 1291.7 L 618.7 1291.4 L 618.6 1291.3 L 616.8 1284.1 L 616.0 1281.6 L 614.2 1278.9 L 611.8 1277.3 L 609.9 1276.7 L 607.4 1276.4 L 606.2 1276.2 L 605.7 1276.1 L 604.9 1275.0 L 603.5 1273.9 L 599.9 1273.6 L 596.5 1273.4 L 593.2 1271.7 L 589.3 1271.0 L 583.8 1269.7 L 579.5 1270.0 L 578.3 1270.1 L 577.9 1268.7 L 578.0 1266.9 L 577.8 1265.1 L 577.5 1264.9 L 577.2 1264.7 L 575.4 1263.5 L 573.1 1262.8 L 569.1 1261.4 L 567.5 1260.3 L 566.2 1259.5 L 564.4 1259.2 L 562.1 1258.0 L 561.2 1257.3 L 561.1 1255.8 L 561.0 1254.6 L 560.8 1252.1 L 552.6 1253.6 L 545.0 1258.6 L 543.7 1250.6 L 543.7 1250.5 L 543.6 1250.6 L 539.5 1229.4 L 539.5 1229.3 L 538.8 1225.5 Z" fill="none" stroke="#6b7280" stroke-width="11" stroke-opacity="0.95" stroke-linejoin="round" stroke-linecap="round"/>
  
  <g filter="url(#sh)">
    <rect x="652.4" y="708.6" width="210.4" height="66" rx="33.0" fill="#8cb43e"/>
    <text x="700.4" y="742.6" font-family="Montserrat,Arial,sans-serif" font-size="33" font-weight="800" letter-spacing="1.2" fill="#ffffff" dominant-baseline="middle">ILHAS</text>
    <g transform="translate(618.38,657.20) scale(4.0)">
      <path d="M12 1.5C7.86 1.5 4.5 4.86 4.5 9c0 5.4 7.5 13.5 7.5 13.5s7.5-8.1 7.5-13.5c0-4.14-3.36-7.5-7.5-7.5z M12 5.4 a3.6 3.6 0 1 0 0 7.2 a3.6 3.6 0 1 0 0 -7.2 z" fill="#ffffff" fill-rule="evenodd"/>
    </g>
  </g>
  <g filter="url(#sh)">
    <rect x="275.6" y="1351.0" width="370.5" height="66" rx="33.0" fill="#8cb43e"/>
    <text x="323.6" y="1385.0" font-family="Montserrat,Arial,sans-serif" font-size="33" font-weight="800" letter-spacing="1.2" fill="#ffffff" dominant-baseline="middle">VILA DO CONDE</text>
    <g transform="translate(241.58,1299.63) scale(4.0)">
      <path d="M12 1.5C7.86 1.5 4.5 4.86 4.5 9c0 5.4 7.5 13.5 7.5 13.5s7.5-8.1 7.5-13.5c0-4.14-3.36-7.5-7.5-7.5z M12 5.4 a3.6 3.6 0 1 0 0 7.2 a3.6 3.6 0 1 0 0 -7.2 z" fill="#ffffff" fill-rule="evenodd"/>
    </g>
  </g>
  <g filter="url(#sh)">
    <rect x="829.7" y="1256.9" width="188.1" height="66" rx="33.0" fill="#8cb43e"/>
    <text x="877.7" y="1290.9" font-family="Montserrat,Arial,sans-serif" font-size="33" font-weight="800" letter-spacing="1.2" fill="#ffffff" dominant-baseline="middle">SEDE</text>
    <g transform="translate(795.72,1205.51) scale(4.0)">
      <path d="M12 1.5C7.86 1.5 4.5 4.86 4.5 9c0 5.4 7.5 13.5 7.5 13.5s7.5-8.1 7.5-13.5c0-4.14-3.36-7.5-7.5-7.5z M12 5.4 a3.6 3.6 0 1 0 0 7.2 a3.6 3.6 0 1 0 0 -7.2 z" fill="#ffffff" fill-rule="evenodd"/>
    </g>
  </g>
  <g filter="url(#sh)">
    <rect x="1056.4" y="1523.5" width="277.4" height="66" rx="33.0" fill="#8cb43e"/>
    <text x="1104.4" y="1557.5" font-family="Montserrat,Arial,sans-serif" font-size="33" font-weight="800" letter-spacing="1.2" fill="#ffffff" dominant-baseline="middle">ESTRADAS</text>
    <g transform="translate(1022.43,1472.08) scale(4.0)">
      <path d="M12 1.5C7.86 1.5 4.5 4.86 4.5 9c0 5.4 7.5 13.5 7.5 13.5s7.5-8.1 7.5-13.5c0-4.14-3.36-7.5-7.5-7.5z M12 5.4 a3.6 3.6 0 1 0 0 7.2 a3.6 3.6 0 1 0 0 -7.2 z" fill="#ffffff" fill-rule="evenodd"/>
    </g>
  </g>
  <g filter="url(#sh)">
    <rect x="524.7" y="1100.1" width="277.4" height="66" rx="33.0" fill="#8cb43e"/>
    <text x="572.7" y="1134.1" font-family="Montserrat,Arial,sans-serif" font-size="33" font-weight="800" letter-spacing="1.2" fill="#ffffff" dominant-baseline="middle">MURUCUPI</text>
    <g transform="translate(490.74,1048.66) scale(4.0)">
      <path d="M12 1.5C7.86 1.5 4.5 4.86 4.5 9c0 5.4 7.5 13.5 7.5 13.5s7.5-8.1 7.5-13.5c0-4.14-3.36-7.5-7.5-7.5z M12 5.4 a3.6 3.6 0 1 0 0 7.2 a3.6 3.6 0 1 0 0 -7.2 z" fill="#ffffff" fill-rule="evenodd"/>
    </g>
  </g>
</svg>