<svg xmlns="http://www.w3.org/2000/svg" viewBox="0 0 1780 1905" width="1780" height="1905">
  <defs>
    <linearGradient id="g_ilhas" x1="0" y1="0" x2="0.25" y2="1"><stop offset="0" stop-color="#8ca169"/><stop offset="0.55" stop-color="#6f8a44"/><stop offset="1" stop-color="#5d7439"/></linearGradient><linearGradient id="g_murucupi" x1="0" y1="0" x2="0.25" y2="1"><stop offset="0" stop-color="#d08561"/><stop offset="0.55" stop-color="#c4673a"/><stop offset="1" stop-color="#a55731"/></linearGradient><linearGradient id="g_barcarena" x1="0" y1="0" x2="0.25" y2="1"><stop offset="0" stop-color="#e0b559"/><stop offset="0.55" stop-color="#d8a330"/><stop offset="1" stop-color="#b58928"/></linearGradient><linearGradient id="g_viladoconde" x1="0" y1="0" x2="0.25" y2="1"><stop offset="0" stop-color="#7da1b9"/><stop offset="0.55" stop-color="#5d8aa8"/><stop offset="1" stop-color="#4e748d"/></linearGradient><linearGradient id="g_estradas" x1="0" y1="0" x2="0.25" y2="1"><stop offset="0" stop-color="#9778a1"/><stop offset="0.55" stop-color="#7d5689"/><stop offset="1" stop-color="#694873"/></linearGradient>
    <filter id="sh" x="-20%" y="-20%" width="140%" height="160%"><feDropShadow dx="0" dy="3" stdDeviation="5" flood-color="#000" flood-opacity="0.35"/></filter>
    <filter id="land" x="-12%" y="-8%" width="124%" height="116%"><feDropShadow dx="0" dy="10" stdDeviation="22" flood-color="#000" flood-opacity="0.45"/></filter>
    <filter id="soft" x="-40%" y="-40%" width="180%" height="180%"><feGaussianBlur stdDeviation="46"/></filter>
  </defs>
  <!-- água (halo suave) -->
  <path d="M 1354.5 1505.4 L 1346.4 1487.3 L 1332.6 1461.8 L 1331.6 1459.3 L 1326.5 1447.1 L 1313.7 1426.0 L 1308.7 1413.3 L 1302.9 1400.4 L 1296.1 1392.1 L 1290.9 1383.4 L 1284.8 1360.2 L 1278.7 1347.6 L 1274.2 1340.1 L 1271.3 1335.3 L 1265.0 1327.8 L 1259.5 1318.9 L 1253.4 1311.5 L 1243.9 1298.6 L 1242.0 1296.9 L 1225.7 1282.8 L 1220.5 1274.2 L 1216.4 1266.1 L 1216.1 1265.5 L 1207.1 1255.8 L 1201.4 1245.1 L 1192.2 1220.6 L 1197.4 1208.1 L 1187.0 1206.6 L 1182.2 1182.6 L 1182.9 1156.2 L 1184.2 1139.8 L 1188.1 1104.1 L 1181.0 1084.6 L 1174.8 1070.1 L 1168.6 1055.5 L 1159.7 1024.6 L 1158.2 985.2 L 1164.5 949.5 L 1166.2 942.9 L 1175.6 906.8 L 1181.5 872.4 L 1178.8 834.8 L 1169.0 789.6 L 1144.1 750.6 L 1135.6 737.3 L 1103.6 696.8 L 1074.2 663.2 L 1072.8 659.3 L 1066.5 641.0 L 1059.0 597.1 L 1049.7 553.3 L 1045.8 535.1 L 1025.4 493.0 L 1025.2 492.5 L 1001.4 467.9 L 987.1 453.1 L 938.1 384.2 L 916.7 349.4 L 899.4 321.4 L 863.3 253.5 L 832.4 185.8 L 823.7 150.0 L 778.5 213.2 L 737.7 276.1 L 698.8 344.2 L 684.8 364.9 L 676.6 387.8 L 653.4 435.5 L 612.2 506.7 L 603.8 520.4 L 577.3 561.9 L 550.5 612.9 L 515.2 682.4 L 493.0 730.3 L 462.4 798.5 L 458.3 807.7 L 444.7 847.1 L 425.5 895.3 L 412.6 927.7 L 392.8 973.8 L 385.2 986.8 L 368.2 1015.9 L 344.5 1042.0 L 312.6 1062.2 L 282.1 1084.6 L 244.3 1118.1 L 240.2 1121.7 L 233.8 1128.4 L 227.4 1136.1 L 212.4 1149.7 L 209.6 1152.3 L 190.0 1167.5 L 180.8 1175.8 L 167.9 1183.3 L 150.0 1191.8 L 152.5 1212.1 L 153.3 1222.8 L 153.1 1232.5 L 154.8 1244.3 L 156.0 1258.0 L 156.1 1272.1 L 159.1 1282.4 L 161.2 1295.8 L 161.8 1297.9 L 164.5 1313.3 L 169.1 1324.9 L 176.3 1348.6 L 180.2 1359.7 L 192.1 1385.0 L 196.2 1393.8 L 204.3 1407.1 L 210.6 1421.9 L 227.6 1446.7 L 235.7 1455.2 L 245.1 1461.8 L 247.5 1463.0 L 254.3 1466.2 L 257.3 1466.5 L 260.2 1466.1 L 262.8 1465.3 L 263.9 1464.5 L 265.3 1463.6 L 267.5 1461.3 L 269.9 1458.5 L 271.4 1456.6 L 272.8 1454.7 L 275.6 1453.1 L 276.0 1453.2 L 276.2 1453.2 L 276.5 1453.2 L 276.9 1453.2 L 276.9 1453.2 L 277.2 1453.2 L 277.4 1453.2 L 277.9 1453.2 L 278.3 1453.2 L 278.4 1453.2 L 278.5 1453.2 L 278.5 1453.3 L 278.5 1453.3 L 278.6 1453.3 L 278.7 1453.3 L 278.7 1453.3 L 278.9 1453.3 L 279.1 1453.4 L 279.2 1453.4 L 279.3 1453.4 L 279.5 1453.4 L 279.6 1453.5 L 279.9 1453.5 L 280.8 1453.8 L 280.9 1453.8 L 281.2 1453.8 L 281.3 1453.8 L 281.5 1453.8 L 281.6 1453.8 L 281.6 1453.8 L 281.7 1453.8 L 281.9 1453.7 L 281.9 1453.7 L 282.2 1453.5 L 282.3 1453.4 L 282.3 1453.4 L 282.3 1453.4 L 282.4 1453.3 L 282.5 1453.2 L 282.7 1453.0 L 282.8 1452.9 L 282.9 1452.8 L 283.0 1452.7 L 283.1 1452.5 L 283.2 1452.3 L 283.5 1452.0 L 283.7 1451.5 L 283.8 1451.0 L 284.2 1450.0 L 284.3 1450.0 L 284.7 1449.3 L 285.3 1448.8 L 285.9 1448.6 L 286.0 1448.6 L 286.1 1448.6 L 286.3 1448.5 L 286.9 1448.4 L 287.3 1448.3 L 287.7 1448.2 L 288.3 1448.0 L 288.4 1448.0 L 288.6 1447.9 L 288.8 1447.9 L 289.0 1447.9 L 289.1 1447.8 L 289.8 1447.8 L 290.0 1447.8 L 290.5 1447.8 L 290.7 1447.8 L 290.9 1447.7 L 291.3 1447.5 L 291.8 1447.0 L 291.9 1446.9 L 292.0 1446.9 L 292.3 1446.4 L 292.5 1446.1 L 292.5 1446.1 L 292.6 1446.1 L 292.7 1446.0 L 292.8 1445.8 L 293.0 1445.7 L 293.2 1445.3 L 293.4 1445.2 L 293.8 1444.8 L 294.3 1444.5 L 294.3 1444.5 L 296.4 1444.0 L 296.5 1444.0 L 296.6 1444.0 L 298.7 1444.0 L 300.9 1444.2 L 304.2 1443.9 L 306.8 1443.7 L 308.9 1443.9 L 311.4 1444.3 L 314.1 1445.3 L 315.8 1446.6 L 316.8 1448.5 L 317.8 1450.4 L 318.5 1452.2 L 319.3 1454.1 L 320.3 1455.3 L 321.5 1456.2 L 322.8 1456.6 L 325.2 1456.8 L 327.3 1456.9 L 329.7 1456.9 L 331.9 1456.7 L 333.8 1456.2 L 337.0 1455.5 L 339.5 1455.2 L 341.3 1455.2 L 343.1 1455.1 L 346.6 1454.4 L 347.9 1453.8 L 349.8 1452.4 L 351.5 1451.4 L 352.9 1450.8 L 354.3 1450.4 L 355.5 1449.8 L 356.5 1449.0 L 357.8 1448.1 L 359.0 1447.2 L 359.9 1446.2 L 361.0 1445.1 L 362.1 1444.6 L 367.9 1444.9 L 369.6 1445.2 L 370.8 1445.7 L 372.1 1446.4 L 373.0 1446.6 L 373.7 1446.6 L 374.6 1446.4 L 376.1 1445.8 L 377.0 1445.4 L 377.7 1445.6 L 378.0 1446.3 L 377.9 1447.2 L 377.9 1447.9 L 378.1 1449.5 L 378.6 1450.7 L 379.0 1451.7 L 379.6 1452.6 L 380.2 1453.3 L 381.2 1453.9 L 381.9 1454.2 L 382.5 1454.6 L 383.3 1455.5 L 383.9 1456.3 L 384.8 1457.5 L 385.5 1458.4 L 386.7 1459.6 L 387.8 1460.7 L 388.6 1461.3 L 389.5 1461.8 L 390.3 1462.2 L 391.6 1462.5 L 392.8 1463.0 L 393.7 1463.6 L 394.9 1464.3 L 396.4 1465.3 L 397.5 1466.1 L 398.6 1466.7 L 399.3 1467.1 L 399.9 1467.5 L 400.5 1467.9 L 401.5 1468.3 L 402.2 1468.5 L 402.9 1468.8 L 404.0 1469.5 L 404.5 1470.0 L 405.1 1470.6 L 405.5 1471.1 L 405.9 1471.7 L 406.6 1472.7 L 407.6 1473.7 L 408.5 1474.2 L 409.5 1474.8 L 410.7 1475.6 L 411.6 1476.5 L 412.3 1477.3 L 412.4 1477.8 L 411.8 1478.2 L 411.1 1478.5 L 410.0 1478.5 L 409.3 1478.8 L 409.1 1479.6 L 409.3 1480.3 L 410.0 1480.7 L 410.8 1480.9 L 412.0 1480.9 L 413.3 1480.6 L 414.1 1480.2 L 414.1 1480.2 L 414.7 1479.3 L 414.8 1478.1 L 414.6 1477.3 L 415.3 1476.0 L 416.3 1475.4 L 417.6 1475.5 L 418.4 1476.1 L 418.7 1477.3 L 419.1 1478.3 L 419.9 1479.2 L 420.9 1480.5 L 421.6 1481.7 L 421.6 1482.8 L 421.3 1483.8 L 421.4 1484.2 L 422.3 1484.1 L 423.5 1483.5 L 424.3 1482.5 L 425.1 1482.1 L 426.5 1481.9 L 427.6 1482.2 L 428.6 1482.9 L 429.4 1483.1 L 430.6 1482.7 L 431.5 1482.2 L 431.6 1481.6 L 431.2 1481.2 L 430.3 1481.0 L 429.5 1480.7 L 428.9 1479.9 L 428.4 1478.9 L 427.7 1478.3 L 426.9 1478.0 L 426.8 1477.3 L 427.1 1476.5 L 427.8 1475.8 L 428.7 1474.9 L 429.7 1474.3 L 430.8 1473.9 L 431.9 1473.6 L 432.6 1473.6 L 432.9 1474.0 L 433.1 1474.4 L 433.5 1474.4 L 433.9 1474.0 L 434.3 1473.1 L 434.9 1472.3 L 435.4 1471.6 L 436.0 1471.1 L 436.6 1471.2 L 437.0 1471.5 L 437.1 1472.3 L 436.9 1473.3 L 436.7 1474.1 L 436.4 1474.7 L 436.4 1475.1 L 436.9 1475.6 L 437.3 1476.1 L 437.9 1476.9 L 438.5 1477.0 L 439.3 1476.7 L 439.8 1476.8 L 440.1 1477.3 L 440.1 1478.1 L 440.0 1478.9 L 439.6 1479.3 L 438.9 1478.9 L 438.3 1478.6 L 437.9 1478.9 L 438.1 1479.6 L 438.3 1480.9 L 438.5 1482.0 L 438.6 1483.1 L 439.0 1484.6 L 439.8 1484.6 L 440.7 1484.5 L 441.3 1485.2 L 441.2 1485.8 L 440.9 1486.5 L 440.2 1487.2 L 439.9 1487.8 L 440.3 1488.0 L 441.0 1487.6 L 441.8 1487.2 L 442.7 1487.2 L 443.3 1487.4 L 443.5 1488.1 L 443.6 1488.8 L 444.0 1489.3 L 444.7 1489.2 L 445.4 1488.8 L 445.9 1488.4 L 446.1 1488.1 L 445.7 1487.7 L 445.2 1487.6 L 444.8 1487.3 L 444.9 1487.0 L 445.7 1486.8 L 446.1 1486.4 L 446.5 1486.0 L 446.7 1485.4 L 446.9 1485.0 L 447.3 1484.8 L 448.0 1485.0 L 448.7 1485.6 L 449.3 1486.0 L 449.8 1486.1 L 450.2 1486.1 L 450.6 1485.9 L 451.0 1485.7 L 451.5 1485.7 L 452.0 1486.0 L 452.2 1486.4 L 452.1 1486.9 L 451.9 1487.3 L 451.7 1487.7 L 451.7 1488.2 L 452.0 1488.5 L 452.4 1488.6 L 452.9 1488.6 L 453.3 1488.3 L 453.6 1487.9 L 453.9 1487.4 L 454.3 1487.2 L 454.6 1487.6 L 454.5 1488.2 L 454.4 1489.0 L 454.5 1489.5 L 454.9 1490.1 L 455.1 1490.9 L 455.2 1491.6 L 455.1 1491.9 L 454.6 1491.9 L 454.1 1491.5 L 453.6 1491.2 L 453.3 1491.1 L 452.9 1491.7 L 452.5 1492.3 L 452.1 1493.0 L 452.3 1493.6 L 453.0 1494.3 L 452.8 1494.9 L 452.5 1495.5 L 452.4 1496.0 L 452.9 1496.4 L 453.5 1496.5 L 454.1 1496.5 L 454.2 1496.8 L 453.8 1497.5 L 453.7 1497.9 L 453.7 1498.5 L 454.1 1499.0 L 454.4 1499.5 L 454.4 1500.4 L 454.7 1500.9 L 455.4 1501.0 L 455.9 1501.0 L 456.1 1501.4 L 456.2 1502.2 L 456.4 1502.9 L 456.9 1503.2 L 457.3 1503.3 L 457.6 1503.8 L 457.8 1504.1 L 458.3 1504.5 L 459.0 1504.5 L 460.2 1504.7 L 461.0 1504.9 L 461.7 1505.2 L 462.6 1505.3 L 463.4 1505.4 L 463.5 1505.4 L 464.5 1505.5 L 464.6 1505.5 L 466.0 1505.6 L 466.4 1505.7 L 468.7 1509.0 L 476.6 1516.8 L 482.6 1527.6 L 484.8 1537.0 L 489.3 1546.1 L 491.9 1555.8 L 491.0 1565.6 L 487.0 1575.5 L 490.6 1584.3 L 501.3 1589.5 L 512.5 1592.7 L 521.7 1595.9 L 529.9 1602.9 L 537.3 1612.7 L 542.0 1622.1 L 551.6 1630.1 L 551.7 1630.2 L 554.5 1635.6 L 557.7 1641.8 L 557.3 1655.7 L 560.1 1666.5 L 565.5 1679.5 L 577.9 1695.6 L 589.2 1700.8 L 605.6 1706.1 L 615.9 1708.1 L 625.5 1712.8 L 635.7 1721.7 L 648.2 1719.4 L 659.7 1712.5 L 669.9 1719.9 L 682.0 1725.1 L 692.0 1724.0 L 700.9 1726.9 L 710.2 1732.4 L 862.7 1740.7 L 862.7 1740.7 L 927.6 1744.2 L 927.7 1744.2 L 986.8 1747.4 L 989.1 1747.5 L 1007.9 1748.5 L 1016.6 1749.0 L 1121.0 1754.6 L 1119.1 1745.2 L 1118.8 1735.4 L 1116.8 1723.7 L 1116.0 1714.2 L 1122.0 1705.4 L 1131.3 1687.7 L 1145.1 1679.3 L 1155.3 1675.8 L 1166.0 1673.0 L 1179.0 1677.8 L 1191.9 1680.1 L 1201.9 1679.2 L 1228.9 1684.4 L 1232.2 1684.3 L 1240.1 1684.1 L 1249.2 1682.9 L 1262.6 1674.5 L 1270.3 1667.9 L 1306.8 1640.1 L 1316.7 1636.1 L 1327.6 1635.7 L 1338.9 1633.4 L 1348.1 1627.6 L 1359.0 1627.5 L 1369.2 1632.1 L 1384.3 1628.6 L 1392.6 1622.8 L 1402.3 1617.0 L 1410.0 1608.4 L 1407.6 1596.9 L 1400.4 1583.1 L 1381.8 1557.3 L 1373.1 1536.1 L 1367.1 1526.6 L 1362.5 1516.6 L 1360.5 1513.8 L 1354.5 1505.4 Z M 1019.2 1289.5 L 1023.4 1290.5 L 1019.2 1289.5 L 1017.1 1287.7 L 1019.2 1289.5 Z M 1200.9 1434.8 L 1197.1 1453.8 L 1200.9 1434.8 L 1200.9 1425.4 L 1200.9 1434.8 Z M 606.1 1026.4 L 606.1 1026.4 L 606.1 1026.4 L 606.1 1026.4 L 606.1 1026.4 Z M 581.5 1084.8 L 578.0 1087.3 L 581.5 1084.8 L 581.8 1084.6 L 581.5 1084.8 Z M 561.5 1099.5 L 558.5 1100.3 L 557.1 1100.7 L 558.5 1100.3 L 561.5 1099.5 L 563.8 1097.8 L 561.5 1099.5 Z M 561.6 1108.0 L 561.2 1116.2 L 561.2 1116.3 L 561.2 1116.2 L 561.6 1108.0 L 561.6 1108.0 Z M 566.1 1123.6 L 572.5 1123.5 L 579.1 1123.4 L 572.5 1123.5 L 566.1 1123.6 L 565.6 1123.4 L 566.1 1123.6 Z M 580.9 1123.6 L 581.7 1124.2 L 580.9 1123.6 L 580.0 1123.4 L 580.9 1123.6 Z M 582.1 1124.5 L 582.1 1124.5 L 582.1 1124.5 L 582.1 1124.5 Z M 582.4 1131.1 L 582.4 1133.3 L 582.7 1142.5 L 582.6 1144.5 L 582.6 1144.5 L 582.7 1142.5 L 582.4 1133.3 L 582.4 1131.1 L 582.2 1127.5 L 582.4 1131.1 Z M 580.6 1148.1 L 577.9 1150.4 L 580.6 1148.1 L 580.6 1148.1 Z M 577.9 1150.4 L 576.6 1150.6 L 577.9 1150.4 L 577.9 1150.4 Z M 569.0 1152.2 L 562.9 1153.5 L 564.3 1160.9 L 565.0 1164.7 L 565.0 1164.8 L 565.0 1164.7 L 564.3 1160.9 L 562.9 1153.5 L 569.0 1152.2 L 571.0 1151.8 L 569.0 1152.2 Z M 567.2 1167.8 L 565.6 1168.1 L 565.6 1168.1 L 567.2 1167.8 Z M 566.5 1172.6 L 566.8 1174.2 L 566.5 1172.6 L 566.5 1172.6 Z M 568.8 1184.2 L 570.1 1191.2 L 571.0 1195.6 L 570.1 1191.2 L 568.8 1184.2 L 568.8 1184.1 L 568.8 1184.2 Z M 562.1 1197.6 L 563.3 1203.1 L 563.3 1203.1 L 562.1 1197.6 L 562.0 1197.5 L 562.0 1197.5 L 562.1 1197.6 Z M 561.5 1202.2 L 560.5 1201.3 L 561.5 1202.2 L 561.5 1202.2 Z M 555.3 1196.4 L 555.2 1196.3 L 555.3 1196.4 L 555.4 1196.5 L 555.3 1196.4 Z M 554.3 1197.4 L 555.1 1196.3 L 555.1 1196.3 L 554.3 1197.4 Z M 554.3 1197.4 L 553.8 1197.9 L 552.3 1199.2 L 549.8 1201.6 L 552.3 1199.2 L 553.8 1197.9 L 554.3 1197.4 L 554.3 1197.4 Z M 531.8 1218.4 L 531.6 1218.4 L 531.6 1218.4 L 531.8 1218.4 Z M 536.2 1217.2 L 536.2 1217.2 L 536.2 1217.2 L 536.2 1217.2 Z M 543.7 1218.0 L 548.6 1218.5 L 548.6 1218.5 L 543.7 1218.0 L 536.5 1217.2 L 543.7 1218.0 Z M 550.2 1218.4 L 559.4 1217.8 L 559.4 1217.8 L 550.2 1218.4 L 548.6 1218.5 L 550.2 1218.4 Z M 563.5 1212.7 L 565.4 1210.5 L 563.5 1212.7 L 562.1 1214.5 L 563.5 1212.7 Z M 571.8 1204.1 L 572.4 1203.9 L 572.5 1203.9 L 572.4 1203.9 L 571.8 1204.1 L 571.3 1204.2 L 571.8 1204.1 Z M 575.4 1218.6 L 576.2 1222.9 L 576.7 1225.2 L 576.2 1222.9 L 575.4 1218.6 L 575.4 1218.5 L 575.4 1218.6 Z M 579.1 1237.6 L 583.0 1257.8 L 583.0 1257.8 L 583.0 1257.8 L 579.1 1237.6 L 579.1 1237.5 L 579.1 1237.6 Z M 583.1 1257.8 L 583.1 1257.8 L 583.9 1263.0 L 583.1 1257.8 L 583.1 1257.8 L 583.1 1257.8 Z M 599.4 1259.3 L 599.6 1261.7 L 599.7 1262.8 L 599.8 1264.2 L 599.8 1264.2 L 599.7 1262.8 L 599.6 1261.7 L 599.4 1259.3 L 599.4 1259.3 Z M 600.8 1265.0 L 600.7 1264.9 L 600.7 1264.9 L 600.8 1265.0 Z M 604.5 1266.3 L 605.8 1267.1 L 606.8 1267.8 L 605.8 1267.1 L 604.5 1266.3 L 603.0 1266.1 L 604.5 1266.3 Z M 615.1 1271.3 L 615.3 1271.5 L 615.6 1271.7 L 615.8 1273.4 L 615.8 1273.5 L 615.8 1273.4 L 615.6 1271.7 L 615.3 1271.5 L 615.1 1271.3 L 614.8 1271.2 L 615.1 1271.3 Z M 617.3 1276.3 L 621.3 1276.1 L 624.7 1276.8 L 621.3 1276.1 L 617.3 1276.4 L 616.4 1276.5 L 617.3 1276.3 Z M 636.7 1279.8 L 640.2 1280.1 L 641.5 1281.2 L 642.0 1281.8 L 641.5 1281.2 L 640.2 1280.1 L 636.7 1279.8 L 634.6 1279.6 L 636.7 1279.8 Z M 642.8 1282.3 L 643.9 1282.5 L 646.3 1282.8 L 648.1 1283.3 L 650.4 1284.9 L 650.4 1284.9 L 648.1 1283.3 L 646.3 1282.8 L 643.9 1282.5 L 642.8 1282.3 L 642.3 1282.2 L 642.3 1282.2 L 642.8 1282.3 Z M 654.6 1296.7 L 654.6 1296.8 L 654.6 1296.7 L 653.6 1292.7 L 654.6 1296.7 Z M 654.7 1296.8 L 654.6 1296.8 L 654.6 1296.8 L 654.7 1296.8 Z M 662.8 1294.1 L 662.9 1294.1 L 662.8 1294.1 L 662.7 1294.3 L 662.8 1294.1 Z M 673.7 1296.2 L 678.3 1297.5 L 673.7 1296.2 L 670.6 1295.3 L 673.7 1296.2 Z M 702.8 1301.7 L 717.5 1304.6 L 735.4 1308.0 L 741.2 1307.0 L 741.2 1307.0 L 735.4 1308.0 L 717.5 1304.6 L 702.8 1301.7 L 680.2 1297.9 L 702.8 1301.7 Z M 741.5 1306.4 L 745.1 1304.6 L 741.5 1306.4 L 741.4 1306.6 L 741.5 1306.4 Z M 747.1 1302.9 L 747.9 1301.8 L 747.1 1302.9 L 746.8 1303.6 L 747.1 1302.9 Z M 751.6 1300.0 L 752.1 1300.6 L 751.6 1300.0 L 751.6 1300.0 Z M 762.4 1284.6 L 762.0 1283.4 L 762.4 1284.6 L 762.7 1285.3 L 762.4 1284.6 Z M 758.7 1274.2 L 756.1 1270.6 L 758.7 1274.2 L 760.1 1277.8 L 758.7 1274.2 Z M 751.3 1262.2 L 751.2 1262.0 L 751.3 1262.2 L 751.8 1263.2 L 751.3 1262.2 Z M 746.4 1248.1 L 746.9 1243.4 L 747.0 1242.2 L 746.9 1243.4 L 746.4 1248.1 L 746.7 1249.8 L 746.4 1248.1 Z M 748.6 1230.3 L 749.1 1225.9 L 749.1 1225.9 L 748.6 1230.3 L 748.4 1231.9 L 748.6 1230.3 Z M 752.0 1221.9 L 755.4 1219.0 L 757.7 1219.2 L 755.4 1219.0 L 752.0 1221.9 L 749.8 1225.0 L 752.0 1221.9 Z M 769.3 1215.0 L 769.3 1215.0 L 767.8 1215.7 L 769.3 1215.0 Z M 774.9 1205.0 L 775.9 1199.1 L 773.8 1194.3 L 771.0 1189.5 L 773.8 1194.3 L 775.9 1199.1 L 774.9 1205.0 L 772.4 1210.8 L 772.4 1210.8 L 774.9 1205.0 Z M 770.8 1189.2 L 768.9 1182.8 L 768.9 1182.2 L 768.9 1182.8 L 770.8 1189.2 L 770.8 1189.2 Z M 768.9 1180.7 L 768.9 1176.4 L 769.4 1174.7 L 768.9 1176.4 L 768.9 1180.7 L 768.9 1180.8 L 768.9 1180.7 Z M 774.8 1162.1 L 776.2 1160.2 L 774.8 1162.1 L 774.5 1162.7 L 774.8 1162.1 Z M 787.2 1142.6 L 787.0 1131.6 L 787.2 1142.6 L 785.8 1146.0 L 787.2 1142.6 Z M 652.8 1027.6 L 651.7 1027.6 L 652.8 1027.6 L 652.8 1027.6 Z M 676.1 1040.9 L 674.0 1034.4 L 669.1 1032.8 L 674.0 1034.4 L 676.1 1040.9 Z M 663.4 1069.9 L 663.8 1072.1 L 663.4 1069.9 L 665.1 1062.6 L 667.5 1058.1 L 665.1 1062.6 L 663.4 1069.9 Z M 668.7 1086.8 L 666.9 1083.1 L 665.8 1080.0 L 666.9 1083.1 L 668.7 1086.8 Z M 685.8 1098.1 L 675.5 1094.6 L 671.4 1091.0 L 675.5 1094.6 L 685.8 1098.1 Z M 756.4 1095.2 L 767.8 1097.2 L 782.8 1103.0 L 784.7 1107.3 L 785.4 1109.8 L 784.7 1107.3 L 782.8 1103.0 L 767.8 1097.2 L 756.4 1095.2 L 745.4 1095.3 L 739.2 1096.4 L 745.4 1095.3 L 756.4 1095.2 Z M 809.2 1426.9 L 809.4 1425.2 L 809.7 1423.2 L 809.4 1425.2 L 809.2 1426.9 Z " fill="#15323a" filter="url(#soft)" opacity="0.9"/>
  <!-- ondas e rótulo Baía -->
  <g stroke="#3e6b72" stroke-width="2.4" fill="none" stroke-linecap="round" opacity="0.5"><path d="M1500,358 Q1513,351 1526,358 Q1539,365 1552,358 Q1565,351 1578,358 Q1591,365 1604,358 Q1617,351 1630,358 Q1643,365 1656,358 Q1669,351 1682,358 Q1695,365 1708,358 Q1721,351 1734,358 Q1747,365 1760,358 Q1773,351 1786,358 Q1799,365 1812,358"/><path d="M1500,373 Q1513,366 1526,373 Q1539,380 1552,373 Q1565,366 1578,373 Q1591,380 1604,373 Q1617,366 1630,373 Q1643,380 1656,373 Q1669,366 1682,373 Q1695,380 1708,373 Q1721,366 1734,373 Q1747,380 1760,373 Q1773,366 1786,373 Q1799,380 1812,373"/><path d="M1500,388 Q1513,381 1526,388 Q1539,395 1552,388 Q1565,381 1578,388 Q1591,395 1604,388 Q1617,381 1630,388 Q1643,395 1656,388 Q1669,381 1682,388 Q1695,395 1708,388 Q1721,381 1734,388 Q1747,395 1760,388 Q1773,381 1786,388 Q1799,395 1812,388"/><path d="M1500,403 Q1513,396 1526,403 Q1539,410 1552,403 Q1565,396 1578,403 Q1591,410 1604,403 Q1617,396 1630,403 Q1643,410 1656,403 Q1669,396 1682,403 Q1695,410 1708,403 Q1721,396 1734,403 Q1747,410 1760,403 Q1773,396 1786,403 Q1799,410 1812,403"/></g>
  <text x="1620" y="300" text-anchor="middle" font-family="Montserrat,Arial,sans-serif" font-size="46" font-weight="700" letter-spacing="3" fill="#dfe9e0" opacity="0.9">BAÍA DO</text>
  <text x="1620" y="354" text-anchor="middle" font-family="Montserrat,Arial,sans-serif" font-size="46" font-weight="700" letter-spacing="3" fill="#dfe9e0" opacity="0.9">MARAJÓ</text>
  <g opacity="0.92"><circle cx="1630" cy="510.0" r="66" fill="none" stroke="#dfe9e0" stroke-width="2" opacity="0.6"/><circle cx="1630" cy="510.0" r="48.839999999999996" fill="none" stroke="#dfe9e0" stroke-width="1.2" opacity="0.4"/><path d="M1674.3,465.7 L1643.8,510.0 L1674.3,554.3 L1630.0,523.8 L1585.7,554.3 L1616.2,510.0 L1585.7,465.7 L1630.0,496.2 Z" fill="#dfe9e0"/><path d="M1630.0,444.0 L1640.3,499.7 L1696.0,510.0 L1640.3,520.3 L1630.0,576.0 L1619.7,520.3 L1564.0,510.0 L1619.7,499.7 Z" fill="#efe6d4"/><circle cx="1630" cy="510.0" r="4" fill="#efe6d4"/><text x="1630" y="430" text-anchor="middle" font-family="Montserrat,Arial,sans-serif" font-size="38" font-weight="800" fill="#dfe9e0">N</text></g>
  <!-- terra -->
  <g filter="url(#land)"><path d="M 824.4 1060.1 L 848.7 1024.3 L 854.4 1011.7 L 855.0 1010.4 L 857.5 1009.6 L 889.4 999.2 L 928.2 993.7 L 929.9 997.9 L 946.8 1039.6 L 936.7 1058.8 L 932.5 1069.5 L 931.0 1079.3 L 931.0 1082.6 L 931.1 1089.7 L 934.0 1103.4 L 936.5 1110.4 L 941.3 1118.6 L 946.4 1125.6 L 947.9 1127.6 L 952.4 1132.9 L 955.5 1137.8 L 957.9 1142.2 L 959.1 1146.4 L 959.3 1151.6 L 957.8 1160.3 L 954.2 1173.7 L 954.2 1181.1 L 955.5 1186.0 L 957.5 1190.0 L 960.6 1194.0 L 968.7 1200.7 L 982.1 1209.2 L 986.2 1214.2 L 993.9 1225.2 L 1000.1 1235.1 L 1002.0 1239.2 L 1001.8 1244.9 L 1000.9 1250.3 L 997.9 1257.8 L 996.7 1263.6 L 997.3 1267.2 L 999.3 1271.5 L 1002.2 1274.5 L 1004.4 1275.9 L 1006.9 1277.1 L 1009.6 1279.7 L 1012.2 1281.8 L 1015.2 1284.7 L 1017.1 1287.7 L 1019.2 1289.5 L 1023.4 1290.5 L 1025.8 1290.0 L 1029.8 1289.6 L 1032.3 1289.3 L 1033.6 1289.8 L 1036.0 1292.3 L 1038.0 1295.4 L 1039.0 1297.7 L 1039.3 1299.8 L 1038.8 1302.1 L 1037.6 1305.3 L 1037.0 1307.7 L 1036.8 1309.9 L 1037.2 1312.1 L 1037.9 1314.0 L 1040.2 1317.0 L 1041.5 1319.0 L 1042.6 1321.5 L 1043.5 1323.8 L 1044.8 1325.5 L 1046.0 1326.1 L 1047.7 1326.7 L 1049.5 1326.8 L 1052.1 1327.0 L 1053.7 1327.0 L 1055.3 1327.6 L 1056.5 1328.7 L 1057.5 1330.5 L 1058.4 1333.1 L 1059.5 1335.4 L 1060.6 1336.8 L 1061.5 1338.0 L 1062.8 1338.5 L 1064.6 1337.3 L 1066.3 1335.2 L 1067.9 1331.9 L 1071.0 1327.8 L 1073.3 1325.5 L 1075.1 1324.7 L 1076.4 1324.7 L 1077.5 1326.5 L 1078.5 1329.2 L 1079.6 1332.5 L 1080.6 1334.3 L 1082.5 1336.2 L 1084.8 1337.7 L 1087.2 1338.9 L 1090.1 1339.4 L 1090.2 1339.4 L 1093.0 1338.8 L 1099.0 1337.6 L 1100.3 1337.3 L 1102.0 1343.3 L 1111.2 1358.3 L 1120.0 1367.6 L 1129.0 1375.0 L 1135.7 1374.5 L 1142.2 1373.7 L 1153.5 1370.6 L 1167.6 1367.8 L 1178.5 1369.4 L 1183.2 1371.4 L 1188.3 1387.2 L 1192.9 1398.1 L 1196.0 1407.3 L 1200.9 1425.4 L 1200.9 1434.8 L 1197.1 1453.8 L 1195.2 1472.0 L 1199.3 1478.4 L 1207.4 1483.1 L 1212.9 1486.1 L 1218.7 1488.0 L 1224.1 1490.1 L 1229.6 1490.7 L 1235.2 1490.4 L 1240.1 1490.5 L 1244.3 1491.7 L 1248.5 1493.4 L 1252.1 1494.8 L 1252.4 1494.9 L 1255.4 1496.1 L 1256.1 1496.1 L 1259.7 1496.5 L 1260.2 1496.5 L 1265.2 1496.8 L 1269.3 1498.2 L 1272.0 1500.4 L 1274.1 1504.0 L 1277.1 1506.9 L 1279.6 1509.2 L 1280.0 1509.4 L 1284.9 1511.2 L 1289.9 1511.7 L 1290.4 1511.7 L 1296.8 1512.5 L 1309.2 1514.0 L 1319.2 1515.4 L 1327.1 1515.9 L 1338.2 1514.6 L 1360.5 1513.8 L 1354.5 1505.4 L 1346.4 1487.3 L 1332.6 1461.8 L 1331.6 1459.3 L 1326.5 1447.1 L 1313.7 1426.0 L 1308.7 1413.3 L 1302.9 1400.4 L 1296.1 1392.1 L 1290.9 1383.4 L 1284.8 1360.2 L 1278.7 1347.6 L 1274.2 1340.1 L 1271.3 1335.3 L 1265.0 1327.8 L 1259.5 1318.9 L 1253.4 1311.5 L 1243.9 1298.6 L 1242.0 1296.9 L 1225.7 1282.8 L 1220.5 1274.2 L 1216.4 1266.1 L 1216.1 1265.5 L 1207.1 1255.8 L 1201.4 1245.1 L 1192.2 1220.6 L 1197.4 1208.1 L 1187.0 1206.6 L 1182.2 1182.6 L 1182.9 1156.2 L 1184.2 1139.8 L 1188.1 1104.1 L 1181.0 1084.6 L 1174.8 1070.1 L 1168.6 1055.5 L 1159.7 1024.6 L 1158.2 985.2 L 1164.5 949.5 L 1166.2 942.9 L 1175.6 906.8 L 1181.5 872.4 L 1178.8 834.8 L 1169.0 789.6 L 1144.1 750.6 L 1135.6 737.3 L 1103.6 696.8 L 1074.2 663.2 L 1072.8 659.3 L 1066.5 641.0 L 1059.0 597.1 L 1049.7 553.3 L 1045.8 535.1 L 1025.4 493.0 L 1025.2 492.5 L 1001.4 467.9 L 987.1 453.1 L 938.1 384.2 L 916.7 349.4 L 899.4 321.4 L 863.3 253.5 L 832.4 185.8 L 823.7 150.0 L 778.5 213.2 L 737.7 276.1 L 698.8 344.2 L 684.8 364.9 L 676.6 387.8 L 653.4 435.5 L 612.2 506.7 L 603.8 520.4 L 577.3 561.9 L 550.5 612.9 L 515.2 682.4 L 493.0 730.3 L 462.4 798.5 L 458.3 807.7 L 444.7 847.1 L 425.5 895.3 L 412.6 927.7 L 392.8 973.8 L 385.2 986.8 L 390.1 988.1 L 584.1 1020.8 L 606.1 1026.4 L 606.2 1026.4 L 612.5 1028.0 L 631.7 1027.8 L 652.8 1027.6 L 674.0 1034.4 L 677.8 1046.3 L 675.6 1048.6 L 668.7 1056.0 L 665.1 1062.6 L 663.4 1069.9 L 664.5 1076.1 L 666.9 1083.1 L 670.3 1090.1 L 675.5 1094.6 L 687.8 1098.7 L 704.1 1103.0 L 724.1 1104.7 L 730.9 1101.4 L 737.3 1096.7 L 745.4 1095.3 L 756.4 1095.2 L 767.8 1097.2 L 782.8 1103.0 L 784.7 1107.3 L 786.6 1114.5 L 787.2 1142.6 L 807.1 1144.0 L 808.7 1146.0 L 810.6 1141.2 L 811.1 1140.8 L 811.5 1140.4 L 812.4 1139.7 L 813.2 1138.4 L 814.6 1137.3 L 815.0 1136.4 L 815.9 1135.3 L 816.6 1134.7 L 816.8 1134.3 L 817.5 1133.3 L 817.8 1132.7 L 818.1 1132.0 L 818.3 1131.3 L 819.9 1128.4 L 820.8 1126.5 L 821.8 1124.6 L 823.1 1122.5 L 823.4 1119.6 L 823.8 1117.0 L 823.9 1116.1 L 823.8 1114.0 L 824.0 1111.2 L 823.9 1108.9 L 823.2 1108.0 L 822.7 1107.2 L 821.8 1105.3 L 818.0 1094.0 L 815.9 1087.8 L 824.4 1060.1 Z " fill="url(#g_ilhas)" fill-rule="evenodd"/><path d="M 578.4 1233.9 L 579.1 1237.5 L 579.1 1237.6 L 583.0 1257.8 L 583.1 1257.8 L 583.1 1257.8 L 584.3 1265.5 L 591.6 1260.7 L 599.4 1259.3 L 599.6 1261.7 L 599.7 1262.8 L 599.8 1264.2 L 600.7 1264.9 L 602.8 1266.0 L 604.5 1266.3 L 605.8 1267.1 L 607.4 1268.2 L 611.1 1269.5 L 613.3 1270.2 L 615.1 1271.3 L 615.3 1271.5 L 615.6 1271.7 L 615.8 1273.4 L 615.7 1275.1 L 616.1 1276.5 L 617.3 1276.3 L 621.3 1276.1 L 626.6 1277.3 L 630.3 1278.0 L 633.5 1279.6 L 636.7 1279.8 L 640.2 1280.1 L 641.5 1281.2 L 642.3 1282.2 L 642.8 1282.3 L 643.9 1282.5 L 646.3 1282.8 L 648.1 1283.3 L 650.4 1284.9 L 652.1 1287.4 L 652.9 1289.8 L 654.6 1296.7 L 654.6 1296.8 L 656.3 1297.1 L 658.4 1297.1 L 660.8 1296.1 L 662.8 1294.1 L 663.2 1293.2 L 663.4 1293.3 L 673.7 1296.2 L 679.9 1297.9 L 702.8 1301.7 L 717.5 1304.6 L 735.4 1308.0 L 741.2 1307.0 L 741.5 1306.4 L 746.8 1303.8 L 747.1 1302.9 L 748.9 1300.6 L 751.6 1300.0 L 753.9 1303.0 L 755.5 1304.5 L 757.6 1304.5 L 760.5 1304.5 L 760.7 1304.4 L 760.8 1304.2 L 762.7 1298.2 L 763.1 1293.4 L 763.7 1288.7 L 762.4 1284.6 L 760.6 1279.1 L 758.7 1274.2 L 755.0 1269.1 L 751.3 1262.2 L 748.5 1258.0 L 747.1 1252.8 L 746.4 1248.1 L 746.9 1243.4 L 747.1 1241.6 L 747.6 1237.8 L 748.6 1230.3 L 749.1 1225.9 L 752.0 1221.9 L 755.4 1219.0 L 757.8 1219.2 L 764.4 1217.5 L 769.3 1215.0 L 772.4 1210.8 L 774.9 1205.0 L 775.9 1199.1 L 773.8 1194.3 L 770.8 1189.2 L 768.9 1182.8 L 768.9 1181.3 L 768.9 1181.1 L 768.9 1180.7 L 768.9 1176.4 L 770.7 1170.5 L 774.8 1162.1 L 784.9 1148.3 L 787.2 1142.6 L 786.6 1114.5 L 784.7 1107.3 L 782.8 1103.0 L 767.8 1097.2 L 756.4 1095.2 L 745.4 1095.3 L 737.3 1096.7 L 730.9 1101.4 L 724.1 1104.7 L 704.1 1103.0 L 687.8 1098.7 L 675.5 1094.6 L 670.3 1090.1 L 666.9 1083.1 L 664.5 1076.1 L 663.4 1069.9 L 665.1 1062.6 L 668.7 1056.0 L 675.6 1048.6 L 677.8 1046.3 L 674.0 1034.4 L 652.8 1027.6 L 631.7 1027.8 L 612.5 1028.0 L 606.2 1026.4 L 606.1 1026.4 L 606.1 1026.5 L 608.6 1043.3 L 610.3 1054.5 L 607.5 1063.2 L 606.7 1064.2 L 599.0 1074.5 L 594.5 1077.1 L 591.0 1079.2 L 585.4 1082.5 L 581.5 1084.8 L 575.3 1089.4 L 568.7 1094.2 L 565.3 1096.6 L 561.5 1099.5 L 558.5 1100.3 L 555.6 1101.1 L 555.6 1101.1 L 558.2 1108.7 L 561.6 1108.0 L 561.2 1116.2 L 561.2 1118.2 L 561.5 1119.8 L 562.2 1121.2 L 563.3 1122.4 L 564.4 1123.1 L 566.1 1123.6 L 572.5 1123.5 L 579.9 1123.3 L 580.9 1123.6 L 582.1 1124.5 L 582.1 1124.5 L 582.4 1131.1 L 582.4 1133.3 L 582.7 1142.5 L 582.6 1144.5 L 581.8 1146.4 L 580.6 1148.1 L 577.9 1150.4 L 574.8 1151.0 L 569.0 1152.2 L 562.9 1153.5 L 564.3 1160.9 L 565.0 1164.7 L 565.6 1168.1 L 567.2 1167.8 L 565.6 1168.1 L 566.5 1172.5 L 566.5 1172.6 L 566.5 1172.6 L 567.4 1177.1 L 568.8 1184.1 L 568.8 1184.2 L 570.1 1191.2 L 571.0 1195.6 L 566.8 1196.5 L 562.0 1197.5 L 562.1 1197.6 L 563.3 1203.1 L 561.5 1202.2 L 558.3 1199.4 L 555.5 1196.6 L 555.3 1196.4 L 555.1 1196.3 L 554.3 1197.4 L 553.8 1197.9 L 552.3 1199.2 L 548.8 1202.5 L 531.6 1218.4 L 532.0 1218.3 L 536.2 1217.2 L 543.7 1218.0 L 548.6 1218.5 L 550.2 1218.4 L 559.4 1217.8 L 563.5 1212.7 L 569.0 1206.2 L 571.0 1204.3 L 571.8 1204.1 L 572.4 1203.9 L 572.5 1203.9 L 572.9 1206.0 L 574.1 1211.9 L 575.3 1218.2 L 575.4 1218.6 L 576.2 1222.9 L 577.4 1229.1 L 578.4 1233.9 Z " fill="url(#g_murucupi)" fill-rule="evenodd"/><path d="M 781.7 1347.5 L 787.7 1356.5 L 787.8 1360.0 L 787.4 1364.0 L 786.7 1368.7 L 786.7 1369.1 L 786.9 1373.0 L 788.0 1376.6 L 789.3 1379.8 L 791.2 1383.0 L 793.3 1386.1 L 795.7 1389.0 L 799.0 1392.3 L 802.8 1396.0 L 804.5 1397.9 L 804.7 1398.2 L 806.0 1401.4 L 807.8 1405.9 L 808.8 1410.2 L 809.7 1415.1 L 810.4 1419.1 L 810.5 1421.5 L 809.7 1423.2 L 809.4 1425.2 L 809.2 1426.9 L 809.5 1428.7 L 809.6 1430.7 L 808.9 1432.7 L 807.9 1434.7 L 806.3 1436.5 L 805.7 1438.7 L 805.2 1440.6 L 805.5 1443.5 L 806.0 1447.2 L 806.2 1448.9 L 807.1 1450.5 L 809.0 1452.7 L 811.1 1454.3 L 812.5 1455.8 L 812.5 1456.8 L 811.8 1458.3 L 811.8 1459.2 L 812.1 1460.5 L 811.9 1461.6 L 811.7 1462.8 L 810.7 1463.6 L 810.4 1464.1 L 810.8 1465.0 L 812.0 1465.5 L 812.8 1465.9 L 813.3 1466.5 L 813.2 1467.4 L 812.4 1468.3 L 812.1 1468.9 L 812.5 1469.7 L 813.4 1470.4 L 814.2 1471.4 L 815.1 1472.3 L 815.7 1473.2 L 815.7 1474.3 L 815.7 1475.1 L 816.2 1475.6 L 816.7 1476.3 L 816.8 1477.1 L 817.1 1478.0 L 817.5 1479.0 L 817.6 1480.2 L 817.6 1481.6 L 817.3 1482.3 L 816.6 1482.7 L 816.1 1483.0 L 816.3 1483.7 L 816.5 1484.4 L 816.6 1485.1 L 815.7 1485.1 L 814.9 1484.6 L 814.3 1483.8 L 813.4 1484.2 L 813.3 1484.8 L 813.6 1485.5 L 814.3 1485.8 L 814.7 1486.6 L 814.4 1487.1 L 813.9 1487.4 L 813.6 1488.3 L 813.2 1489.0 L 812.4 1489.5 L 812.3 1489.6 L 811.5 1490.4 L 811.5 1491.0 L 811.9 1491.9 L 811.6 1492.8 L 812.1 1493.5 L 812.5 1494.3 L 814.0 1494.3 L 815.4 1495.0 L 815.9 1496.2 L 817.3 1497.2 L 817.8 1498.8 L 818.7 1500.5 L 819.7 1502.3 L 820.2 1504.2 L 821.3 1506.1 L 821.7 1507.8 L 822.5 1510.4 L 823.8 1512.7 L 824.4 1513.9 L 824.8 1516.0 L 824.5 1518.3 L 824.4 1520.6 L 824.6 1521.9 L 825.0 1523.5 L 825.7 1524.6 L 827.0 1526.4 L 828.1 1528.7 L 828.1 1529.7 L 828.1 1530.7 L 828.1 1531.0 L 828.0 1533.3 L 828.1 1536.6 L 827.6 1538.7 L 824.5 1542.8 L 823.1 1544.4 L 820.3 1546.2 L 817.2 1548.6 L 815.4 1551.6 L 817.0 1555.7 L 819.4 1561.5 L 820.7 1565.2 L 820.9 1570.9 L 820.3 1576.2 L 821.7 1585.2 L 826.3 1589.4 L 828.2 1593.1 L 829.0 1595.9 L 831.0 1597.8 L 834.3 1600.3 L 836.1 1604.0 L 834.6 1609.3 L 832.9 1612.7 L 834.7 1617.8 L 836.1 1621.3 L 837.3 1623.9 L 838.8 1626.8 L 839.5 1628.5 L 840.3 1630.5 L 841.4 1632.0 L 842.0 1633.1 L 842.2 1634.3 L 843.1 1635.4 L 843.7 1636.8 L 843.8 1637.0 L 868.4 1614.1 L 885.1 1597.6 L 916.9 1567.8 L 918.3 1563.5 L 918.5 1563.3 L 923.5 1558.5 L 1003.5 1480.9 L 1006.7 1477.7 L 1027.0 1458.1 L 1033.0 1453.4 L 1075.4 1429.5 L 1097.9 1417.5 L 1134.9 1388.8 L 1135.7 1387.1 L 1136.5 1384.7 L 1136.5 1381.8 L 1136.3 1379.0 L 1135.7 1374.5 L 1129.0 1375.0 L 1120.0 1367.6 L 1111.2 1358.3 L 1102.0 1343.3 L 1100.3 1337.3 L 1099.0 1337.6 L 1093.0 1338.8 L 1090.2 1339.4 L 1090.1 1339.4 L 1087.2 1338.9 L 1084.8 1337.7 L 1082.5 1336.2 L 1080.6 1334.3 L 1079.6 1332.5 L 1078.5 1329.2 L 1077.5 1326.5 L 1076.4 1324.7 L 1075.1 1324.7 L 1073.3 1325.5 L 1071.0 1327.8 L 1067.9 1331.9 L 1066.3 1335.2 L 1064.6 1337.3 L 1062.8 1338.5 L 1061.5 1338.0 L 1060.6 1336.8 L 1059.5 1335.4 L 1058.4 1333.1 L 1057.5 1330.5 L 1056.5 1328.7 L 1055.3 1327.6 L 1053.7 1327.0 L 1052.1 1327.0 L 1049.5 1326.8 L 1047.7 1326.7 L 1046.0 1326.1 L 1044.8 1325.5 L 1043.5 1323.8 L 1042.6 1321.5 L 1041.5 1319.0 L 1040.2 1317.0 L 1037.9 1314.0 L 1037.2 1312.1 L 1036.8 1309.9 L 1037.0 1307.7 L 1037.6 1305.3 L 1038.8 1302.1 L 1039.3 1299.8 L 1039.0 1297.7 L 1038.0 1295.4 L 1036.0 1292.3 L 1033.6 1289.8 L 1032.3 1289.3 L 1029.8 1289.6 L 1025.8 1290.0 L 1023.4 1290.5 L 1019.2 1289.5 L 1017.1 1287.7 L 1015.2 1284.7 L 1012.2 1281.8 L 1009.6 1279.7 L 1006.9 1277.1 L 1004.4 1275.9 L 1002.2 1274.5 L 999.3 1271.5 L 997.3 1267.2 L 996.7 1263.6 L 997.9 1257.8 L 1000.9 1250.3 L 1001.8 1244.9 L 1002.0 1239.2 L 1000.1 1235.1 L 993.9 1225.2 L 986.2 1214.2 L 982.1 1209.2 L 968.7 1200.7 L 960.6 1194.0 L 957.5 1190.0 L 955.5 1186.0 L 954.2 1181.1 L 954.2 1173.7 L 957.8 1160.3 L 959.3 1151.6 L 959.1 1146.4 L 957.9 1142.2 L 955.5 1137.8 L 952.4 1132.9 L 947.9 1127.6 L 946.4 1125.6 L 941.3 1118.6 L 936.5 1110.4 L 934.0 1103.4 L 931.1 1089.7 L 931.0 1082.6 L 931.0 1079.3 L 932.5 1069.5 L 936.7 1058.8 L 946.8 1039.6 L 929.9 997.9 L 928.2 993.7 L 889.4 999.2 L 857.5 1009.6 L 855.0 1010.4 L 854.4 1011.7 L 848.7 1024.3 L 824.4 1060.1 L 815.9 1087.8 L 818.0 1094.0 L 821.8 1105.3 L 822.7 1107.2 L 823.2 1108.0 L 823.9 1108.9 L 824.0 1111.2 L 823.8 1114.0 L 823.9 1116.1 L 823.8 1117.0 L 823.4 1119.6 L 823.1 1122.5 L 821.8 1124.6 L 820.8 1126.5 L 819.9 1128.4 L 818.3 1131.3 L 818.1 1132.0 L 817.8 1132.7 L 817.5 1133.3 L 816.8 1134.3 L 816.6 1134.7 L 815.9 1135.3 L 815.0 1136.4 L 814.6 1137.3 L 813.2 1138.4 L 812.4 1139.7 L 811.5 1140.4 L 811.1 1140.8 L 810.6 1141.2 L 808.7 1146.0 L 807.1 1144.0 L 787.2 1142.6 L 784.9 1148.3 L 774.8 1162.1 L 770.7 1170.5 L 768.9 1176.4 L 768.9 1180.7 L 768.9 1181.1 L 768.9 1181.3 L 768.9 1182.8 L 770.8 1189.2 L 773.8 1194.3 L 775.9 1199.1 L 774.9 1205.0 L 772.4 1210.8 L 769.3 1215.0 L 764.4 1217.5 L 757.8 1219.2 L 755.4 1219.0 L 752.0 1221.9 L 749.1 1225.9 L 748.6 1230.3 L 747.6 1237.8 L 747.1 1241.6 L 746.9 1243.4 L 746.4 1248.1 L 747.1 1252.8 L 748.5 1258.0 L 751.3 1262.2 L 755.0 1269.1 L 758.7 1274.2 L 760.6 1279.1 L 762.4 1284.6 L 763.7 1288.7 L 763.1 1293.4 L 762.7 1298.2 L 760.8 1304.2 L 760.7 1304.4 L 758.3 1309.7 L 756.7 1315.0 L 756.9 1319.6 L 757.6 1324.1 L 759.2 1328.3 L 761.1 1331.6 L 766.3 1334.8 L 771.7 1337.0 L 775.5 1340.1 L 778.7 1344.1 L 781.7 1347.5 Z " fill="url(#g_barcarena)" fill-rule="evenodd"/><path d="M 700.9 1726.9 L 710.2 1732.4 L 725.5 1722.4 L 736.9 1714.7 L 810.4 1665.3 L 820.2 1658.9 L 843.8 1637.0 L 843.7 1636.8 L 843.1 1635.4 L 842.2 1634.3 L 842.0 1633.1 L 841.4 1632.0 L 840.3 1630.5 L 839.5 1628.5 L 838.8 1626.8 L 837.3 1623.9 L 836.1 1621.3 L 834.7 1617.8 L 832.9 1612.7 L 834.6 1609.3 L 836.1 1604.0 L 834.3 1600.3 L 831.0 1597.8 L 829.0 1595.9 L 828.2 1593.1 L 826.3 1589.4 L 821.7 1585.2 L 820.3 1576.2 L 820.9 1570.9 L 820.7 1565.2 L 819.4 1561.5 L 817.0 1555.7 L 815.4 1551.6 L 817.2 1548.6 L 820.3 1546.2 L 823.1 1544.4 L 824.5 1542.8 L 827.6 1538.7 L 828.1 1536.6 L 828.0 1533.3 L 828.1 1531.0 L 828.1 1530.7 L 828.1 1529.7 L 828.1 1528.7 L 827.0 1526.4 L 825.7 1524.6 L 825.0 1523.5 L 824.6 1521.9 L 824.4 1520.6 L 824.5 1518.3 L 824.8 1516.0 L 824.4 1513.9 L 823.8 1512.7 L 822.5 1510.4 L 821.7 1507.8 L 821.3 1506.1 L 820.2 1504.2 L 819.7 1502.3 L 818.7 1500.5 L 817.8 1498.8 L 817.3 1497.2 L 815.9 1496.2 L 815.4 1495.0 L 814.0 1494.3 L 812.5 1494.3 L 812.1 1493.5 L 811.6 1492.8 L 811.9 1491.9 L 811.5 1491.0 L 811.5 1490.4 L 812.3 1489.6 L 812.4 1489.5 L 813.2 1489.0 L 813.6 1488.3 L 813.9 1487.4 L 814.4 1487.1 L 814.7 1486.6 L 814.3 1485.8 L 813.6 1485.5 L 813.3 1484.8 L 813.4 1484.2 L 814.3 1483.8 L 814.9 1484.6 L 815.7 1485.1 L 816.6 1485.1 L 816.5 1484.4 L 816.3 1483.7 L 816.1 1483.0 L 816.6 1482.7 L 817.3 1482.3 L 817.6 1481.6 L 817.6 1480.2 L 817.5 1479.0 L 817.1 1478.0 L 816.8 1477.1 L 816.7 1476.3 L 816.2 1475.6 L 815.7 1475.1 L 815.7 1474.3 L 815.7 1473.2 L 815.1 1472.3 L 814.2 1471.4 L 813.4 1470.4 L 812.5 1469.7 L 812.1 1468.9 L 812.4 1468.3 L 813.2 1467.4 L 813.3 1466.5 L 812.8 1465.9 L 812.0 1465.5 L 810.8 1465.0 L 810.4 1464.1 L 810.7 1463.6 L 811.7 1462.8 L 811.9 1461.6 L 812.1 1460.5 L 811.8 1459.2 L 811.8 1458.3 L 812.5 1456.8 L 812.5 1455.8 L 811.1 1454.3 L 809.0 1452.7 L 807.1 1450.5 L 806.2 1448.9 L 806.0 1447.2 L 805.5 1443.5 L 805.2 1440.6 L 805.7 1438.7 L 806.3 1436.5 L 807.9 1434.7 L 808.9 1432.7 L 809.6 1430.7 L 809.5 1428.7 L 809.2 1426.9 L 809.4 1425.2 L 809.7 1423.2 L 810.5 1421.5 L 810.4 1419.1 L 809.7 1415.1 L 808.8 1410.2 L 807.8 1405.9 L 806.0 1401.4 L 804.7 1398.2 L 804.5 1397.9 L 802.8 1396.0 L 799.0 1392.3 L 795.7 1389.0 L 793.3 1386.1 L 791.2 1383.0 L 789.3 1379.8 L 788.0 1376.6 L 786.9 1373.0 L 786.7 1369.1 L 786.7 1368.7 L 787.4 1364.0 L 787.8 1360.0 L 787.7 1356.5 L 781.7 1347.5 L 778.7 1344.1 L 775.5 1340.1 L 771.7 1337.0 L 766.3 1334.8 L 761.1 1331.6 L 759.2 1328.3 L 757.6 1324.1 L 756.9 1319.6 L 756.7 1315.0 L 758.3 1309.7 L 760.7 1304.4 L 760.5 1304.5 L 757.6 1304.5 L 755.5 1304.4 L 753.9 1303.0 L 751.6 1300.0 L 748.9 1300.6 L 747.1 1302.9 L 746.8 1303.8 L 741.5 1306.4 L 741.2 1307.0 L 735.4 1308.0 L 717.5 1304.6 L 702.8 1301.7 L 679.9 1297.9 L 673.7 1296.2 L 663.4 1293.3 L 663.2 1293.2 L 662.8 1294.1 L 660.8 1296.1 L 658.4 1297.1 L 656.3 1297.1 L 654.6 1296.8 L 654.6 1296.7 L 652.9 1289.8 L 652.1 1287.4 L 650.4 1284.9 L 648.1 1283.3 L 646.3 1282.8 L 643.9 1282.5 L 642.8 1282.3 L 642.3 1282.2 L 641.5 1281.2 L 640.2 1280.1 L 636.7 1279.8 L 633.5 1279.6 L 630.3 1278.0 L 626.6 1277.3 L 621.3 1276.1 L 617.3 1276.4 L 616.1 1276.5 L 615.7 1275.1 L 615.8 1273.4 L 615.6 1271.7 L 615.3 1271.5 L 615.1 1271.3 L 613.3 1270.2 L 611.1 1269.5 L 607.4 1268.2 L 605.8 1267.1 L 604.5 1266.3 L 602.8 1266.0 L 600.7 1264.9 L 599.8 1264.2 L 599.7 1262.8 L 599.6 1261.7 L 599.4 1259.3 L 591.6 1260.7 L 584.3 1265.5 L 583.1 1257.8 L 583.1 1257.8 L 583.0 1257.8 L 579.1 1237.6 L 579.1 1237.5 L 578.4 1233.9 L 577.4 1229.1 L 576.2 1222.9 L 575.4 1218.6 L 575.3 1218.2 L 574.1 1211.9 L 572.9 1206.0 L 572.5 1203.9 L 572.4 1203.9 L 571.8 1204.1 L 571.0 1204.3 L 569.0 1206.2 L 563.5 1212.7 L 559.4 1217.8 L 550.2 1218.4 L 548.6 1218.5 L 543.7 1218.0 L 536.2 1217.2 L 532.0 1218.3 L 531.6 1218.4 L 548.8 1202.5 L 552.3 1199.2 L 553.8 1197.9 L 554.3 1197.4 L 555.1 1196.3 L 555.3 1196.4 L 555.5 1196.6 L 558.3 1199.4 L 561.5 1202.2 L 563.3 1203.1 L 562.1 1197.6 L 562.0 1197.5 L 566.8 1196.5 L 571.0 1195.6 L 570.1 1191.2 L 568.8 1184.2 L 568.8 1184.1 L 567.4 1177.1 L 566.5 1172.6 L 566.5 1172.5 L 565.6 1168.1 L 565.0 1164.7 L 564.3 1160.9 L 562.9 1153.5 L 569.0 1152.2 L 574.8 1151.0 L 577.9 1150.4 L 580.6 1148.1 L 581.8 1146.4 L 582.6 1144.5 L 582.7 1142.5 L 582.4 1133.3 L 582.4 1131.1 L 582.1 1124.5 L 582.1 1124.5 L 580.9 1123.6 L 579.9 1123.3 L 572.5 1123.5 L 566.1 1123.6 L 564.4 1123.1 L 563.3 1122.4 L 562.2 1121.2 L 561.5 1119.8 L 561.2 1118.2 L 561.2 1116.2 L 561.6 1108.0 L 558.2 1108.7 L 555.6 1101.1 L 555.6 1101.1 L 558.5 1100.3 L 561.5 1099.5 L 565.3 1096.6 L 568.7 1094.2 L 575.3 1089.4 L 581.5 1084.8 L 585.4 1082.5 L 591.0 1079.2 L 594.5 1077.1 L 599.0 1074.5 L 606.7 1064.2 L 607.5 1063.2 L 610.3 1054.5 L 608.6 1043.3 L 606.1 1026.5 L 606.1 1026.4 L 584.1 1020.8 L 390.1 988.1 L 385.2 986.8 L 368.2 1015.9 L 344.5 1042.0 L 312.6 1062.2 L 282.1 1084.6 L 244.3 1118.1 L 240.2 1121.7 L 233.8 1128.4 L 227.4 1136.1 L 212.4 1149.7 L 209.6 1152.3 L 190.0 1167.5 L 180.8 1175.8 L 167.9 1183.3 L 150.0 1191.8 L 152.5 1212.1 L 153.3 1222.8 L 153.1 1232.5 L 154.8 1244.3 L 156.0 1258.0 L 156.1 1272.1 L 159.1 1282.4 L 161.2 1295.8 L 161.8 1297.9 L 164.5 1313.3 L 169.1 1324.9 L 176.3 1348.6 L 180.2 1359.7 L 192.1 1385.0 L 196.2 1393.8 L 204.3 1407.1 L 210.6 1421.9 L 227.6 1446.7 L 235.7 1455.2 L 245.1 1461.8 L 247.5 1463.0 L 254.3 1466.2 L 257.3 1466.5 L 260.2 1466.1 L 262.8 1465.3 L 263.9 1464.5 L 265.3 1463.6 L 267.5 1461.3 L 269.9 1458.5 L 271.4 1456.6 L 272.8 1454.7 L 275.6 1453.1 L 276.0 1453.2 L 276.2 1453.2 L 276.5 1453.2 L 276.9 1453.2 L 276.9 1453.2 L 277.2 1453.2 L 277.4 1453.2 L 277.9 1453.2 L 278.3 1453.2 L 278.4 1453.2 L 278.5 1453.2 L 278.5 1453.3 L 278.5 1453.3 L 278.6 1453.3 L 278.7 1453.3 L 278.7 1453.3 L 278.9 1453.3 L 279.1 1453.4 L 279.2 1453.4 L 279.3 1453.4 L 279.5 1453.4 L 279.6 1453.5 L 279.9 1453.5 L 280.8 1453.8 L 280.9 1453.8 L 281.2 1453.8 L 281.3 1453.8 L 281.5 1453.8 L 281.6 1453.8 L 281.6 1453.8 L 281.7 1453.8 L 281.9 1453.7 L 281.9 1453.7 L 282.2 1453.5 L 282.3 1453.4 L 282.3 1453.4 L 282.3 1453.4 L 282.4 1453.3 L 282.5 1453.2 L 282.7 1453.0 L 282.8 1452.9 L 282.9 1452.8 L 283.0 1452.7 L 283.1 1452.5 L 283.2 1452.3 L 283.5 1452.0 L 283.7 1451.5 L 283.8 1451.0 L 284.2 1450.0 L 284.3 1450.0 L 284.7 1449.3 L 285.3 1448.8 L 285.9 1448.6 L 286.0 1448.6 L 286.1 1448.6 L 286.3 1448.5 L 286.9 1448.4 L 287.3 1448.3 L 287.7 1448.2 L 288.3 1448.0 L 288.4 1448.0 L 288.6 1447.9 L 288.8 1447.9 L 289.0 1447.9 L 289.1 1447.8 L 289.8 1447.8 L 290.0 1447.8 L 290.5 1447.8 L 290.7 1447.8 L 290.9 1447.7 L 291.3 1447.5 L 291.8 1447.0 L 291.9 1446.9 L 292.0 1446.9 L 292.3 1446.4 L 292.5 1446.1 L 292.5 1446.1 L 292.6 1446.1 L 292.7 1446.0 L 292.8 1445.8 L 293.0 1445.7 L 293.2 1445.3 L 293.4 1445.2 L 293.8 1444.8 L 294.3 1444.5 L 294.3 1444.5 L 296.4 1444.0 L 296.5 1444.0 L 296.6 1444.0 L 298.7 1444.0 L 300.9 1444.2 L 304.2 1443.9 L 306.8 1443.7 L 308.9 1443.9 L 311.4 1444.3 L 314.1 1445.3 L 315.8 1446.6 L 316.8 1448.5 L 317.8 1450.4 L 318.5 1452.2 L 319.3 1454.1 L 320.3 1455.3 L 321.5 1456.2 L 322.8 1456.6 L 325.2 1456.8 L 327.3 1456.9 L 329.7 1456.9 L 331.9 1456.7 L 333.8 1456.2 L 337.0 1455.5 L 339.5 1455.2 L 341.3 1455.2 L 343.1 1455.1 L 346.6 1454.4 L 347.9 1453.8 L 349.8 1452.4 L 351.5 1451.4 L 352.9 1450.8 L 354.3 1450.4 L 355.5 1449.8 L 356.5 1449.0 L 357.8 1448.1 L 359.0 1447.2 L 359.9 1446.2 L 361.0 1445.1 L 362.1 1444.6 L 367.9 1444.9 L 369.6 1445.2 L 370.8 1445.7 L 372.1 1446.4 L 373.0 1446.6 L 373.7 1446.6 L 374.6 1446.4 L 376.1 1445.8 L 377.0 1445.4 L 377.7 1445.6 L 378.0 1446.3 L 377.9 1447.2 L 377.9 1447.9 L 378.1 1449.5 L 378.6 1450.7 L 379.0 1451.7 L 379.6 1452.6 L 380.2 1453.3 L 381.2 1453.9 L 381.9 1454.2 L 382.5 1454.6 L 383.3 1455.5 L 383.9 1456.3 L 384.8 1457.5 L 385.5 1458.4 L 386.7 1459.6 L 387.8 1460.7 L 388.6 1461.3 L 389.5 1461.8 L 390.3 1462.2 L 391.6 1462.5 L 392.8 1463.0 L 393.7 1463.6 L 394.9 1464.3 L 396.4 1465.3 L 397.5 1466.1 L 398.6 1466.7 L 399.3 1467.1 L 399.9 1467.5 L 400.5 1467.9 L 401.5 1468.3 L 402.2 1468.5 L 402.9 1468.8 L 404.0 1469.5 L 404.5 1470.0 L 405.1 1470.6 L 405.5 1471.1 L 405.9 1471.7 L 406.6 1472.7 L 407.6 1473.7 L 408.5 1474.2 L 409.5 1474.8 L 410.7 1475.6 L 411.6 1476.5 L 412.3 1477.3 L 412.4 1477.8 L 411.8 1478.2 L 411.1 1478.5 L 410.0 1478.5 L 409.3 1478.8 L 409.1 1479.6 L 409.3 1480.3 L 410.0 1480.7 L 410.8 1480.9 L 412.0 1480.9 L 413.3 1480.6 L 414.1 1480.2 L 414.1 1480.2 L 414.7 1479.3 L 414.8 1478.1 L 414.6 1477.3 L 415.3 1476.0 L 416.3 1475.4 L 417.6 1475.5 L 418.4 1476.1 L 418.7 1477.3 L 419.1 1478.3 L 419.9 1479.2 L 420.9 1480.5 L 421.6 1481.7 L 421.6 1482.8 L 421.3 1483.8 L 421.4 1484.2 L 422.3 1484.1 L 423.5 1483.5 L 424.3 1482.5 L 425.1 1482.1 L 426.5 1481.9 L 427.6 1482.2 L 428.6 1482.9 L 429.4 1483.1 L 430.6 1482.7 L 431.5 1482.2 L 431.6 1481.6 L 431.2 1481.2 L 430.3 1481.0 L 429.5 1480.7 L 428.9 1479.9 L 428.4 1478.9 L 427.7 1478.3 L 426.9 1478.0 L 426.8 1477.3 L 427.1 1476.5 L 427.8 1475.8 L 428.7 1474.9 L 429.7 1474.3 L 430.8 1473.9 L 431.9 1473.6 L 432.6 1473.6 L 432.9 1474.0 L 433.1 1474.4 L 433.5 1474.4 L 433.9 1474.0 L 434.3 1473.1 L 434.9 1472.3 L 435.4 1471.6 L 436.0 1471.1 L 436.6 1471.2 L 437.0 1471.5 L 437.1 1472.3 L 436.9 1473.3 L 436.7 1474.1 L 436.4 1474.7 L 436.4 1475.1 L 436.9 1475.6 L 437.3 1476.1 L 437.9 1476.9 L 438.5 1477.0 L 439.3 1476.7 L 439.8 1476.8 L 440.1 1477.3 L 440.1 1478.1 L 440.0 1478.9 L 439.6 1479.3 L 438.9 1478.9 L 438.3 1478.6 L 437.9 1478.9 L 438.1 1479.6 L 438.3 1480.9 L 438.5 1482.0 L 438.6 1483.1 L 439.0 1484.6 L 439.8 1484.6 L 440.7 1484.5 L 441.3 1485.2 L 441.2 1485.8 L 440.9 1486.5 L 440.2 1487.2 L 439.9 1487.8 L 440.3 1488.0 L 441.0 1487.6 L 441.8 1487.2 L 442.7 1487.2 L 443.3 1487.4 L 443.5 1488.1 L 443.6 1488.8 L 444.0 1489.3 L 444.7 1489.2 L 445.4 1488.8 L 445.9 1488.4 L 446.1 1488.1 L 445.7 1487.7 L 445.2 1487.6 L 444.8 1487.3 L 444.9 1487.0 L 445.7 1486.8 L 446.1 1486.4 L 446.5 1486.0 L 446.7 1485.4 L 446.9 1485.0 L 447.3 1484.8 L 448.0 1485.0 L 448.7 1485.6 L 449.3 1486.0 L 449.8 1486.1 L 450.2 1486.1 L 450.6 1485.9 L 451.0 1485.7 L 451.5 1485.7 L 452.0 1486.0 L 452.2 1486.4 L 452.1 1486.9 L 451.9 1487.3 L 451.7 1487.7 L 451.7 1488.2 L 452.0 1488.5 L 452.4 1488.6 L 452.9 1488.6 L 453.3 1488.3 L 453.6 1487.9 L 453.9 1487.4 L 454.3 1487.2 L 454.6 1487.6 L 454.5 1488.2 L 454.4 1489.0 L 454.5 1489.5 L 454.9 1490.1 L 455.1 1490.9 L 455.2 1491.6 L 455.1 1491.9 L 454.6 1491.9 L 454.1 1491.5 L 453.6 1491.2 L 453.3 1491.1 L 452.9 1491.7 L 452.5 1492.3 L 452.1 1493.0 L 452.3 1493.6 L 453.0 1494.3 L 452.8 1494.9 L 452.5 1495.5 L 452.4 1496.0 L 452.9 1496.4 L 453.5 1496.5 L 454.1 1496.5 L 454.2 1496.8 L 453.8 1497.5 L 453.7 1497.9 L 453.7 1498.5 L 454.1 1499.0 L 454.4 1499.5 L 454.4 1500.4 L 454.7 1500.9 L 455.4 1501.0 L 455.9 1501.0 L 456.1 1501.4 L 456.2 1502.2 L 456.4 1502.9 L 456.9 1503.2 L 457.3 1503.3 L 457.6 1503.8 L 457.8 1504.1 L 458.3 1504.5 L 459.0 1504.5 L 460.2 1504.7 L 461.0 1504.9 L 461.7 1505.2 L 462.6 1505.3 L 463.4 1505.4 L 463.5 1505.4 L 464.5 1505.5 L 464.6 1505.5 L 466.0 1505.6 L 466.4 1505.7 L 468.7 1509.0 L 476.6 1516.8 L 482.6 1527.6 L 484.8 1537.0 L 489.3 1546.1 L 491.9 1555.8 L 491.0 1565.6 L 487.0 1575.5 L 490.6 1584.3 L 501.3 1589.5 L 512.5 1592.7 L 521.7 1595.9 L 529.9 1602.9 L 537.3 1612.7 L 542.0 1622.1 L 551.6 1630.1 L 551.7 1630.2 L 554.5 1635.6 L 557.7 1641.8 L 557.3 1655.7 L 560.1 1666.5 L 565.5 1679.5 L 577.9 1695.6 L 589.2 1700.8 L 605.6 1706.1 L 615.9 1708.1 L 625.5 1712.8 L 635.7 1721.7 L 648.2 1719.4 L 659.7 1712.5 L 669.9 1719.9 L 682.0 1725.1 L 692.0 1724.0 L 700.9 1726.9 Z " fill="url(#g_viladoconde)" fill-rule="evenodd"/><path d="M 862.7 1740.7 L 862.7 1740.7 L 927.6 1744.2 L 927.7 1744.2 L 986.8 1747.4 L 989.1 1747.5 L 1007.9 1748.5 L 1016.6 1749.0 L 1121.0 1754.6 L 1119.1 1745.2 L 1118.8 1735.4 L 1116.8 1723.7 L 1116.0 1714.2 L 1122.0 1705.4 L 1131.3 1687.7 L 1145.1 1679.3 L 1155.3 1675.8 L 1166.0 1673.0 L 1179.0 1677.8 L 1191.9 1680.1 L 1201.9 1679.2 L 1228.9 1684.4 L 1232.2 1684.3 L 1240.1 1684.1 L 1249.2 1682.9 L 1262.6 1674.5 L 1270.3 1667.9 L 1306.8 1640.1 L 1316.7 1636.1 L 1327.6 1635.7 L 1338.9 1633.4 L 1348.1 1627.6 L 1359.0 1627.5 L 1369.2 1632.1 L 1384.3 1628.6 L 1392.6 1622.8 L 1402.3 1617.0 L 1410.0 1608.4 L 1407.6 1596.9 L 1400.4 1583.1 L 1381.8 1557.3 L 1373.1 1536.1 L 1367.1 1526.6 L 1362.5 1516.6 L 1360.5 1513.8 L 1338.2 1514.6 L 1327.1 1515.9 L 1319.2 1515.4 L 1309.2 1514.0 L 1296.8 1512.5 L 1290.4 1511.7 L 1289.9 1511.7 L 1284.9 1511.2 L 1280.0 1509.4 L 1279.6 1509.2 L 1277.1 1506.9 L 1274.1 1504.0 L 1272.0 1500.4 L 1269.3 1498.2 L 1265.2 1496.8 L 1260.2 1496.5 L 1259.7 1496.5 L 1256.1 1496.1 L 1255.4 1496.1 L 1252.4 1494.9 L 1252.1 1494.8 L 1248.5 1493.4 L 1244.3 1491.7 L 1240.1 1490.5 L 1235.2 1490.4 L 1229.6 1490.7 L 1224.1 1490.1 L 1218.7 1488.0 L 1212.9 1486.1 L 1207.4 1483.1 L 1199.3 1478.4 L 1195.2 1472.0 L 1197.1 1453.8 L 1200.9 1434.8 L 1200.9 1425.4 L 1196.0 1407.3 L 1192.9 1398.1 L 1188.3 1387.2 L 1183.2 1371.4 L 1178.5 1369.4 L 1167.6 1367.8 L 1153.5 1370.6 L 1142.2 1373.7 L 1135.7 1374.5 L 1136.3 1379.0 L 1136.5 1381.8 L 1136.5 1384.7 L 1135.7 1387.1 L 1134.9 1388.8 L 1097.9 1417.5 L 1075.4 1429.5 L 1033.0 1453.4 L 1027.0 1458.1 L 1006.7 1477.7 L 1003.5 1480.9 L 923.5 1558.5 L 918.5 1563.3 L 918.3 1563.5 L 916.9 1567.8 L 885.1 1597.6 L 868.4 1614.1 L 843.8 1637.0 L 820.2 1658.9 L 810.4 1665.3 L 736.9 1714.7 L 725.5 1722.4 L 710.2 1732.4 L 862.7 1740.7 Z " fill="url(#g_estradas)" fill-rule="evenodd"/></g>
  <path d="M 824.4 1060.1 L 848.7 1024.3 L 854.4 1011.7 L 855.0 1010.4 L 857.5 1009.6 L 889.4 999.2 L 928.2 993.7 L 929.9 997.9 L 946.8 1039.6 L 936.7 1058.8 L 932.5 1069.5 L 931.0 1079.3 L 931.0 1082.6 L 931.1 1089.7 L 934.0 1103.4 L 936.5 1110.4 L 941.3 1118.6 L 946.4 1125.6 L 947.9 1127.6 L 952.4 1132.9 L 955.5 1137.8 L 957.9 1142.2 L 959.1 1146.4 L 959.3 1151.6 L 957.8 1160.3 L 954.2 1173.7 L 954.2 1181.1 L 955.5 1186.0 L 957.5 1190.0 L 960.6 1194.0 L 968.7 1200.7 L 982.1 1209.2 L 986.2 1214.2 L 993.9 1225.2 L 1000.1 1235.1 L 1002.0 1239.2 L 1001.8 1244.9 L 1000.9 1250.3 L 997.9 1257.8 L 996.7 1263.6 L 997.3 1267.2 L 999.3 1271.5 L 1002.2 1274.5 L 1004.4 1275.9 L 1006.9 1277.1 L 1009.6 1279.7 L 1012.2 1281.8 L 1015.2 1284.7 L 1017.1 1287.7 L 1019.2 1289.5 L 1023.4 1290.5 L 1025.8 1290.0 L 1029.8 1289.6 L 1032.3 1289.3 L 1033.6 1289.8 L 1036.0 1292.3 L 1038.0 1295.4 L 1039.0 1297.7 L 1039.3 1299.8 L 1038.8 1302.1 L 1037.6 1305.3 L 1037.0 1307.7 L 1036.8 1309.9 L 1037.2 1312.1 L 1037.9 1314.0 L 1040.2 1317.0 L 1041.5 1319.0 L 1042.6 1321.5 L 1043.5 1323.8 L 1044.8 1325.5 L 1046.0 1326.1 L 1047.7 1326.7 L 1049.5 1326.8 L 1052.1 1327.0 L 1053.7 1327.0 L 1055.3 1327.6 L 1056.5 1328.7 L 1057.5 1330.5 L 1058.4 1333.1 L 1059.5 1335.4 L 1060.6 1336.8 L 1061.5 1338.0 L 1062.8 1338.5 L 1064.6 1337.3 L 1066.3 1335.2 L 1067.9 1331.9 L 1071.0 1327.8 L 1073.3 1325.5 L 1075.1 1324.7 L 1076.4 1324.7 L 1077.5 1326.5 L 1078.5 1329.2 L 1079.6 1332.5 L 1080.6 1334.3 L 1082.5 1336.2 L 1084.8 1337.7 L 1087.2 1338.9 L 1090.1 1339.4 L 1090.2 1339.4 L 1093.0 1338.8 L 1099.0 1337.6 L 1100.3 1337.3 L 1102.0 1343.3 L 1111.2 1358.3 L 1120.0 1367.6 L 1129.0 1375.0 L 1135.7 1374.5 L 1142.2 1373.7 L 1153.5 1370.6 L 1167.6 1367.8 L 1178.5 1369.4 L 1183.2 1371.4 L 1188.3 1387.2 L 1192.9 1398.1 L 1196.0 1407.3 L 1200.9 1425.4 L 1200.9 1434.8 L 1197.1 1453.8 L 1195.2 1472.0 L 1199.3 1478.4 L 1207.4 1483.1 L 1212.9 1486.1 L 1218.7 1488.0 L 1224.1 1490.1 L 1229.6 1490.7 L 1235.2 1490.4 L 1240.1 1490.5 L 1244.3 1491.7 L 1248.5 1493.4 L 1252.1 1494.8 L 1252.4 1494.9 L 1255.4 1496.1 L 1256.1 1496.1 L 1259.7 1496.5 L 1260.2 1496.5 L 1265.2 1496.8 L 1269.3 1498.2 L 1272.0 1500.4 L 1274.1 1504.0 L 1277.1 1506.9 L 1279.6 1509.2 L 1280.0 1509.4 L 1284.9 1511.2 L 1289.9 1511.7 L 1290.4 1511.7 L 1296.8 1512.5 L 1309.2 1514.0 L 1319.2 1515.4 L 1327.1 1515.9 L 1338.2 1514.6 L 1360.5 1513.8 L 1354.5 1505.4 L 1346.4 1487.3 L 1332.6 1461.8 L 1331.6 1459.3 L 1326.5 1447.1 L 1313.7 1426.0 L 1308.7 1413.3 L 1302.9 1400.4 L 1296.1 1392.1 L 1290.9 1383.4 L 1284.8 1360.2 L 1278.7 1347.6 L 1274.2 1340.1 L 1271.3 1335.3 L 1265.0 1327.8 L 1259.5 1318.9 L 1253.4 1311.5 L 1243.9 1298.6 L 1242.0 1296.9 L 1225.7 1282.8 L 1220.5 1274.2 L 1216.4 1266.1 L 1216.1 1265.5 L 1207.1 1255.8 L 1201.4 1245.1 L 1192.2 1220.6 L 1197.4 1208.1 L 1187.0 1206.6 L 1182.2 1182.6 L 1182.9 1156.2 L 1184.2 1139.8 L 1188.1 1104.1 L 1181.0 1084.6 L 1174.8 1070.1 L 1168.6 1055.5 L 1159.7 1024.6 L 1158.2 985.2 L 1164.5 949.5 L 1166.2 942.9 L 1175.6 906.8 L 1181.5 872.4 L 1178.8 834.8 L 1169.0 789.6 L 1144.1 750.6 L 1135.6 737.3 L 1103.6 696.8 L 1074.2 663.2 L 1072.8 659.3 L 1066.5 641.0 L 1059.0 597.1 L 1049.7 553.3 L 1045.8 535.1 L 1025.4 493.0 L 1025.2 492.5 L 1001.4 467.9 L 987.1 453.1 L 938.1 384.2 L 916.7 349.4 L 899.4 321.4 L 863.3 253.5 L 832.4 185.8 L 823.7 150.0 L 778.5 213.2 L 737.7 276.1 L 698.8 344.2 L 684.8 364.9 L 676.6 387.8 L 653.4 435.5 L 612.2 506.7 L 603.8 520.4 L 577.3 561.9 L 550.5 612.9 L 515.2 682.4 L 493.0 730.3 L 462.4 798.5 L 458.3 807.7 L 444.7 847.1 L 425.5 895.3 L 412.6 927.7 L 392.8 973.8 L 385.2 986.8 L 390.1 988.1 L 584.1 1020.8 L 606.1 1026.4 L 606.2 1026.4 L 612.5 1028.0 L 631.7 1027.8 L 652.8 1027.6 L 674.0 1034.4 L 677.8 1046.3 L 675.6 1048.6 L 668.7 1056.0 L 665.1 1062.6 L 663.4 1069.9 L 664.5 1076.1 L 666.9 1083.1 L 670.3 1090.1 L 675.5 1094.6 L 687.8 1098.7 L 704.1 1103.0 L 724.1 1104.7 L 730.9 1101.4 L 737.3 1096.7 L 745.4 1095.3 L 756.4 1095.2 L 767.8 1097.2 L 782.8 1103.0 L 784.7 1107.3 L 786.6 1114.5 L 787.2 1142.6 L 807.1 1144.0 L 808.7 1146.0 L 810.6 1141.2 L 811.1 1140.8 L 811.5 1140.4 L 812.4 1139.7 L 813.2 1138.4 L 814.6 1137.3 L 815.0 1136.4 L 815.9 1135.3 L 816.6 1134.7 L 816.8 1134.3 L 817.5 1133.3 L 817.8 1132.7 L 818.1 1132.0 L 818.3 1131.3 L 819.9 1128.4 L 820.8 1126.5 L 821.8 1124.6 L 823.1 1122.5 L 823.4 1119.6 L 823.8 1117.0 L 823.9 1116.1 L 823.8 1114.0 L 824.0 1111.2 L 823.9 1108.9 L 823.2 1108.0 L 822.7 1107.2 L 821.8 1105.3 L 818.0 1094.0 L 815.9 1087.8 L 824.4 1060.1 Z " fill="none" stroke="#f3ece0" stroke-width="3" stroke-opacity="0.85" stroke-linejoin="round" fill-rule="evenodd"/><path d="M 578.4 1233.9 L 579.1 1237.5 L 579.1 1237.6 L 583.0 1257.8 L 583.1 1257.8 L 583.1 1257.8 L 584.3 1265.5 L 591.6 1260.7 L 599.4 1259.3 L 599.6 1261.7 L 599.7 1262.8 L 599.8 1264.2 L 600.7 1264.9 L 602.8 1266.0 L 604.5 1266.3 L 605.8 1267.1 L 607.4 1268.2 L 611.1 1269.5 L 613.3 1270.2 L 615.1 1271.3 L 615.3 1271.5 L 615.6 1271.7 L 615.8 1273.4 L 615.7 1275.1 L 616.1 1276.5 L 617.3 1276.3 L 621.3 1276.1 L 626.6 1277.3 L 630.3 1278.0 L 633.5 1279.6 L 636.7 1279.8 L 640.2 1280.1 L 641.5 1281.2 L 642.3 1282.2 L 642.8 1282.3 L 643.9 1282.5 L 646.3 1282.8 L 648.1 1283.3 L 650.4 1284.9 L 652.1 1287.4 L 652.9 1289.8 L 654.6 1296.7 L 654.6 1296.8 L 656.3 1297.1 L 658.4 1297.1 L 660.8 1296.1 L 662.8 1294.1 L 663.2 1293.2 L 663.4 1293.3 L 673.7 1296.2 L 679.9 1297.9 L 702.8 1301.7 L 717.5 1304.6 L 735.4 1308.0 L 741.2 1307.0 L 741.5 1306.4 L 746.8 1303.8 L 747.1 1302.9 L 748.9 1300.6 L 751.6 1300.0 L 753.9 1303.0 L 755.5 1304.5 L 757.6 1304.5 L 760.5 1304.5 L 760.7 1304.4 L 760.8 1304.2 L 762.7 1298.2 L 763.1 1293.4 L 763.7 1288.7 L 762.4 1284.6 L 760.6 1279.1 L 758.7 1274.2 L 755.0 1269.1 L 751.3 1262.2 L 748.5 1258.0 L 747.1 1252.8 L 746.4 1248.1 L 746.9 1243.4 L 747.1 1241.6 L 747.6 1237.8 L 748.6 1230.3 L 749.1 1225.9 L 752.0 1221.9 L 755.4 1219.0 L 757.8 1219.2 L 764.4 1217.5 L 769.3 1215.0 L 772.4 1210.8 L 774.9 1205.0 L 775.9 1199.1 L 773.8 1194.3 L 770.8 1189.2 L 768.9 1182.8 L 768.9 1181.3 L 768.9 1181.1 L 768.9 1180.7 L 768.9 1176.4 L 770.7 1170.5 L 774.8 1162.1 L 784.9 1148.3 L 787.2 1142.6 L 786.6 1114.5 L 784.7 1107.3 L 782.8 1103.0 L 767.8 1097.2 L 756.4 1095.2 L 745.4 1095.3 L 737.3 1096.7 L 730.9 1101.4 L 724.1 1104.7 L 704.1 1103.0 L 687.8 1098.7 L 675.5 1094.6 L 670.3 1090.1 L 666.9 1083.1 L 664.5 1076.1 L 663.4 1069.9 L 665.1 1062.6 L 668.7 1056.0 L 675.6 1048.6 L 677.8 1046.3 L 674.0 1034.4 L 652.8 1027.6 L 631.7 1027.8 L 612.5 1028.0 L 606.2 1026.4 L 606.1 1026.4 L 606.1 1026.5 L 608.6 1043.3 L 610.3 1054.5 L 607.5 1063.2 L 606.7 1064.2 L 599.0 1074.5 L 594.5 1077.1 L 591.0 1079.2 L 585.4 1082.5 L 581.5 1084.8 L 575.3 1089.4 L 568.7 1094.2 L 565.3 1096.6 L 561.5 1099.5 L 558.5 1100.3 L 555.6 1101.1 L 555.6 1101.1 L 558.2 1108.7 L 561.6 1108.0 L 561.2 1116.2 L 561.2 1118.2 L 561.5 1119.8 L 562.2 1121.2 L 563.3 1122.4 L 564.4 1123.1 L 566.1 1123.6 L 572.5 1123.5 L 579.9 1123.3 L 580.9 1123.6 L 582.1 1124.5 L 582.1 1124.5 L 582.4 1131.1 L 582.4 1133.3 L 582.7 1142.5 L 582.6 1144.5 L 581.8 1146.4 L 580.6 1148.1 L 577.9 1150.4 L 574.8 1151.0 L 569.0 1152.2 L 562.9 1153.5 L 564.3 1160.9 L 565.0 1164.7 L 565.6 1168.1 L 567.2 1167.8 L 565.6 1168.1 L 566.5 1172.5 L 566.5 1172.6 L 566.5 1172.6 L 567.4 1177.1 L 568.8 1184.1 L 568.8 1184.2 L 570.1 1191.2 L 571.0 1195.6 L 566.8 1196.5 L 562.0 1197.5 L 562.1 1197.6 L 563.3 1203.1 L 561.5 1202.2 L 558.3 1199.4 L 555.5 1196.6 L 555.3 1196.4 L 555.1 1196.3 L 554.3 1197.4 L 553.8 1197.9 L 552.3 1199.2 L 548.8 1202.5 L 531.6 1218.4 L 532.0 1218.3 L 536.2 1217.2 L 543.7 1218.0 L 548.6 1218.5 L 550.2 1218.4 L 559.4 1217.8 L 563.5 1212.7 L 569.0 1206.2 L 571.0 1204.3 L 571.8 1204.1 L 572.4 1203.9 L 572.5 1203.9 L 572.9 1206.0 L 574.1 1211.9 L 575.3 1218.2 L 575.4 1218.6 L 576.2 1222.9 L 577.4 1229.1 L 578.4 1233.9 Z " fill="none" stroke="#f3ece0" stroke-width="3" stroke-opacity="0.85" stroke-linejoin="round" fill-rule="evenodd"/><path d="M 781.7 1347.5 L 787.7 1356.5 L 787.8 1360.0 L 787.4 1364.0 L 786.7 1368.7 L 786.7 1369.1 L 786.9 1373.0 L 788.0 1376.6 L 789.3 1379.8 L 791.2 1383.0 L 793.3 1386.1 L 795.7 1389.0 L 799.0 1392.3 L 802.8 1396.0 L 804.5 1397.9 L 804.7 1398.2 L 806.0 1401.4 L 807.8 1405.9 L 808.8 1410.2 L 809.7 1415.1 L 810.4 1419.1 L 810.5 1421.5 L 809.7 1423.2 L 809.4 1425.2 L 809.2 1426.9 L 809.5 1428.7 L 809.6 1430.7 L 808.9 1432.7 L 807.9 1434.7 L 806.3 1436.5 L 805.7 1438.7 L 805.2 1440.6 L 805.5 1443.5 L 806.0 1447.2 L 806.2 1448.9 L 807.1 1450.5 L 809.0 1452.7 L 811.1 1454.3 L 812.5 1455.8 L 812.5 1456.8 L 811.8 1458.3 L 811.8 1459.2 L 812.1 1460.5 L 811.9 1461.6 L 811.7 1462.8 L 810.7 1463.6 L 810.4 1464.1 L 810.8 1465.0 L 812.0 1465.5 L 812.8 1465.9 L 813.3 1466.5 L 813.2 1467.4 L 812.4 1468.3 L 812.1 1468.9 L 812.5 1469.7 L 813.4 1470.4 L 814.2 1471.4 L 815.1 1472.3 L 815.7 1473.2 L 815.7 1474.3 L 815.7 1475.1 L 816.2 1475.6 L 816.7 1476.3 L 816.8 1477.1 L 817.1 1478.0 L 817.5 1479.0 L 817.6 1480.2 L 817.6 1481.6 L 817.3 1482.3 L 816.6 1482.7 L 816.1 1483.0 L 816.3 1483.7 L 816.5 1484.4 L 816.6 1485.1 L 815.7 1485.1 L 814.9 1484.6 L 814.3 1483.8 L 813.4 1484.2 L 813.3 1484.8 L 813.6 1485.5 L 814.3 1485.8 L 814.7 1486.6 L 814.4 1487.1 L 813.9 1487.4 L 813.6 1488.3 L 813.2 1489.0 L 812.4 1489.5 L 812.3 1489.6 L 811.5 1490.4 L 811.5 1491.0 L 811.9 1491.9 L 811.6 1492.8 L 812.1 1493.5 L 812.5 1494.3 L 814.0 1494.3 L 815.4 1495.0 L 815.9 1496.2 L 817.3 1497.2 L 817.8 1498.8 L 818.7 1500.5 L 819.7 1502.3 L 820.2 1504.2 L 821.3 1506.1 L 821.7 1507.8 L 822.5 1510.4 L 823.8 1512.7 L 824.4 1513.9 L 824.8 1516.0 L 824.5 1518.3 L 824.4 1520.6 L 824.6 1521.9 L 825.0 1523.5 L 825.7 1524.6 L 827.0 1526.4 L 828.1 1528.7 L 828.1 1529.7 L 828.1 1530.7 L 828.1 1531.0 L 828.0 1533.3 L 828.1 1536.6 L 827.6 1538.7 L 824.5 1542.8 L 823.1 1544.4 L 820.3 1546.2 L 817.2 1548.6 L 815.4 1551.6 L 817.0 1555.7 L 819.4 1561.5 L 820.7 1565.2 L 820.9 1570.9 L 820.3 1576.2 L 821.7 1585.2 L 826.3 1589.4 L 828.2 1593.1 L 829.0 1595.9 L 831.0 1597.8 L 834.3 1600.3 L 836.1 1604.0 L 834.6 1609.3 L 832.9 1612.7 L 834.7 1617.8 L 836.1 1621.3 L 837.3 1623.9 L 838.8 1626.8 L 839.5 1628.5 L 840.3 1630.5 L 841.4 1632.0 L 842.0 1633.1 L 842.2 1634.3 L 843.1 1635.4 L 843.7 1636.8 L 843.8 1637.0 L 868.4 1614.1 L 885.1 1597.6 L 916.9 1567.8 L 918.3 1563.5 L 918.5 1563.3 L 923.5 1558.5 L 1003.5 1480.9 L 1006.7 1477.7 L 1027.0 1458.1 L 1033.0 1453.4 L 1075.4 1429.5 L 1097.9 1417.5 L 1134.9 1388.8 L 1135.7 1387.1 L 1136.5 1384.7 L 1136.5 1381.8 L 1136.3 1379.0 L 1135.7 1374.5 L 1129.0 1375.0 L 1120.0 1367.6 L 1111.2 1358.3 L 1102.0 1343.3 L 1100.3 1337.3 L 1099.0 1337.6 L 1093.0 1338.8 L 1090.2 1339.4 L 1090.1 1339.4 L 1087.2 1338.9 L 1084.8 1337.7 L 1082.5 1336.2 L 1080.6 1334.3 L 1079.6 1332.5 L 1078.5 1329.2 L 1077.5 1326.5 L 1076.4 1324.7 L 1075.1 1324.7 L 1073.3 1325.5 L 1071.0 1327.8 L 1067.9 1331.9 L 1066.3 1335.2 L 1064.6 1337.3 L 1062.8 1338.5 L 1061.5 1338.0 L 1060.6 1336.8 L 1059.5 1335.4 L 1058.4 1333.1 L 1057.5 1330.5 L 1056.5 1328.7 L 1055.3 1327.6 L 1053.7 1327.0 L 1052.1 1327.0 L 1049.5 1326.8 L 1047.7 1326.7 L 1046.0 1326.1 L 1044.8 1325.5 L 1043.5 1323.8 L 1042.6 1321.5 L 1041.5 1319.0 L 1040.2 1317.0 L 1037.9 1314.0 L 1037.2 1312.1 L 1036.8 1309.9 L 1037.0 1307.7 L 1037.6 1305.3 L 1038.8 1302.1 L 1039.3 1299.8 L 1039.0 1297.7 L 1038.0 1295.4 L 1036.0 1292.3 L 1033.6 1289.8 L 1032.3 1289.3 L 1029.8 1289.6 L 1025.8 1290.0 L 1023.4 1290.5 L 1019.2 1289.5 L 1017.1 1287.7 L 1015.2 1284.7 L 1012.2 1281.8 L 1009.6 1279.7 L 1006.9 1277.1 L 1004.4 1275.9 L 1002.2 1274.5 L 999.3 1271.5 L 997.3 1267.2 L 996.7 1263.6 L 997.9 1257.8 L 1000.9 1250.3 L 1001.8 1244.9 L 1002.0 1239.2 L 1000.1 1235.1 L 993.9 1225.2 L 986.2 1214.2 L 982.1 1209.2 L 968.7 1200.7 L 960.6 1194.0 L 957.5 1190.0 L 955.5 1186.0 L 954.2 1181.1 L 954.2 1173.7 L 957.8 1160.3 L 959.3 1151.6 L 959.1 1146.4 L 957.9 1142.2 L 955.5 1137.8 L 952.4 1132.9 L 947.9 1127.6 L 946.4 1125.6 L 941.3 1118.6 L 936.5 1110.4 L 934.0 1103.4 L 931.1 1089.7 L 931.0 1082.6 L 931.0 1079.3 L 932.5 1069.5 L 936.7 1058.8 L 946.8 1039.6 L 929.9 997.9 L 928.2 993.7 L 889.4 999.2 L 857.5 1009.6 L 855.0 1010.4 L 854.4 1011.7 L 848.7 1024.3 L 824.4 1060.1 L 815.9 1087.8 L 818.0 1094.0 L 821.8 1105.3 L 822.7 1107.2 L 823.2 1108.0 L 823.9 1108.9 L 824.0 1111.2 L 823.8 1114.0 L 823.9 1116.1 L 823.8 1117.0 L 823.4 1119.6 L 823.1 1122.5 L 821.8 1124.6 L 820.8 1126.5 L 819.9 1128.4 L 818.3 1131.3 L 818.1 1132.0 L 817.8 1132.7 L 817.5 1133.3 L 816.8 1134.3 L 816.6 1134.7 L 815.9 1135.3 L 815.0 1136.4 L 814.6 1137.3 L 813.2 1138.4 L 812.4 1139.7 L 811.5 1140.4 L 811.1 1140.8 L 810.6 1141.2 L 808.7 1146.0 L 807.1 1144.0 L 787.2 1142.6 L 784.9 1148.3 L 774.8 1162.1 L 770.7 1170.5 L 768.9 1176.4 L 768.9 1180.7 L 768.9 1181.1 L 768.9 1181.3 L 768.9 1182.8 L 770.8 1189.2 L 773.8 1194.3 L 775.9 1199.1 L 774.9 1205.0 L 772.4 1210.8 L 769.3 1215.0 L 764.4 1217.5 L 757.8 1219.2 L 755.4 1219.0 L 752.0 1221.9 L 749.1 1225.9 L 748.6 1230.3 L 747.6 1237.8 L 747.1 1241.6 L 746.9 1243.4 L 746.4 1248.1 L 747.1 1252.8 L 748.5 1258.0 L 751.3 1262.2 L 755.0 1269.1 L 758.7 1274.2 L 760.6 1279.1 L 762.4 1284.6 L 763.7 1288.7 L 763.1 1293.4 L 762.7 1298.2 L 760.8 1304.2 L 760.7 1304.4 L 758.3 1309.7 L 756.7 1315.0 L 756.9 1319.6 L 757.6 1324.1 L 759.2 1328.3 L 761.1 1331.6 L 766.3 1334.8 L 771.7 1337.0 L 775.5 1340.1 L 778.7 1344.1 L 781.7 1347.5 Z " fill="none" stroke="#f3ece0" stroke-width="3" stroke-opacity="0.85" stroke-linejoin="round" fill-rule="evenodd"/><path d="M 700.9 1726.9 L 710.2 1732.4 L 725.5 1722.4 L 736.9 1714.7 L 810.4 1665.3 L 820.2 1658.9 L 843.8 1637.0 L 843.7 1636.8 L 843.1 1635.4 L 842.2 1634.3 L 842.0 1633.1 L 841.4 1632.0 L 840.3 1630.5 L 839.5 1628.5 L 838.8 1626.8 L 837.3 1623.9 L 836.1 1621.3 L 834.7 1617.8 L 832.9 1612.7 L 834.6 1609.3 L 836.1 1604.0 L 834.3 1600.3 L 831.0 1597.8 L 829.0 1595.9 L 828.2 1593.1 L 826.3 1589.4 L 821.7 1585.2 L 820.3 1576.2 L 820.9 1570.9 L 820.7 1565.2 L 819.4 1561.5 L 817.0 1555.7 L 815.4 1551.6 L 817.2 1548.6 L 820.3 1546.2 L 823.1 1544.4 L 824.5 1542.8 L 827.6 1538.7 L 828.1 1536.6 L 828.0 1533.3 L 828.1 1531.0 L 828.1 1530.7 L 828.1 1529.7 L 828.1 1528.7 L 827.0 1526.4 L 825.7 1524.6 L 825.0 1523.5 L 824.6 1521.9 L 824.4 1520.6 L 824.5 1518.3 L 824.8 1516.0 L 824.4 1513.9 L 823.8 1512.7 L 822.5 1510.4 L 821.7 1507.8 L 821.3 1506.1 L 820.2 1504.2 L 819.7 1502.3 L 818.7 1500.5 L 817.8 1498.8 L 817.3 1497.2 L 815.9 1496.2 L 815.4 1495.0 L 814.0 1494.3 L 812.5 1494.3 L 812.1 1493.5 L 811.6 1492.8 L 811.9 1491.9 L 811.5 1491.0 L 811.5 1490.4 L 812.3 1489.6 L 812.4 1489.5 L 813.2 1489.0 L 813.6 1488.3 L 813.9 1487.4 L 814.4 1487.1 L 814.7 1486.6 L 814.3 1485.8 L 813.6 1485.5 L 813.3 1484.8 L 813.4 1484.2 L 814.3 1483.8 L 814.9 1484.6 L 815.7 1485.1 L 816.6 1485.1 L 816.5 1484.4 L 816.3 1483.7 L 816.1 1483.0 L 816.6 1482.7 L 817.3 1482.3 L 817.6 1481.6 L 817.6 1480.2 L 817.5 1479.0 L 817.1 1478.0 L 816.8 1477.1 L 816.7 1476.3 L 816.2 1475.6 L 815.7 1475.1 L 815.7 1474.3 L 815.7 1473.2 L 815.1 1472.3 L 814.2 1471.4 L 813.4 1470.4 L 812.5 1469.7 L 812.1 1468.9 L 812.4 1468.3 L 813.2 1467.4 L 813.3 1466.5 L 812.8 1465.9 L 812.0 1465.5 L 810.8 1465.0 L 810.4 1464.1 L 810.7 1463.6 L 811.7 1462.8 L 811.9 1461.6 L 812.1 1460.5 L 811.8 1459.2 L 811.8 1458.3 L 812.5 1456.8 L 812.5 1455.8 L 811.1 1454.3 L 809.0 1452.7 L 807.1 1450.5 L 806.2 1448.9 L 806.0 1447.2 L 805.5 1443.5 L 805.2 1440.6 L 805.7 1438.7 L 806.3 1436.5 L 807.9 1434.7 L 808.9 1432.7 L 809.6 1430.7 L 809.5 1428.7 L 809.2 1426.9 L 809.4 1425.2 L 809.7 1423.2 L 810.5 1421.5 L 810.4 1419.1 L 809.7 1415.1 L 808.8 1410.2 L 807.8 1405.9 L 806.0 1401.4 L 804.7 1398.2 L 804.5 1397.9 L 802.8 1396.0 L 799.0 1392.3 L 795.7 1389.0 L 793.3 1386.1 L 791.2 1383.0 L 789.3 1379.8 L 788.0 1376.6 L 786.9 1373.0 L 786.7 1369.1 L 786.7 1368.7 L 787.4 1364.0 L 787.8 1360.0 L 787.7 1356.5 L 781.7 1347.5 L 778.7 1344.1 L 775.5 1340.1 L 771.7 1337.0 L 766.3 1334.8 L 761.1 1331.6 L 759.2 1328.3 L 757.6 1324.1 L 756.9 1319.6 L 756.7 1315.0 L 758.3 1309.7 L 760.7 1304.4 L 760.5 1304.5 L 757.6 1304.5 L 755.5 1304.4 L 753.9 1303.0 L 751.6 1300.0 L 748.9 1300.6 L 747.1 1302.9 L 746.8 1303.8 L 741.5 1306.4 L 741.2 1307.0 L 735.4 1308.0 L 717.5 1304.6 L 702.8 1301.7 L 679.9 1297.9 L 673.7 1296.2 L 663.4 1293.3 L 663.2 1293.2 L 662.8 1294.1 L 660.8 1296.1 L 658.4 1297.1 L 656.3 1297.1 L 654.6 1296.8 L 654.6 1296.7 L 652.9 1289.8 L 652.1 1287.4 L 650.4 1284.9 L 648.1 1283.3 L 646.3 1282.8 L 643.9 1282.5 L 642.8 1282.3 L 642.3 1282.2 L 641.5 1281.2 L 640.2 1280.1 L 636.7 1279.8 L 633.5 1279.6 L 630.3 1278.0 L 626.6 1277.3 L 621.3 1276.1 L 617.3 1276.4 L 616.1 1276.5 L 615.7 1275.1 L 615.8 1273.4 L 615.6 1271.7 L 615.3 1271.5 L 615.1 1271.3 L 613.3 1270.2 L 611.1 1269.5 L 607.4 1268.2 L 605.8 1267.1 L 604.5 1266.3 L 602.8 1266.0 L 600.7 1264.9 L 599.8 1264.2 L 599.7 1262.8 L 599.6 1261.7 L 599.4 1259.3 L 591.6 1260.7 L 584.3 1265.5 L 583.1 1257.8 L 583.1 1257.8 L 583.0 1257.8 L 579.1 1237.6 L 579.1 1237.5 L 578.4 1233.9 L 577.4 1229.1 L 576.2 1222.9 L 575.4 1218.6 L 575.3 1218.2 L 574.1 1211.9 L 572.9 1206.0 L 572.5 1203.9 L 572.4 1203.9 L 571.8 1204.1 L 571.0 1204.3 L 569.0 1206.2 L 563.5 1212.7 L 559.4 1217.8 L 550.2 1218.4 L 548.6 1218.5 L 543.7 1218.0 L 536.2 1217.2 L 532.0 1218.3 L 531.6 1218.4 L 548.8 1202.5 L 552.3 1199.2 L 553.8 1197.9 L 554.3 1197.4 L 555.1 1196.3 L 555.3 1196.4 L 555.5 1196.6 L 558.3 1199.4 L 561.5 1202.2 L 563.3 1203.1 L 562.1 1197.6 L 562.0 1197.5 L 566.8 1196.5 L 571.0 1195.6 L 570.1 1191.2 L 568.8 1184.2 L 568.8 1184.1 L 567.4 1177.1 L 566.5 1172.6 L 566.5 1172.5 L 565.6 1168.1 L 565.0 1164.7 L 564.3 1160.9 L 562.9 1153.5 L 569.0 1152.2 L 574.8 1151.0 L 577.9 1150.4 L 580.6 1148.1 L 581.8 1146.4 L 582.6 1144.5 L 582.7 1142.5 L 582.4 1133.3 L 582.4 1131.1 L 582.1 1124.5 L 582.1 1124.5 L 580.9 1123.6 L 579.9 1123.3 L 572.5 1123.5 L 566.1 1123.6 L 564.4 1123.1 L 563.3 1122.4 L 562.2 1121.2 L 561.5 1119.8 L 561.2 1118.2 L 561.2 1116.2 L 561.6 1108.0 L 558.2 1108.7 L 555.6 1101.1 L 555.6 1101.1 L 558.5 1100.3 L 561.5 1099.5 L 565.3 1096.6 L 568.7 1094.2 L 575.3 1089.4 L 581.5 1084.8 L 585.4 1082.5 L 591.0 1079.2 L 594.5 1077.1 L 599.0 1074.5 L 606.7 1064.2 L 607.5 1063.2 L 610.3 1054.5 L 608.6 1043.3 L 606.1 1026.5 L 606.1 1026.4 L 584.1 1020.8 L 390.1 988.1 L 385.2 986.8 L 368.2 1015.9 L 344.5 1042.0 L 312.6 1062.2 L 282.1 1084.6 L 244.3 1118.1 L 240.2 1121.7 L 233.8 1128.4 L 227.4 1136.1 L 212.4 1149.7 L 209.6 1152.3 L 190.0 1167.5 L 180.8 1175.8 L 167.9 1183.3 L 150.0 1191.8 L 152.5 1212.1 L 153.3 1222.8 L 153.1 1232.5 L 154.8 1244.3 L 156.0 1258.0 L 156.1 1272.1 L 159.1 1282.4 L 161.2 1295.8 L 161.8 1297.9 L 164.5 1313.3 L 169.1 1324.9 L 176.3 1348.6 L 180.2 1359.7 L 192.1 1385.0 L 196.2 1393.8 L 204.3 1407.1 L 210.6 1421.9 L 227.6 1446.7 L 235.7 1455.2 L 245.1 1461.8 L 247.5 1463.0 L 254.3 1466.2 L 257.3 1466.5 L 260.2 1466.1 L 262.8 1465.3 L 263.9 1464.5 L 265.3 1463.6 L 267.5 1461.3 L 269.9 1458.5 L 271.4 1456.6 L 272.8 1454.7 L 275.6 1453.1 L 276.0 1453.2 L 276.2 1453.2 L 276.5 1453.2 L 276.9 1453.2 L 276.9 1453.2 L 277.2 1453.2 L 277.4 1453.2 L 277.9 1453.2 L 278.3 1453.2 L 278.4 1453.2 L 278.5 1453.2 L 278.5 1453.3 L 278.5 1453.3 L 278.6 1453.3 L 278.7 1453.3 L 278.7 1453.3 L 278.9 1453.3 L 279.1 1453.4 L 279.2 1453.4 L 279.3 1453.4 L 279.5 1453.4 L 279.6 1453.5 L 279.9 1453.5 L 280.8 1453.8 L 280.9 1453.8 L 281.2 1453.8 L 281.3 1453.8 L 281.5 1453.8 L 281.6 1453.8 L 281.6 1453.8 L 281.7 1453.8 L 281.9 1453.7 L 281.9 1453.7 L 282.2 1453.5 L 282.3 1453.4 L 282.3 1453.4 L 282.3 1453.4 L 282.4 1453.3 L 282.5 1453.2 L 282.7 1453.0 L 282.8 1452.9 L 282.9 1452.8 L 283.0 1452.7 L 283.1 1452.5 L 283.2 1452.3 L 283.5 1452.0 L 283.7 1451.5 L 283.8 1451.0 L 284.2 1450.0 L 284.3 1450.0 L 284.7 1449.3 L 285.3 1448.8 L 285.9 1448.6 L 286.0 1448.6 L 286.1 1448.6 L 286.3 1448.5 L 286.9 1448.4 L 287.3 1448.3 L 287.7 1448.2 L 288.3 1448.0 L 288.4 1448.0 L 288.6 1447.9 L 288.8 1447.9 L 289.0 1447.9 L 289.1 1447.8 L 289.8 1447.8 L 290.0 1447.8 L 290.5 1447.8 L 290.7 1447.8 L 290.9 1447.7 L 291.3 1447.5 L 291.8 1447.0 L 291.9 1446.9 L 292.0 1446.9 L 292.3 1446.4 L 292.5 1446.1 L 292.5 1446.1 L 292.6 1446.1 L 292.7 1446.0 L 292.8 1445.8 L 293.0 1445.7 L 293.2 1445.3 L 293.4 1445.2 L 293.8 1444.8 L 294.3 1444.5 L 294.3 1444.5 L 296.4 1444.0 L 296.5 1444.0 L 296.6 1444.0 L 298.7 1444.0 L 300.9 1444.2 L 304.2 1443.9 L 306.8 1443.7 L 308.9 1443.9 L 311.4 1444.3 L 314.1 1445.3 L 315.8 1446.6 L 316.8 1448.5 L 317.8 1450.4 L 318.5 1452.2 L 319.3 1454.1 L 320.3 1455.3 L 321.5 1456.2 L 322.8 1456.6 L 325.2 1456.8 L 327.3 1456.9 L 329.7 1456.9 L 331.9 1456.7 L 333.8 1456.2 L 337.0 1455.5 L 339.5 1455.2 L 341.3 1455.2 L 343.1 1455.1 L 346.6 1454.4 L 347.9 1453.8 L 349.8 1452.4 L 351.5 1451.4 L 352.9 1450.8 L 354.3 1450.4 L 355.5 1449.8 L 356.5 1449.0 L 357.8 1448.1 L 359.0 1447.2 L 359.9 1446.2 L 361.0 1445.1 L 362.1 1444.6 L 367.9 1444.9 L 369.6 1445.2 L 370.8 1445.7 L 372.1 1446.4 L 373.0 1446.6 L 373.7 1446.6 L 374.6 1446.4 L 376.1 1445.8 L 377.0 1445.4 L 377.7 1445.6 L 378.0 1446.3 L 377.9 1447.2 L 377.9 1447.9 L 378.1 1449.5 L 378.6 1450.7 L 379.0 1451.7 L 379.6 1452.6 L 380.2 1453.3 L 381.2 1453.9 L 381.9 1454.2 L 382.5 1454.6 L 383.3 1455.5 L 383.9 1456.3 L 384.8 1457.5 L 385.5 1458.4 L 386.7 1459.6 L 387.8 1460.7 L 388.6 1461.3 L 389.5 1461.8 L 390.3 1462.2 L 391.6 1462.5 L 392.8 1463.0 L 393.7 1463.6 L 394.9 1464.3 L 396.4 1465.3 L 397.5 1466.1 L 398.6 1466.7 L 399.3 1467.1 L 399.9 1467.5 L 400.5 1467.9 L 401.5 1468.3 L 402.2 1468.5 L 402.9 1468.8 L 404.0 1469.5 L 404.5 1470.0 L 405.1 1470.6 L 405.5 1471.1 L 405.9 1471.7 L 406.6 1472.7 L 407.6 1473.7 L 408.5 1474.2 L 409.5 1474.8 L 410.7 1475.6 L 411.6 1476.5 L 412.3 1477.3 L 412.4 1477.8 L 411.8 1478.2 L 411.1 1478.5 L 410.0 1478.5 L 409.3 1478.8 L 409.1 1479.6 L 409.3 1480.3 L 410.0 1480.7 L 410.8 1480.9 L 412.0 1480.9 L 413.3 1480.6 L 414.1 1480.2 L 414.1 1480.2 L 414.7 1479.3 L 414.8 1478.1 L 414.6 1477.3 L 415.3 1476.0 L 416.3 1475.4 L 417.6 1475.5 L 418.4 1476.1 L 418.7 1477.3 L 419.1 1478.3 L 419.9 1479.2 L 420.9 1480.5 L 421.6 1481.7 L 421.6 1482.8 L 421.3 1483.8 L 421.4 1484.2 L 422.3 1484.1 L 423.5 1483.5 L 424.3 1482.5 L 425.1 1482.1 L 426.5 1481.9 L 427.6 1482.2 L 428.6 1482.9 L 429.4 1483.1 L 430.6 1482.7 L 431.5 1482.2 L 431.6 1481.6 L 431.2 1481.2 L 430.3 1481.0 L 429.5 1480.7 L 428.9 1479.9 L 428.4 1478.9 L 427.7 1478.3 L 426.9 1478.0 L 426.8 1477.3 L 427.1 1476.5 L 427.8 1475.8 L 428.7 1474.9 L 429.7 1474.3 L 430.8 1473.9 L 431.9 1473.6 L 432.6 1473.6 L 432.9 1474.0 L 433.1 1474.4 L 433.5 1474.4 L 433.9 1474.0 L 434.3 1473.1 L 434.9 1472.3 L 435.4 1471.6 L 436.0 1471.1 L 436.6 1471.2 L 437.0 1471.5 L 437.1 1472.3 L 436.9 1473.3 L 436.7 1474.1 L 436.4 1474.7 L 436.4 1475.1 L 436.9 1475.6 L 437.3 1476.1 L 437.9 1476.9 L 438.5 1477.0 L 439.3 1476.7 L 439.8 1476.8 L 440.1 1477.3 L 440.1 1478.1 L 440.0 1478.9 L 439.6 1479.3 L 438.9 1478.9 L 438.3 1478.6 L 437.9 1478.9 L 438.1 1479.6 L 438.3 1480.9 L 438.5 1482.0 L 438.6 1483.1 L 439.0 1484.6 L 439.8 1484.6 L 440.7 1484.5 L 441.3 1485.2 L 441.2 1485.8 L 440.9 1486.5 L 440.2 1487.2 L 439.9 1487.8 L 440.3 1488.0 L 441.0 1487.6 L 441.8 1487.2 L 442.7 1487.2 L 443.3 1487.4 L 443.5 1488.1 L 443.6 1488.8 L 444.0 1489.3 L 444.7 1489.2 L 445.4 1488.8 L 445.9 1488.4 L 446.1 1488.1 L 445.7 1487.7 L 445.2 1487.6 L 444.8 1487.3 L 444.9 1487.0 L 445.7 1486.8 L 446.1 1486.4 L 446.5 1486.0 L 446.7 1485.4 L 446.9 1485.0 L 447.3 1484.8 L 448.0 1485.0 L 448.7 1485.6 L 449.3 1486.0 L 449.8 1486.1 L 450.2 1486.1 L 450.6 1485.9 L 451.0 1485.7 L 451.5 1485.7 L 452.0 1486.0 L 452.2 1486.4 L 452.1 1486.9 L 451.9 1487.3 L 451.7 1487.7 L 451.7 1488.2 L 452.0 1488.5 L 452.4 1488.6 L 452.9 1488.6 L 453.3 1488.3 L 453.6 1487.9 L 453.9 1487.4 L 454.3 1487.2 L 454.6 1487.6 L 454.5 1488.2 L 454.4 1489.0 L 454.5 1489.5 L 454.9 1490.1 L 455.1 1490.9 L 455.2 1491.6 L 455.1 1491.9 L 454.6 1491.9 L 454.1 1491.5 L 453.6 1491.2 L 453.3 1491.1 L 452.9 1491.7 L 452.5 1492.3 L 452.1 1493.0 L 452.3 1493.6 L 453.0 1494.3 L 452.8 1494.9 L 452.5 1495.5 L 452.4 1496.0 L 452.9 1496.4 L 453.5 1496.5 L 454.1 1496.5 L 454.2 1496.8 L 453.8 1497.5 L 453.7 1497.9 L 453.7 1498.5 L 454.1 1499.0 L 454.4 1499.5 L 454.4 1500.4 L 454.7 1500.9 L 455.4 1501.0 L 455.9 1501.0 L 456.1 1501.4 L 456.2 1502.2 L 456.4 1502.9 L 456.9 1503.2 L 457.3 1503.3 L 457.6 1503.8 L 457.8 1504.1 L 458.3 1504.5 L 459.0 1504.5 L 460.2 1504.7 L 461.0 1504.9 L 461.7 1505.2 L 462.6 1505.3 L 463.4 1505.4 L 463.5 1505.4 L 464.5 1505.5 L 464.6 1505.5 L 466.0 1505.6 L 466.4 1505.7 L 468.7 1509.0 L 476.6 1516.8 L 482.6 1527.6 L 484.8 1537.0 L 489.3 1546.1 L 491.9 1555.8 L 491.0 1565.6 L 487.0 1575.5 L 490.6 1584.3 L 501.3 1589.5 L 512.5 1592.7 L 521.7 1595.9 L 529.9 1602.9 L 537.3 1612.7 L 542.0 1622.1 L 551.6 1630.1 L 551.7 1630.2 L 554.5 1635.6 L 557.7 1641.8 L 557.3 1655.7 L 560.1 1666.5 L 565.5 1679.5 L 577.9 1695.6 L 589.2 1700.8 L 605.6 1706.1 L 615.9 1708.1 L 625.5 1712.8 L 635.7 1721.7 L 648.2 1719.4 L 659.7 1712.5 L 669.9 1719.9 L 682.0 1725.1 L 692.0 1724.0 L 700.9 1726.9 Z " fill="none" stroke="#f3ece0" stroke-width="3" stroke-opacity="0.85" stroke-linejoin="round" fill-rule="evenodd"/><path d="M 862.7 1740.7 L 862.7 1740.7 L 927.6 1744.2 L 927.7 1744.2 L 986.8 1747.4 L 989.1 1747.5 L 1007.9 1748.5 L 1016.6 1749.0 L 1121.0 1754.6 L 1119.1 1745.2 L 1118.8 1735.4 L 1116.8 1723.7 L 1116.0 1714.2 L 1122.0 1705.4 L 1131.3 1687.7 L 1145.1 1679.3 L 1155.3 1675.8 L 1166.0 1673.0 L 1179.0 1677.8 L 1191.9 1680.1 L 1201.9 1679.2 L 1228.9 1684.4 L 1232.2 1684.3 L 1240.1 1684.1 L 1249.2 1682.9 L 1262.6 1674.5 L 1270.3 1667.9 L 1306.8 1640.1 L 1316.7 1636.1 L 1327.6 1635.7 L 1338.9 1633.4 L 1348.1 1627.6 L 1359.0 1627.5 L 1369.2 1632.1 L 1384.3 1628.6 L 1392.6 1622.8 L 1402.3 1617.0 L 1410.0 1608.4 L 1407.6 1596.9 L 1400.4 1583.1 L 1381.8 1557.3 L 1373.1 1536.1 L 1367.1 1526.6 L 1362.5 1516.6 L 1360.5 1513.8 L 1338.2 1514.6 L 1327.1 1515.9 L 1319.2 1515.4 L 1309.2 1514.0 L 1296.8 1512.5 L 1290.4 1511.7 L 1289.9 1511.7 L 1284.9 1511.2 L 1280.0 1509.4 L 1279.6 1509.2 L 1277.1 1506.9 L 1274.1 1504.0 L 1272.0 1500.4 L 1269.3 1498.2 L 1265.2 1496.8 L 1260.2 1496.5 L 1259.7 1496.5 L 1256.1 1496.1 L 1255.4 1496.1 L 1252.4 1494.9 L 1252.1 1494.8 L 1248.5 1493.4 L 1244.3 1491.7 L 1240.1 1490.5 L 1235.2 1490.4 L 1229.6 1490.7 L 1224.1 1490.1 L 1218.7 1488.0 L 1212.9 1486.1 L 1207.4 1483.1 L 1199.3 1478.4 L 1195.2 1472.0 L 1197.1 1453.8 L 1200.9 1434.8 L 1200.9 1425.4 L 1196.0 1407.3 L 1192.9 1398.1 L 1188.3 1387.2 L 1183.2 1371.4 L 1178.5 1369.4 L 1167.6 1367.8 L 1153.5 1370.6 L 1142.2 1373.7 L 1135.7 1374.5 L 1136.3 1379.0 L 1136.5 1381.8 L 1136.5 1384.7 L 1135.7 1387.1 L 1134.9 1388.8 L 1097.9 1417.5 L 1075.4 1429.5 L 1033.0 1453.4 L 1027.0 1458.1 L 1006.7 1477.7 L 1003.5 1480.9 L 923.5 1558.5 L 918.5 1563.3 L 918.3 1563.5 L 916.9 1567.8 L 885.1 1597.6 L 868.4 1614.1 L 843.8 1637.0 L 820.2 1658.9 L 810.4 1665.3 L 736.9 1714.7 L 725.5 1722.4 L 710.2 1732.4 L 862.7 1740.7 Z " fill="none" stroke="#f3ece0" stroke-width="3" stroke-opacity="0.85" stroke-linejoin="round" fill-rule="evenodd"/>
  <path d="M 1354.5 1505.4 L 1346.4 1487.3 L 1332.6 1461.8 L 1331.6 1459.3 L 1326.5 1447.1 L 1313.7 1426.0 L 1308.7 1413.3 L 1302.9 1400.4 L 1296.1 1392.1 L 1290.9 1383.4 L 1284.8 1360.2 L 1278.7 1347.6 L 1274.2 1340.1 L 1271.3 1335.3 L 1265.0 1327.8 L 1259.5 1318.9 L 1253.4 1311.5 L 1243.9 1298.6 L 1242.0 1296.9 L 1225.7 1282.8 L 1220.5 1274.2 L 1216.4 1266.1 L 1216.1 1265.5 L 1207.1 1255.8 L 1201.4 1245.1 L 1192.2 1220.6 L 1197.4 1208.1 L 1187.0 1206.6 L 1182.2 1182.6 L 1182.9 1156.2 L 1184.2 1139.8 L 1188.1 1104.1 L 1181.0 1084.6 L 1174.8 1070.1 L 1168.6 1055.5 L 1159.7 1024.6 L 1158.2 985.2 L 1164.5 949.5 L 1166.2 942.9 L 1175.6 906.8 L 1181.5 872.4 L 1178.8 834.8 L 1169.0 789.6 L 1144.1 750.6 L 1135.6 737.3 L 1103.6 696.8 L 1074.2 663.2 L 1072.8 659.3 L 1066.5 641.0 L 1059.0 597.1 L 1049.7 553.3 L 1045.8 535.1 L 1025.4 493.0 L 1025.2 492.5 L 1001.4 467.9 L 987.1 453.1 L 938.1 384.2 L 916.7 349.4 L 899.4 321.4 L 863.3 253.5 L 832.4 185.8 L 823.7 150.0 L 778.5 213.2 L 737.7 276.1 L 698.8 344.2 L 684.8 364.9 L 676.6 387.8 L 653.4 435.5 L 612.2 506.7 L 603.8 520.4 L 577.3 561.9 L 550.5 612.9 L 515.2 682.4 L 493.0 730.3 L 462.4 798.5 L 458.3 807.7 L 444.7 847.1 L 425.5 895.3 L 412.6 927.7 L 392.8 973.8 L 385.2 986.8 L 368.2 1015.9 L 344.5 1042.0 L 312.6 1062.2 L 282.1 1084.6 L 244.3 1118.1 L 240.2 1121.7 L 233.8 1128.4 L 227.4 1136.1 L 212.4 1149.7 L 209.6 1152.3 L 190.0 1167.5 L 180.8 1175.8 L 167.9 1183.3 L 150.0 1191.8 L 152.5 1212.1 L 153.3 1222.8 L 153.1 1232.5 L 154.8 1244.3 L 156.0 1258.0 L 156.1 1272.1 L 159.1 1282.4 L 161.2 1295.8 L 161.8 1297.9 L 164.5 1313.3 L 169.1 1324.9 L 176.3 1348.6 L 180.2 1359.7 L 192.1 1385.0 L 196.2 1393.8 L 204.3 1407.1 L 210.6 1421.9 L 227.6 1446.7 L 235.7 1455.2 L 245.1 1461.8 L 247.5 1463.0 L 254.3 1466.2 L 257.3 1466.5 L 260.2 1466.1 L 262.8 1465.3 L 263.9 1464.5 L 265.3 1463.6 L 267.5 1461.3 L 269.9 1458.5 L 271.4 1456.6 L 272.8 1454.7 L 275.6 1453.1 L 276.0 1453.2 L 276.2 1453.2 L 276.5 1453.2 L 276.9 1453.2 L 276.9 1453.2 L 277.2 1453.2 L 277.4 1453.2 L 277.9 1453.2 L 278.3 1453.2 L 278.4 1453.2 L 278.5 1453.2 L 278.5 1453.3 L 278.5 1453.3 L 278.6 1453.3 L 278.7 1453.3 L 278.7 1453.3 L 278.9 1453.3 L 279.1 1453.4 L 279.2 1453.4 L 279.3 1453.4 L 279.5 1453.4 L 279.6 1453.5 L 279.9 1453.5 L 280.8 1453.8 L 280.9 1453.8 L 281.2 1453.8 L 281.3 1453.8 L 281.5 1453.8 L 281.6 1453.8 L 281.6 1453.8 L 281.7 1453.8 L 281.9 1453.7 L 281.9 1453.7 L 282.2 1453.5 L 282.3 1453.4 L 282.3 1453.4 L 282.3 1453.4 L 282.4 1453.3 L 282.5 1453.2 L 282.7 1453.0 L 282.8 1452.9 L 282.9 1452.8 L 283.0 1452.7 L 283.1 1452.5 L 283.2 1452.3 L 283.5 1452.0 L 283.7 1451.5 L 283.8 1451.0 L 284.2 1450.0 L 284.3 1450.0 L 284.7 1449.3 L 285.3 1448.8 L 285.9 1448.6 L 286.0 1448.6 L 286.1 1448.6 L 286.3 1448.5 L 286.9 1448.4 L 287.3 1448.3 L 287.7 1448.2 L 288.3 1448.0 L 288.4 1448.0 L 288.6 1447.9 L 288.8 1447.9 L 289.0 1447.9 L 289.1 1447.8 L 289.8 1447.8 L 290.0 1447.8 L 290.5 1447.8 L 290.7 1447.8 L 290.9 1447.7 L 291.3 1447.5 L 291.8 1447.0 L 291.9 1446.9 L 292.0 1446.9 L 292.3 1446.4 L 292.5 1446.1 L 292.5 1446.1 L 292.6 1446.1 L 292.7 1446.0 L 292.8 1445.8 L 293.0 1445.7 L 293.2 1445.3 L 293.4 1445.2 L 293.8 1444.8 L 294.3 1444.5 L 294.3 1444.5 L 296.4 1444.0 L 296.5 1444.0 L 296.6 1444.0 L 298.7 1444.0 L 300.9 1444.2 L 304.2 1443.9 L 306.8 1443.7 L 308.9 1443.9 L 311.4 1444.3 L 314.1 1445.3 L 315.8 1446.6 L 316.8 1448.5 L 317.8 1450.4 L 318.5 1452.2 L 319.3 1454.1 L 320.3 1455.3 L 321.5 1456.2 L 322.8 1456.6 L 325.2 1456.8 L 327.3 1456.9 L 329.7 1456.9 L 331.9 1456.7 L 333.8 1456.2 L 337.0 1455.5 L 339.5 1455.2 L 341.3 1455.2 L 343.1 1455.1 L 346.6 1454.4 L 347.9 1453.8 L 349.8 1452.4 L 351.5 1451.4 L 352.9 1450.8 L 354.3 1450.4 L 355.5 1449.8 L 356.5 1449.0 L 357.8 1448.1 L 359.0 1447.2 L 359.9 1446.2 L 361.0 1445.1 L 362.1 1444.6 L 367.9 1444.9 L 369.6 1445.2 L 370.8 1445.7 L 372.1 1446.4 L 373.0 1446.6 L 373.7 1446.6 L 374.6 1446.4 L 376.1 1445.8 L 377.0 1445.4 L 377.7 1445.6 L 378.0 1446.3 L 377.9 1447.2 L 377.9 1447.9 L 378.1 1449.5 L 378.6 1450.7 L 379.0 1451.7 L 379.6 1452.6 L 380.2 1453.3 L 381.2 1453.9 L 381.9 1454.2 L 382.5 1454.6 L 383.3 1455.5 L 383.9 1456.3 L 384.8 1457.5 L 385.5 1458.4 L 386.7 1459.6 L 387.8 1460.7 L 388.6 1461.3 L 389.5 1461.8 L 390.3 1462.2 L 391.6 1462.5 L 392.8 1463.0 L 393.7 1463.6 L 394.9 1464.3 L 396.4 1465.3 L 397.5 1466.1 L 398.6 1466.7 L 399.3 1467.1 L 399.9 1467.5 L 400.5 1467.9 L 401.5 1468.3 L 402.2 1468.5 L 402.9 1468.8 L 404.0 1469.5 L 404.5 1470.0 L 405.1 1470.6 L 405.5 1471.1 L 405.9 1471.7 L 406.6 1472.7 L 407.6 1473.7 L 408.5 1474.2 L 409.5 1474.8 L 410.7 1475.6 L 411.6 1476.5 L 412.3 1477.3 L 412.4 1477.8 L 411.8 1478.2 L 411.1 1478.5 L 410.0 1478.5 L 409.3 1478.8 L 409.1 1479.6 L 409.3 1480.3 L 410.0 1480.7 L 410.8 1480.9 L 412.0 1480.9 L 413.3 1480.6 L 414.1 1480.2 L 414.1 1480.2 L 414.7 1479.3 L 414.8 1478.1 L 414.6 1477.3 L 415.3 1476.0 L 416.3 1475.4 L 417.6 1475.5 L 418.4 1476.1 L 418.7 1477.3 L 419.1 1478.3 L 419.9 1479.2 L 420.9 1480.5 L 421.6 1481.7 L 421.6 1482.8 L 421.3 1483.8 L 421.4 1484.2 L 422.3 1484.1 L 423.5 1483.5 L 424.3 1482.5 L 425.1 1482.1 L 426.5 1481.9 L 427.6 1482.2 L 428.6 1482.9 L 429.4 1483.1 L 430.6 1482.7 L 431.5 1482.2 L 431.6 1481.6 L 431.2 1481.2 L 430.3 1481.0 L 429.5 1480.7 L 428.9 1479.9 L 428.4 1478.9 L 427.7 1478.3 L 426.9 1478.0 L 426.8 1477.3 L 427.1 1476.5 L 427.8 1475.8 L 428.7 1474.9 L 429.7 1474.3 L 430.8 1473.9 L 431.9 1473.6 L 432.6 1473.6 L 432.9 1474.0 L 433.1 1474.4 L 433.5 1474.4 L 433.9 1474.0 L 434.3 1473.1 L 434.9 1472.3 L 435.4 1471.6 L 436.0 1471.1 L 436.6 1471.2 L 437.0 1471.5 L 437.1 1472.3 L 436.9 1473.3 L 436.7 1474.1 L 436.4 1474.7 L 436.4 1475.1 L 436.9 1475.6 L 437.3 1476.1 L 437.9 1476.9 L 438.5 1477.0 L 439.3 1476.7 L 439.8 1476.8 L 440.1 1477.3 L 440.1 1478.1 L 440.0 1478.9 L 439.6 1479.3 L 438.9 1478.9 L 438.3 1478.6 L 437.9 1478.9 L 438.1 1479.6 L 438.3 1480.9 L 438.5 1482.0 L 438.6 1483.1 L 439.0 1484.6 L 439.8 1484.6 L 440.7 1484.5 L 441.3 1485.2 L 441.2 1485.8 L 440.9 1486.5 L 440.2 1487.2 L 439.9 1487.8 L 440.3 1488.0 L 441.0 1487.6 L 441.8 1487.2 L 442.7 1487.2 L 443.3 1487.4 L 443.5 1488.1 L 443.6 1488.8 L 444.0 1489.3 L 444.7 1489.2 L 445.4 1488.8 L 445.9 1488.4 L 446.1 1488.1 L 445.7 1487.7 L 445.2 1487.6 L 444.8 1487.3 L 444.9 1487.0 L 445.7 1486.8 L 446.1 1486.4 L 446.5 1486.0 L 446.7 1485.4 L 446.9 1485.0 L 447.3 1484.8 L 448.0 1485.0 L 448.7 1485.6 L 449.3 1486.0 L 449.8 1486.1 L 450.2 1486.1 L 450.6 1485.9 L 451.0 1485.7 L 451.5 1485.7 L 452.0 1486.0 L 452.2 1486.4 L 452.1 1486.9 L 451.9 1487.3 L 451.7 1487.7 L 451.7 1488.2 L 452.0 1488.5 L 452.4 1488.6 L 452.9 1488.6 L 453.3 1488.3 L 453.6 1487.9 L 453.9 1487.4 L 454.3 1487.2 L 454.6 1487.6 L 454.5 1488.2 L 454.4 1489.0 L 454.5 1489.5 L 454.9 1490.1 L 455.1 1490.9 L 455.2 1491.6 L 455.1 1491.9 L 454.6 1491.9 L 454.1 1491.5 L 453.6 1491.2 L 453.3 1491.1 L 452.9 1491.7 L 452.5 1492.3 L 452.1 1493.0 L 452.3 1493.6 L 453.0 1494.3 L 452.8 1494.9 L 452.5 1495.5 L 452.4 1496.0 L 452.9 1496.4 L 453.5 1496.5 L 454.1 1496.5 L 454.2 1496.8 L 453.8 1497.5 L 453.7 1497.9 L 453.7 1498.5 L 454.1 1499.0 L 454.4 1499.5 L 454.4 1500.4 L 454.7 1500.9 L 455.4 1501.0 L 455.9 1501.0 L 456.1 1501.4 L 456.2 1502.2 L 456.4 1502.9 L 456.9 1503.2 L 457.3 1503.3 L 457.6 1503.8 L 457.8 1504.1 L 458.3 1504.5 L 459.0 1504.5 L 460.2 1504.7 L 461.0 1504.9 L 461.7 1505.2 L 462.6 1505.3 L 463.4 1505.4 L 463.5 1505.4 L 464.5 1505.5 L 464.6 1505.5 L 466.0 1505.6 L 466.4 1505.7 L 468.7 1509.0 L 476.6 1516.8 L 482.6 1527.6 L 484.8 1537.0 L 489.3 1546.1 L 491.9 1555.8 L 491.0 1565.6 L 487.0 1575.5 L 490.6 1584.3 L 501.3 1589.5 L 512.5 1592.7 L 521.7 1595.9 L 529.9 1602.9 L 537.3 1612.7 L 542.0 1622.1 L 551.6 1630.1 L 551.7 1630.2 L 554.5 1635.6 L 557.7 1641.8 L 557.3 1655.7 L 560.1 1666.5 L 565.5 1679.5 L 577.9 1695.6 L 589.2 1700.8 L 605.6 1706.1 L 615.9 1708.1 L 625.5 1712.8 L 635.7 1721.7 L 648.2 1719.4 L 659.7 1712.5 L 669.9 1719.9 L 682.0 1725.1 L 692.0 1724.0 L 700.9 1726.9 L 710.2 1732.4 L 862.7 1740.7 L 862.7 1740.7 L 927.6 1744.2 L 927.7 1744.2 L 986.8 1747.4 L 989.1 1747.5 L 1007.9 1748.5 L 1016.6 1749.0 L 1121.0 1754.6 L 1119.1 1745.2 L 1118.8 1735.4 L 1116.8 1723.7 L 1116.0 1714.2 L 1122.0 1705.4 L 1131.3 1687.7 L 1145.1 1679.3 L 1155.3 1675.8 L 1166.0 1673.0 L 1179.0 1677.8 L 1191.9 1680.1 L 1201.9 1679.2 L 1228.9 1684.4 L 1232.2 1684.3 L 1240.1 1684.1 L 1249.2 1682.9 L 1262.6 1674.5 L 1270.3 1667.9 L 1306.8 1640.1 L 1316.7 1636.1 L 1327.6 1635.7 L 1338.9 1633.4 L 1348.1 1627.6 L 1359.0 1627.5 L 1369.2 1632.1 L 1384.3 1628.6 L 1392.6 1622.8 L 1402.3 1617.0 L 1410.0 1608.4 L 1407.6 1596.9 L 1400.4 1583.1 L 1381.8 1557.3 L 1373.1 1536.1 L 1367.1 1526.6 L 1362.5 1516.6 L 1360.5 1513.8 L 1354.5 1505.4 Z M 1019.2 1289.5 L 1023.4 1290.5 L 1019.2 1289.5 L 1017.1 1287.7 L 1019.2 1289.5 Z M 1200.9 1434.8 L 1197.1 1453.8 L 1200.9 1434.8 L 1200.9 1425.4 L 1200.9 1434.8 Z M 606.1 1026.4 L 606.1 1026.4 L 606.1 1026.4 L 606.1 1026.4 L 606.1 1026.4 Z M 581.5 1084.8 L 578.0 1087.3 L 581.5 1084.8 L 581.8 1084.6 L 581.5 1084.8 Z M 561.5 1099.5 L 558.5 1100.3 L 557.1 1100.7 L 558.5 1100.3 L 561.5 1099.5 L 563.8 1097.8 L 561.5 1099.5 Z M 561.6 1108.0 L 561.2 1116.2 L 561.2 1116.3 L 561.2 1116.2 L 561.6 1108.0 L 561.6 1108.0 Z M 566.1 1123.6 L 572.5 1123.5 L 579.1 1123.4 L 572.5 1123.5 L 566.1 1123.6 L 565.6 1123.4 L 566.1 1123.6 Z M 580.9 1123.6 L 581.7 1124.2 L 580.9 1123.6 L 580.0 1123.4 L 580.9 1123.6 Z M 582.1 1124.5 L 582.1 1124.5 L 582.1 1124.5 L 582.1 1124.5 Z M 582.4 1131.1 L 582.4 1133.3 L 582.7 1142.5 L 582.6 1144.5 L 582.6 1144.5 L 582.7 1142.5 L 582.4 1133.3 L 582.4 1131.1 L 582.2 1127.5 L 582.4 1131.1 Z M 580.6 1148.1 L 577.9 1150.4 L 580.6 1148.1 L 580.6 1148.1 Z M 577.9 1150.4 L 576.6 1150.6 L 577.9 1150.4 L 577.9 1150.4 Z M 569.0 1152.2 L 562.9 1153.5 L 564.3 1160.9 L 565.0 1164.7 L 565.0 1164.8 L 565.0 1164.7 L 564.3 1160.9 L 562.9 1153.5 L 569.0 1152.2 L 571.0 1151.8 L 569.0 1152.2 Z M 567.2 1167.8 L 565.6 1168.1 L 565.6 1168.1 L 567.2 1167.8 Z M 566.5 1172.6 L 566.8 1174.2 L 566.5 1172.6 L 566.5 1172.6 Z M 568.8 1184.2 L 570.1 1191.2 L 571.0 1195.6 L 570.1 1191.2 L 568.8 1184.2 L 568.8 1184.1 L 568.8 1184.2 Z M 562.1 1197.6 L 563.3 1203.1 L 563.3 1203.1 L 562.1 1197.6 L 562.0 1197.5 L 562.0 1197.5 L 562.1 1197.6 Z M 561.5 1202.2 L 560.5 1201.3 L 561.5 1202.2 L 561.5 1202.2 Z M 555.3 1196.4 L 555.2 1196.3 L 555.3 1196.4 L 555.4 1196.5 L 555.3 1196.4 Z M 554.3 1197.4 L 555.1 1196.3 L 555.1 1196.3 L 554.3 1197.4 Z M 554.3 1197.4 L 553.8 1197.9 L 552.3 1199.2 L 549.8 1201.6 L 552.3 1199.2 L 553.8 1197.9 L 554.3 1197.4 L 554.3 1197.4 Z M 531.8 1218.4 L 531.6 1218.4 L 531.6 1218.4 L 531.8 1218.4 Z M 536.2 1217.2 L 536.2 1217.2 L 536.2 1217.2 L 536.2 1217.2 Z M 543.7 1218.0 L 548.6 1218.5 L 548.6 1218.5 L 543.7 1218.0 L 536.5 1217.2 L 543.7 1218.0 Z M 550.2 1218.4 L 559.4 1217.8 L 559.4 1217.8 L 550.2 1218.4 L 548.6 1218.5 L 550.2 1218.4 Z M 563.5 1212.7 L 565.4 1210.5 L 563.5 1212.7 L 562.1 1214.5 L 563.5 1212.7 Z M 571.8 1204.1 L 572.4 1203.9 L 572.5 1203.9 L 572.4 1203.9 L 571.8 1204.1 L 571.3 1204.2 L 571.8 1204.1 Z M 575.4 1218.6 L 576.2 1222.9 L 576.7 1225.2 L 576.2 1222.9 L 575.4 1218.6 L 575.4 1218.5 L 575.4 1218.6 Z M 579.1 1237.6 L 583.0 1257.8 L 583.0 1257.8 L 583.0 1257.8 L 579.1 1237.6 L 579.1 1237.5 L 579.1 1237.6 Z M 583.1 1257.8 L 583.1 1257.8 L 583.9 1263.0 L 583.1 1257.8 L 583.1 1257.8 L 583.1 1257.8 Z M 599.4 1259.3 L 599.6 1261.7 L 599.7 1262.8 L 599.8 1264.2 L 599.8 1264.2 L 599.7 1262.8 L 599.6 1261.7 L 599.4 1259.3 L 599.4 1259.3 Z M 600.8 1265.0 L 600.7 1264.9 L 600.7 1264.9 L 600.8 1265.0 Z M 604.5 1266.3 L 605.8 1267.1 L 606.8 1267.8 L 605.8 1267.1 L 604.5 1266.3 L 603.0 1266.1 L 604.5 1266.3 Z M 615.1 1271.3 L 615.3 1271.5 L 615.6 1271.7 L 615.8 1273.4 L 615.8 1273.5 L 615.8 1273.4 L 615.6 1271.7 L 615.3 1271.5 L 615.1 1271.3 L 614.8 1271.2 L 615.1 1271.3 Z M 617.3 1276.3 L 621.3 1276.1 L 624.7 1276.8 L 621.3 1276.1 L 617.3 1276.4 L 616.4 1276.5 L 617.3 1276.3 Z M 636.7 1279.8 L 640.2 1280.1 L 641.5 1281.2 L 642.0 1281.8 L 641.5 1281.2 L 640.2 1280.1 L 636.7 1279.8 L 634.6 1279.6 L 636.7 1279.8 Z M 642.8 1282.3 L 643.9 1282.5 L 646.3 1282.8 L 648.1 1283.3 L 650.4 1284.9 L 650.4 1284.9 L 648.1 1283.3 L 646.3 1282.8 L 643.9 1282.5 L 642.8 1282.3 L 642.3 1282.2 L 642.3 1282.2 L 642.8 1282.3 Z M 654.6 1296.7 L 654.6 1296.8 L 654.6 1296.7 L 653.6 1292.7 L 654.6 1296.7 Z M 654.7 1296.8 L 654.6 1296.8 L 654.6 1296.8 L 654.7 1296.8 Z M 662.8 1294.1 L 662.9 1294.1 L 662.8 1294.1 L 662.7 1294.3 L 662.8 1294.1 Z M 673.7 1296.2 L 678.3 1297.5 L 673.7 1296.2 L 670.6 1295.3 L 673.7 1296.2 Z M 702.8 1301.7 L 717.5 1304.6 L 735.4 1308.0 L 741.2 1307.0 L 741.2 1307.0 L 735.4 1308.0 L 717.5 1304.6 L 702.8 1301.7 L 680.2 1297.9 L 702.8 1301.7 Z M 741.5 1306.4 L 745.1 1304.6 L 741.5 1306.4 L 741.4 1306.6 L 741.5 1306.4 Z M 747.1 1302.9 L 747.9 1301.8 L 747.1 1302.9 L 746.8 1303.6 L 747.1 1302.9 Z M 751.6 1300.0 L 752.1 1300.6 L 751.6 1300.0 L 751.6 1300.0 Z M 762.4 1284.6 L 762.0 1283.4 L 762.4 1284.6 L 762.7 1285.3 L 762.4 1284.6 Z M 758.7 1274.2 L 756.1 1270.6 L 758.7 1274.2 L 760.1 1277.8 L 758.7 1274.2 Z M 751.3 1262.2 L 751.2 1262.0 L 751.3 1262.2 L 751.8 1263.2 L 751.3 1262.2 Z M 746.4 1248.1 L 746.9 1243.4 L 747.0 1242.2 L 746.9 1243.4 L 746.4 1248.1 L 746.7 1249.8 L 746.4 1248.1 Z M 748.6 1230.3 L 749.1 1225.9 L 749.1 1225.9 L 748.6 1230.3 L 748.4 1231.9 L 748.6 1230.3 Z M 752.0 1221.9 L 755.4 1219.0 L 757.7 1219.2 L 755.4 1219.0 L 752.0 1221.9 L 749.8 1225.0 L 752.0 1221.9 Z M 769.3 1215.0 L 769.3 1215.0 L 767.8 1215.7 L 769.3 1215.0 Z M 774.9 1205.0 L 775.9 1199.1 L 773.8 1194.3 L 771.0 1189.5 L 773.8 1194.3 L 775.9 1199.1 L 774.9 1205.0 L 772.4 1210.8 L 772.4 1210.8 L 774.9 1205.0 Z M 770.8 1189.2 L 768.9 1182.8 L 768.9 1182.2 L 768.9 1182.8 L 770.8 1189.2 L 770.8 1189.2 Z M 768.9 1180.7 L 768.9 1176.4 L 769.4 1174.7 L 768.9 1176.4 L 768.9 1180.7 L 768.9 1180.8 L 768.9 1180.7 Z M 774.8 1162.1 L 776.2 1160.2 L 774.8 1162.1 L 774.5 1162.7 L 774.8 1162.1 Z M 787.2 1142.6 L 787.0 1131.6 L 787.2 1142.6 L 785.8 1146.0 L 787.2 1142.6 Z M 652.8 1027.6 L 651.7 1027.6 L 652.8 1027.6 L 652.8 1027.6 Z M 676.1 1040.9 L 674.0 1034.4 L 669.1 1032.8 L 674.0 1034.4 L 676.1 1040.9 Z M 663.4 1069.9 L 663.8 1072.1 L 663.4 1069.9 L 665.1 1062.6 L 667.5 1058.1 L 665.1 1062.6 L 663.4 1069.9 Z M 668.7 1086.8 L 666.9 1083.1 L 665.8 1080.0 L 666.9 1083.1 L 668.7 1086.8 Z M 685.8 1098.1 L 675.5 1094.6 L 671.4 1091.0 L 675.5 1094.6 L 685.8 1098.1 Z M 756.4 1095.2 L 767.8 1097.2 L 782.8 1103.0 L 784.7 1107.3 L 785.4 1109.8 L 784.7 1107.3 L 782.8 1103.0 L 767.8 1097.2 L 756.4 1095.2 L 745.4 1095.3 L 739.2 1096.4 L 745.4 1095.3 L 756.4 1095.2 Z M 809.2 1426.9 L 809.4 1425.2 L 809.7 1423.2 L 809.4 1425.2 L 809.2 1426.9 Z " fill="none" stroke="#efe6d4" stroke-width="5" stroke-linejoin="round" stroke-opacity="0.95"/>
  <!-- porto -->
  <g transform="translate(338.3550021975022,1578.0995851534722) scale(2.2)" stroke="#dfe9e0" stroke-width="2.2" fill="none" stroke-linecap="round" stroke-linejoin="round" opacity="0.9"><circle cx="0" cy="-13" r="3.2"/><path d="M0 -10 V12 M-9 4 A11 11 0 0 0 9 4 M-9 4 H-12 M9 4 H12 M-7 -6 H7"/></g>
  <text x="338" y="1630" text-anchor="middle" font-family="Montserrat,Arial,sans-serif" font-size="32" font-weight="700" letter-spacing="1.5" fill="#dfe9e0" opacity="0.9">PORTO DE</text>
  <text x="338" y="1666" text-anchor="middle" font-family="Montserrat,Arial,sans-serif" font-size="32" font-weight="700" letter-spacing="1.5" fill="#dfe9e0" opacity="0.9">VILA DO CONDE</text>
  <g filter="url(#sh)"><g transform="translate(812.73,786.23) scale(3.5)"><path d="M12 1.5C7.86 1.5 4.5 4.86 4.5 9c0 5.4 7.5 13.5 7.5 13.5s7.5-8.1 7.5-13.5c0-4.14-3.36-7.5-7.5-7.5z M12 5.4 a3.6 3.6 0 1 0 0 7.2 a3.6 3.6 0 1 0 0 -7.2 z" fill="#ffffff" fill-rule="evenodd"/></g><rect x="784.5" y="862.2" width="140.4" height="58" rx="14" fill="#16271b"/><text x="854.7" y="892.2" text-anchor="middle" font-family="Montserrat,Arial,sans-serif" font-size="30" font-weight="800" letter-spacing="1.1" fill="#ffffff" dominant-baseline="middle">ILHAS</text></g><g filter="url(#sh)"><g transform="translate(637.02,1111.26) scale(3.5)"><path d="M12 1.5C7.86 1.5 4.5 4.86 4.5 9c0 5.4 7.5 13.5 7.5 13.5s7.5-8.1 7.5-13.5c0-4.14-3.36-7.5-7.5-7.5z M12 5.4 a3.6 3.6 0 1 0 0 7.2 a3.6 3.6 0 1 0 0 -7.2 z" fill="#ffffff" fill-rule="evenodd"/></g><rect x="580.2" y="1187.3" width="197.7" height="58" rx="14" fill="#16271b"/><text x="679.0" y="1217.3" text-anchor="middle" font-family="Montserrat,Arial,sans-serif" font-size="30" font-weight="800" letter-spacing="1.1" fill="#ffffff" dominant-baseline="middle">MURUCUPI</text></g><g filter="url(#sh)"><g transform="translate(896.09,1250.98) scale(3.5)"><path d="M12 1.5C7.86 1.5 4.5 4.86 4.5 9c0 5.4 7.5 13.5 7.5 13.5s7.5-8.1 7.5-13.5c0-4.14-3.36-7.5-7.5-7.5z M12 5.4 a3.6 3.6 0 1 0 0 7.2 a3.6 3.6 0 1 0 0 -7.2 z" fill="#ffffff" fill-rule="evenodd"/></g><rect x="877.4" y="1327.0" width="121.3" height="58" rx="14" fill="#16271b"/><text x="938.1" y="1357.0" text-anchor="middle" font-family="Montserrat,Arial,sans-serif" font-size="30" font-weight="800" letter-spacing="1.1" fill="#ffffff" dominant-baseline="middle">SEDE</text></g><g filter="url(#sh)"><g transform="translate(501.69,1333.10) scale(3.5)"><path d="M12 1.5C7.86 1.5 4.5 4.86 4.5 9c0 5.4 7.5 13.5 7.5 13.5s7.5-8.1 7.5-13.5c0-4.14-3.36-7.5-7.5-7.5z M12 5.4 a3.6 3.6 0 1 0 0 7.2 a3.6 3.6 0 1 0 0 -7.2 z" fill="#ffffff" fill-rule="evenodd"/></g><rect x="404.9" y="1409.1" width="277.6" height="58" rx="14" fill="#16271b"/><text x="543.7" y="1439.1" text-anchor="middle" font-family="Montserrat,Arial,sans-serif" font-size="30" font-weight="800" letter-spacing="1.1" fill="#ffffff" dominant-baseline="middle">VILA DO CONDE</text></g><g filter="url(#sh)"><g transform="translate(1180.68,1515.90) scale(3.5)"><path d="M12 1.5C7.86 1.5 4.5 4.86 4.5 9c0 5.4 7.5 13.5 7.5 13.5s7.5-8.1 7.5-13.5c0-4.14-3.36-7.5-7.5-7.5z M12 5.4 a3.6 3.6 0 1 0 0 7.2 a3.6 3.6 0 1 0 0 -7.2 z" fill="#ffffff" fill-rule="evenodd"/></g><rect x="1123.8" y="1591.9" width="197.7" height="58" rx="14" fill="#16271b"/><text x="1222.7" y="1621.9" text-anchor="middle" font-family="Montserrat,Arial,sans-serif" font-size="30" font-weight="800" letter-spacing="1.1" fill="#ffffff" dominant-baseline="middle">ESTRADAS</text></g>
</svg>